<?xml version="1.0" encoding="UTF-8"?>
<!DOCTYPE svg PUBLIC "-//W3C//DTD SVG 1.1//EN" "http://www.w3.org/Graphics/SVG/1.1/DTD/svg11.dtd">
<!-- Creator: CorelDRAW (Versión de evaluación) -->
<?xml-stylesheet href="DG_Pastelería.css" type="text/css"?>
<svg xmlns="http://www.w3.org/2000/svg" xml:space="preserve" width="297mm" height="101.6mm" version="1.1" style="shape-rendering:geometricPrecision; text-rendering:geometricPrecision; image-rendering:optimizeQuality; fill-rule:evenodd; clip-rule:evenodd"
viewBox="0 0 29700 10159.98"
 xmlns:xlink="http://www.w3.org/1999/xlink"
 xmlns:xodm="http://www.corel.com/coreldraw/odm/2003">
 <g id="Capa_x0020_1">
  <metadata id="CorelCorpID_0Corel-Layer"/>
  <g id="_2455793976320">
   <g>
    <path class="fil0" d="M26507.4 3873.7c55.42,-67.54 152.12,-172.93 246.32,-172.93 3.69,0 7.65,0.7 11.6,1.81 13.69,-35.08 34.66,-65.34 63.61,-90.59 35,-30.54 76.96,-45.11 123.34,-45.11 44.38,0 79.38,22 105.24,57.3 32.17,43.92 40.2,103.67 40.2,156.71 0,103.63 -32.69,209.16 -74.13,303.66 99.73,123.9 262.45,155.72 414.63,155.72 175.25,0 359.52,-40.02 527.09,-88.73 156.14,-45.38 323.05,-95.79 471.82,-161.77 97.49,-43.24 194.66,-87.47 290.51,-133.52 10.27,-5.36 27.02,-13.75 39.09,-13.75 26.37,0 37.65,21.68 37.65,45.5 0,23.97 -17.51,38.75 -37.45,47.6 -193.35,98.1 -423.28,174.01 -630.03,239.99 -246.76,78.75 -511.11,136.74 -771.17,136.74 -137.63,0 -288.29,-19.22 -410.27,-88.14 -71.97,129.59 -205.31,336.98 -366.32,336.98 -170.66,0 -225.77,-124.77 -225.77,-278.67 0,-94.38 17.73,-184.94 56.34,-269.45 -3.64,1.67 -7.3,3.33 -10.94,4.99 -133.36,60.67 -269.1,117.74 -404.13,174.6 -177.23,74.65 -356.06,145.52 -536.32,212.56 -179.88,66.91 -363.51,123.55 -549.1,172.35 -147.48,38.77 -316.69,75.72 -469.79,75.72 -83.84,0 -187.49,-8.75 -261.97,-50.74 -72.74,-41.02 -93.78,-119.44 -93.78,-197.89 0,-233.29 116.04,-498.89 230.78,-710.87 -130.15,88.52 -266.82,167.09 -409.39,234.05 -5.1,3.1 -10.6,5.67 -16.15,7.88 -462.28,252.97 -1065.5,544.22 -1594.09,606.4l-98.53 12.87 0 6.43c0,89.11 -47.26,152.57 -124.01,194.72 -83.59,45.88 -174.55,65.66 -269.62,65.66 -117.14,0 -244.7,-32.18 -244.7,-172.2 0,-50.03 101.06,-75.47 137.38,-85.05 111.51,-29.43 234.89,-46.37 350.38,-60.73 -34.13,-91.28 -138.55,-219.52 -194.11,-286.41 -52.97,-63.77 -142.59,-175.23 -172.46,-262.04 -293.91,132.67 -596.75,247.83 -901.75,352.05 -245.61,83.94 -565.65,181.28 -827.07,181.28 -78.53,0 -182.21,-10.35 -241.12,-68.79 -51.31,-50.9 -68.25,-120.56 -68.25,-190.95 0,-16.92 1.09,-34.45 4.01,-51.6 -103.92,52.28 -213.74,93.81 -324.6,128.26 -89.54,27.85 -213.11,64.2 -307.3,64.2 -114.42,0 -172.21,-62.1 -172.21,-175.46 0,-52.89 21.57,-123.94 37.45,-174.17 9.89,-31.25 35.71,-108.01 35.71,-140.01 0,-8.88 -0.49,-53.77 -15.9,-53.77 -37.32,0 -83.67,13.95 -118.76,25.8 -44.19,14.91 -88.07,33.12 -128.75,56.04l-0.62 0.35 -36.28 16.92c-5.63,4.27 -11.96,7.62 -18.16,10.27 -167.8,79.11 -341.94,151.8 -513.11,224.2 -251.61,106.44 -501.35,217.32 -749.22,332.2 -229.65,106.43 -456.88,218.86 -679.27,339.75 -180.12,326.94 -378.86,646.25 -603.61,944.5 -73.28,97.24 -313.78,418.92 -451.25,418.92 -72.61,0 -99.07,-52.32 -99.07,-117.99 0,-526.47 554.33,-984.21 946.2,-1257.06 96.71,-179.83 187.26,-363.02 272.74,-548.47 -165.62,158.02 -364.54,250.82 -603.24,250.82 -134.23,0 -260.95,-36.77 -347.67,-144.1 -86.75,-107.39 -114.54,-244.33 -114.54,-379.5 0,-182.4 48.61,-363.9 117.67,-531.6 78.92,-191.65 183.99,-370.14 310.8,-534.04 132.86,-171.7 297.69,-309.95 485.52,-418.2 186.52,-107.48 388.54,-169.05 604.36,-169.05 174.05,0 279.33,79.51 279.33,259.73 0,56.08 -23.38,123.71 -43.77,175.37 -20.36,51.66 -56.5,118.97 -120.61,118.97 -24.9,0 -46.55,-8.92 -64.83,-26.38 -17.45,-18.28 -26.38,-39.94 -26.38,-64.83 0,-19.2 33.14,-87.76 41.58,-105.88 20.09,-43.13 38.75,-94.81 38.75,-142.96 0,-78.13 -51.59,-100.17 -123.01,-100.17 -151.73,0 -296.84,33.76 -434.23,98.17 -135.72,63.62 -257.24,149.69 -359.35,259.66 -102.18,110.05 -190.72,231.32 -265.25,361.67 -72.78,127.3 -131.05,262.02 -170.66,403.31 -35.08,125.19 -56.78,255.3 -56.78,385.53 0,116.49 24.62,233.62 100.81,325.05 76.34,91.6 189.9,119.31 305.01,119.31 101.11,0 201.98,-58.86 279.97,-118.3 116.62,-88.89 212.94,-204.89 293.15,-326.94 43.53,-107.99 124.01,-311.65 124.01,-427.58 0,-39.82 10.34,-77.31 34.48,-109.25 19.8,-26.19 46.02,-47.29 80.26,-47.29 70.35,0 83.38,73.89 83.38,129.76 0,335.47 -266.67,863.38 -436.96,1177.57 204.81,-101.21 411.61,-198.52 619.48,-293.27 239.2,-109.02 479.07,-216.58 719.27,-323.38 160.59,-71.39 321.53,-142.43 481.49,-215.21 2.06,-1.05 4.17,-2.01 6.31,-2.89 0.63,-0.32 1.24,-0.63 1.86,-0.91 108.49,-54.3 242.6,-107.86 365.73,-107.86 95.55,0 175.47,34.2 175.47,140.85 0,42.03 -25.87,109.75 -41.14,148.6 -13.73,34.89 -39.2,101.1 -39.2,138.79 0,15.65 0.32,88.4 27.01,88.4 96.5,0 220.72,-34.92 312.68,-62.56 107.25,-32.26 224.21,-75.53 318.54,-137.59 8.6,-29.3 20.18,-70.7 20.18,-99.21 0,-26.7 20.21,-47.24 40.64,-61.05 20.01,-14.57 43.94,-26.26 69.52,-26.26 42.97,0 84.04,15.05 84.04,64.44 0,13.09 -5.44,25.74 -12.52,36.53 -2.51,4.49 -6.43,12.03 -6.43,17.04l0 1.89 -0.38 1.86c-8.45,41.3 -34.09,95.47 -51.58,133.97 -14.49,31.86 -40.12,90.7 -40.12,126.14 0,138.56 144.17,157.63 252.98,157.63 97.52,0 208.3,-24.41 302.46,-48.33 155.4,-39.47 309.85,-91.4 460.58,-145.85 295.19,-106.61 593.05,-222.66 875.76,-359.52 13.69,-62.33 58.08,-111.28 108.29,-148.65 64.62,-48.08 138.36,-82.07 220.19,-82.07 30.55,0 102.98,0.27 102.98,45.5 0,25.06 -31.68,42 -51.18,51.52 -32.91,15.24 -64.84,33.52 -95.64,52.64 -31.09,18.45 -59.53,42.33 -77.79,73.74 -8.55,14.73 -13.14,30.37 -13.14,47.43 0,73.03 106.01,209.58 149.39,263.94 67.54,84.64 150.08,202.32 172.56,312.95l77.82 -9.52c547.4,-98.67 1085.87,-335.54 1569.85,-605.14 5.04,-3.7 10.58,-6.66 16.08,-8.97 0.38,-0.16 0.76,-0.32 1.14,-0.47 5.06,-2.34 10.31,-4.76 15.59,-7.23l6.75 -3.17c196.8,-92.41 381.78,-207.18 552.98,-341.15 79.29,-124.61 163.63,-245.99 252.73,-363.76 -91.94,7.06 -183.94,13.48 -275.94,19.63 -85.57,5.72 -171.12,11.9 -256.69,17.64 -32.21,2.16 -68.39,5.91 -100.52,5.91 -28.61,0 -49.42,-15.63 -49.42,-45.5 0,-22.26 16.27,-33.94 37.11,-34.38 244.98,-28.83 491.75,-58.41 737.53,-79.6 121.18,-150.1 249.98,-296.22 389.14,-429.88 39.15,-37.58 187.08,-182.87 244.17,-182.87 64.37,0 72.28,77.51 72.28,125.84 0,69.53 -263.19,351.49 -366.08,460.21 339.75,-21.78 680.33,-31.52 1020.76,-31.52 47,0 180.04,0.32 180.04,72.27 0,39.47 -28.18,57.25 -65.09,57.25 -44.99,0 -93.55,-3.85 -138.66,-5.9 -65.64,-2.97 -131.98,-5.85 -197.7,-5.85 -115.26,0 -231.55,4.86 -346.7,9.69 -188.97,7.94 -377.94,17.92 -566.8,28.38 -22.6,24.89 -47.89,49.41 -71.35,73.18 -59.69,60.5 -119.74,120.65 -179.83,180.74 -193.03,263.1 -500.42,720.05 -500.42,1059.59 0,118.52 124.92,134.12 218.37,134.12 174.83,0 380.48,-53.21 547.27,-102.43 236.91,-69.9 469.43,-153.81 696.87,-250.09 183.27,-77.59 366.83,-155.04 549.06,-235.03 79.53,-34.93 159.91,-70.13 238.01,-108.21zm23.88 29.99c-6.57,8.17 -12.94,16.5 -19.09,24.98 17.72,-8.53 35.29,-17.31 52.43,-26.48l1.23 -0.6c4.68,-2.07 15.65,-7.14 15.65,-13.59 0,-1.63 -0.16,-5.73 -0.88,-7.99 -5.21,1.18 -16.62,7.09 -21.39,9.59 -9.25,4.8 -18.59,9.48 -27.95,14.09zm-2630.77 -23.68c-6.92,2.71 -14.13,6.41 -20.38,9.51 -4.16,2.34 -8.62,4.85 -13.14,7.35 -1.86,1.6 -3.67,3.7 -3.67,6.16 0,1.02 0.07,3.22 0.4,4.79 5.86,-0.06 12.74,-2.93 18.27,-5.87 5.32,-2.47 10.21,-4.75 15.06,-7.02 2.36,-1.54 5.9,-4.17 5.9,-6.93 0,-1.57 -0.13,-6.29 -1.17,-7.62 -0.31,-0.18 -0.82,-0.28 -1.27,-0.37zm-2183.34 7.99c-0.46,4.59 -0.71,9.2 -0.74,13.8 0.16,-0.07 0.31,-0.13 0.47,-0.21 5.25,-2.26 15.64,-6.76 15.64,-13.59 0,-1.52 -0.12,-5.03 -0.63,-7.45 -3.92,1.69 -9.94,4.92 -14.74,7.45zm-3142.76 6.15c-3.48,2.15 -7.46,5.33 -7.46,8.88 0,1.02 0.08,3.22 0.4,4.79 5.87,-0.06 12.74,-2.93 18.25,-5.87l17.87 -8.32c1.53,-1.54 2.47,-3.18 2.47,-5.63 0,-1.61 -0.14,-5.49 -0.74,-7.91 -3.42,0.81 -9.56,3.64 -14.38,5.98l-5.22 2.57c-0.27,0.14 -0.53,0.26 -0.82,0.4l-1.21 0.6c-0.15,0.07 -0.3,0.15 -0.45,0.22 -0.03,0.01 -0.07,0.04 -0.11,0.05l-8.6 4.24zm-7577.56 16.98c22.55,-23.29 46.48,-45.27 71.23,-66.17 139.57,-117.81 300.27,-189.9 484.31,-189.9 89.48,0 160.46,34.44 160.46,133.67 0,110.93 -83.09,203.83 -163.53,270.44 -113.42,93.92 -248.07,134.94 -394.69,134.94 -35.67,0 -77.06,-3.47 -111.86,-17.53 -1.89,14.91 -3.32,30.1 -3.32,44.53 0,75.2 31.63,133.53 91.74,178.32 79.59,59.31 203.18,70.75 299.06,70.75 242.12,0 512.38,-71.96 741.16,-146.44 361.58,-117.73 718.37,-275.78 1060.37,-440.74 17.69,-9.06 35.78,-18.48 53.77,-26.87 8.21,-4.11 25.52,-13.63 34.9,-13.63 27.67,0 41.58,19.21 41.58,45.5 0,25.36 -20.16,39.47 -41.62,47.76 -303.35,163.55 -625.65,299.48 -948.32,419.8 -301.38,112.38 -640.87,205.61 -964.7,205.61 -134.13,0 -306.99,-13.77 -423.42,-87.13 -86.22,-54.32 -142.63,-129.69 -142.63,-233.99 0,-69.51 19.87,-134.04 52.61,-193.33 -78.37,32.03 -157.3,62.97 -236.06,93.86 -163.41,64.05 -328.17,125.08 -494.7,180.59 -169.96,56.65 -343.7,102.95 -518.45,142.23 -154.76,34.79 -321.24,63.15 -480.25,63.15 -107.03,0 -230.34,-16.82 -316.16,-86.47 -73.04,-59.27 -108.81,-136.75 -108.81,-230.73 0,-41.81 9.81,-81.08 26.83,-117.72 -80.8,40.77 -161.63,81.57 -242.82,121.46 -103.47,50.85 -206.88,101.77 -310.23,152.82 -111.26,54.93 -224.53,108.78 -339.58,155.35 -101.11,40.94 -202.72,80.62 -304.79,119.06 -96.14,36.19 -194.88,69.09 -294.9,92.78 -72.91,17.26 -151.26,31.2 -226.38,31.2 -186.95,0 -298.28,-86.42 -298.28,-279.31 0,-154.09 73.38,-344.84 140.2,-492.24 -267.41,117.03 -541.45,220.31 -817.55,314.65 -245.61,83.93 -565.65,181.28 -827.07,181.28 -78.53,0 -182.21,-10.35 -241.12,-68.79 -51.31,-50.9 -68.25,-120.56 -68.25,-190.95 0,-16.92 1.09,-34.45 4.01,-51.6 -103.92,52.28 -213.74,93.81 -324.59,128.26 -89.54,27.85 -213.12,64.2 -307.31,64.2 -114.41,0 -172.21,-62.1 -172.21,-175.46 0,-52.89 21.57,-123.94 37.45,-174.17 9.89,-31.25 35.71,-108.01 35.71,-140.01 0,-8.88 -0.49,-53.77 -15.9,-53.77 -37.32,0 -83.66,13.95 -118.76,25.8 -44.19,14.91 -88.06,33.12 -128.75,56.04l-0.62 0.35 -41.26 19.22c-5.13,3.13 -10.64,5.7 -16.22,7.91 -135.07,72.81 -298.68,131.54 -442.95,183.25 -258.15,92.54 -520.86,175.77 -782.98,256.32 -215.41,243.8 -462.94,454.4 -743.67,619.62 -176.07,103.62 -442.7,243.59 -652.19,243.59 -81.78,0 -210.1,-13.88 -210.1,-121.91 0,-166.39 298.71,-350.51 420.56,-423.62 317.93,-190.77 690.4,-314.13 1049.55,-400.43 343.6,-409.6 580.77,-886.33 580.77,-1429.96 0,-128.9 -9.8,-410.4 -195.52,-410.4 -268.53,0 -689.82,504 -842.44,690.05 -199.37,243.07 -376.02,527.55 -535.91,797.77 -155.6,262.96 -318.35,533.61 -496.94,782.28 -13.3,16.65 -33.32,22.44 -53.45,22.44 -21.19,0 -40.7,-8.01 -57.09,-20.84 -18.38,-13.79 -30.2,-31.77 -30.2,-55.36 0,-12.7 2.28,-26.67 10.15,-37.04 117.12,-227.09 242.11,-450.8 369.2,-672.43 133.55,-232.91 263.8,-468.29 386.23,-707.25 110.78,-216.22 207.33,-439.65 291.67,-667.31l18.64 -52.68 -36.14 24.85c-88.08,60.56 -176.28,123.32 -259.45,190.51 -76.53,61.81 -149.12,129.65 -218.65,199.19 -71.42,71.42 -133.83,153.04 -175.81,245.32 -38.22,84.04 -57.75,171.63 -57.75,263.95 0,35.11 -6.07,71.05 -26.26,100.89 -14.63,20.13 -34.76,39.97 -61.04,39.97 -29.3,0 -48.43,-26.46 -60.98,-49.87 -15.87,-30.95 -23.05,-64.31 -23.05,-98.82 0,-388.06 526.01,-786.12 808.1,-983.3 50.49,-35.31 164.56,-114.42 228.21,-114.42 65.9,0 80.12,64.17 80.12,118 0,119.18 -144.09,439.99 -193.01,551.07l-14.15 31.08 8.9 -11.46c140.84,-192.64 302.96,-368.11 487.7,-519.84 127.99,-105.13 303.95,-222.41 476.27,-222.41 306.92,0 336.81,393.85 336.81,619.61 0,499.14 -198.79,941.16 -502.44,1326.96 221.85,-67.56 443.81,-137.53 662.4,-214.57 132.98,-46.85 281.66,-99.41 406.81,-164.71 0.33,-0.23 0.68,-0.46 1.02,-0.68l-0.1 -0.21 2.15 -1.08c3.77,-2.28 7.75,-4.23 11.81,-5.91 0.74,-0.38 1.48,-0.75 2.23,-1.11l0.51 -0.25c108.26,-54.1 242.01,-107.41 364.85,-107.41 95.56,0 175.47,34.2 175.47,140.85 0,42.03 -25.87,109.75 -41.14,148.6 -13.73,34.89 -39.2,101.1 -39.2,138.79 0,15.65 0.33,88.4 27.01,88.4 96.5,0 220.72,-34.92 312.68,-62.56 107.25,-32.26 224.21,-75.53 318.54,-137.59 8.6,-29.3 20.18,-70.7 20.18,-99.21 0,-26.7 20.21,-47.24 40.64,-61.05 20.01,-14.57 43.94,-26.26 69.52,-26.26 42.97,0 84.04,15.05 84.04,64.44 0,13.09 -5.44,25.74 -12.52,36.53 -2.51,4.49 -6.43,12.03 -6.43,17.04l0 1.89 -0.38 1.86c-8.45,41.3 -34.08,95.47 -51.58,133.97 -14.49,31.86 -40.12,90.7 -40.12,126.14 0,138.56 144.17,157.63 252.98,157.63 97.52,0 208.3,-24.41 302.46,-48.33 155.41,-39.47 309.85,-91.4 460.58,-145.85 287.95,-103.99 577.73,-216.87 854.09,-349.05 27.17,-54.85 55.59,-109.1 84.87,-162.85 184.97,-339.77 408.36,-656.08 668.11,-942.84 146.93,-162.2 415.71,-433.3 653.31,-433.3 73.63,0 102.97,50.07 102.97,118.64 0,76.06 -38.6,169.96 -71.1,237.39 -206.13,427.81 -805.14,885.47 -1184.6,1156.71 -98.27,183.28 -267.43,516.24 -267.43,726.01 0,97.07 93.92,111.26 172.64,111.26 132.99,0 315.44,-63.52 438.87,-109.83 174.84,-65.61 349.32,-136.89 516.92,-219.39 195.13,-96.06 388.74,-195.72 581.56,-296.33 91.42,-47.7 182.87,-95.39 274.57,-142.57 9.02,-7.07 18.21,-13.92 27.52,-20.63 144.87,-104.15 314.91,-145.25 491.66,-145.25 58.1,0 167.63,7.41 167.63,87.96 0,95.27 -115.74,106.89 -187.23,106.89 -17.94,0 -29.82,-12.71 -29.82,-30.48 0,-12.48 9.47,-26.82 16.4,-37.44 2.87,-3.9 9.5,-13.25 10.43,-16.78 -0.05,-9.09 -2.29,-11.31 -12.03,-11.31 -117.98,0 -233.61,26.17 -327.29,101.06 -66.67,53.28 -124.91,123.87 -124.91,213.33 0,76.75 21.8,145.35 75.17,201.3 58.18,61.02 142.16,78.46 223.54,78.46 245.89,0 524.74,-73.4 757.91,-146.74 264.82,-83.29 535.91,-175.13 788.06,-291.75l202.78 -93.78zm22.04 31.05c-5.64,5.91 -11.2,11.91 -16.65,18.02 44.31,-19.83 88.65,-40.04 133.22,-58.68 4.48,-2 15.47,-7.07 15.47,-13.52 0,-1.51 -0.13,-5.05 -0.71,-7.42 -4.88,2.12 -12.96,6.57 -18.03,9.21l-113.3 52.39zm-2081.83 5.94c-15.15,11.93 -30.06,24.56 -44.34,37.9 54.59,-27.53 109.15,-55.31 163.07,-83.87l1.16 -0.56c4.67,-2.07 15.66,-7.14 15.66,-13.59 0,-1.51 -0.13,-5.05 -0.71,-7.42 -4.86,2.11 -12.9,6.54 -17.62,9.01l-0.71 0.37 -0.75 0.31c-37.6,15.66 -79.21,39.01 -115.76,57.85zm-1962.96 -46.55c-2.63,5.36 -5.26,10.73 -7.88,16.1 11.75,-5.32 23.51,-10.67 35.3,-16.08 5.26,-2.26 15.64,-6.76 15.64,-13.59 0,-1.52 -0.11,-5.03 -0.63,-7.45 -4.86,2.1 -13,6.58 -17.93,9.15 -8.26,4.04 -16.38,7.97 -24.5,11.87zm-3088.77 -6.65c2.36,-1.54 5.88,-4.17 5.88,-6.92 0,-1.57 -0.14,-6.29 -1.18,-7.62 -0.57,-0.33 -1.97,-0.42 -2.02,-0.54 0,0 -0.01,0 -0.01,0l0.04 0.09 -16.77 8.2c-0.15,0.07 -0.32,0.15 -0.47,0.22l-2.77 1.37c-3.63,1.99 -7.52,4.05 -11.43,6.11 -2.32,1.72 -5.03,4.24 -5.03,7.2 0,1.02 0.08,3.22 0.4,4.79 5.87,-0.06 12.74,-2.93 18.25,-5.85l15.11 -7.05zm-1463.11 522.95c-287.12,72.62 -586.44,173.05 -839.65,324.19 -86.8,51.81 -337.05,205.27 -337.05,324.87 0,59.72 97.78,61.63 138.04,61.63 149.76,0 359.12,-128.84 479.47,-209.14 209.23,-139.59 394.53,-311.91 559.19,-501.55zm4902.31 -779.95c333.98,-253.02 807.93,-643.49 980.49,-997.61 20.06,-43.4 63.51,-138.91 63.51,-187.27 0,-7.67 -0.05,-11.98 -8.06,-11.98 -147.28,0 -389.39,287.18 -473.46,389.01 -209.13,253.28 -395.54,525.06 -562.48,807.85zm3799.93 355.46c-12.14,20.59 -20.35,43.09 -20.35,67.05 0,36.42 46.44,38.76 73.38,38.76 92.98,0 175.24,-28.8 245.77,-89.53 45.6,-39.26 102.57,-98.78 102.57,-163.45 0,-41.72 -38.45,-46.6 -72.72,-46.6 -68.16,0 -130.92,18.73 -189.8,52.99 -59.06,34.35 -106,80.24 -138.85,140.78zm5221.12 1029.11c-193.15,155.2 -370.06,330.96 -518.36,529.82 -104.33,139.9 -234.03,343.82 -234.03,525.04 0,8.02 -0.46,15.25 8.71,15.25 73.75,0 261.4,-275.97 298,-330.1 160.86,-237.86 307.47,-487.87 445.68,-740.01zm5723.97 -446.92c-98.37,13.17 -206.51,29.58 -299.92,58.57 -15.96,4.96 -95.01,31.08 -95.01,53.98 0,41.74 93.48,42.01 119.1,42.01 67.41,0 133.4,-12.58 194.36,-41.92 48.51,-23.33 80.56,-57.63 81.47,-112.64zm4798.89 -427.23c-82.42,-83.35 -115.32,-193.64 -121.3,-308.21 -29.81,29.6 -64.28,56.25 -97.7,79.48 -55.35,110.65 -141.53,295.93 -141.53,419.71 0,38.94 2.98,115.84 57.7,115.84 128.56,0 247.4,-202.53 302.83,-306.82zm87.41 -199.86c23.72,-67.85 50.85,-154.96 50.85,-213.32 0,-8.12 -1.52,-69.44 -15.89,-69.44 -16.83,0 -28.07,16.26 -35.02,29.81 -14.57,27.14 -18.76,59.04 -18.76,89.28 0,51.88 3.82,110.97 18.82,163.67z"/>
   </g>
   <path class="fil1" d="M2474.31 4385.7c-369.69,89.49 -670.13,202.48 -901.34,340.29 -230.56,137.81 -346.17,251.46 -346.17,340.94 0,53.56 52.25,80.34 156.76,80.34 114.95,0 278.23,-71.19 489.86,-212.27 212.26,-141.73 412.13,-324.62 600.89,-549.3zm-420.63 -1255.34c-153.48,186.14 -332.45,452.63 -537.54,800.1 -205.74,346.82 -370.98,606.78 -495.74,780.51 -7.84,9.79 -20.9,15.02 -38.54,15.02 -15.01,0 -30.7,-5.23 -45.71,-16.98 -15.67,-11.76 -22.86,-24.81 -22.86,-40.5 0,-12.4 2.61,-21.55 7.19,-26.77 97.31,-188.76 220.1,-412.8 369.68,-673.4 148.9,-259.94 278.23,-496.39 386.65,-708.01 108.43,-211.62 205.74,-435 292.61,-669.48l37.89 -107.11 -83.6 57.48c-107.13,73.81 -193.98,137.81 -260.61,191.38 -65.97,53.55 -139.77,120.17 -220.12,200.5 -80.33,80.35 -140.42,163.95 -179.6,250.82 -39.85,86.87 -59.44,177 -59.44,271.7 0,38.54 -7.84,67.93 -22.86,90.14 -15.68,21.55 -30.7,32 -45.72,32 -15.68,0 -30.05,-13.07 -44.41,-39.83 -13.72,-26.79 -20.91,-56.84 -20.91,-90.14 0,-273.02 266.48,-595.68 800.11,-967.97 104.5,-73.8 177.01,-111.03 217.49,-111.03 41.16,0 61.4,33.31 61.4,99.28 0,71.84 -63.36,252.77 -191.38,543.42l-80.33 176.35 107.12 -137.81c145.64,-199.22 306.98,-371 484.63,-516.65 177.01,-145.66 331.8,-218.15 464.39,-218.15 212.27,0 318.09,200.52 318.09,600.89 0,471.58 -178.97,926.17 -536.24,1362.47 599.58,-181.58 981.02,-316.78 1144.31,-405.6 15.68,-7.84 24.81,-11.77 26.77,-11.77 15.69,0 23.53,9.15 23.53,26.78 0,13.07 -10.46,22.86 -30.7,30.7 -178.97,96.67 -588.49,243.63 -1228.58,440.23 -222.06,252.11 -469.6,459.16 -742.62,619.83 -273.01,160.68 -487.25,241.01 -642.69,241.01 -128.02,0 -191.38,-34.62 -191.38,-103.19 0,-107.12 137.17,-242.98 411.48,-407.57 274.32,-164.6 624.41,-297.83 1050.26,-399.72 393.2,-467 589.14,-949.68 589.14,-1446.72 0,-286.08 -71.2,-429.12 -214.24,-429.12 -191.36,0 -476.79,232.52 -856.92,696.91zm2958.1 834.07c0,-15.03 10.45,-30.7 32.66,-45.73 21.55,-15.67 41.15,-22.86 58.78,-22.86 43.77,0 65.32,15.02 65.32,45.72 0,7.84 -3.27,16.99 -9.8,26.78 -5.88,10.45 -9.14,18.95 -9.14,26.79 -5.22,25.47 -22.21,69.22 -50.3,129.97 -27.43,61.39 -41.79,105.8 -41.79,133.89 0,117.57 90.79,176.35 271.7,176.35 152.84,0 409.53,-65.32 769.4,-195.29 359.89,-129.97 657.08,-252.76 891.56,-367.06 15.02,-7.84 24.16,-11.77 26.78,-11.77 13.05,0 18.93,9.15 18.93,26.78 0,13.07 -8.49,22.86 -26.77,30.7 -277.6,127.37 -592.4,251.46 -943.14,370.99 -350.75,120.18 -624.42,180.27 -821.02,180.27 -109.72,0 -185.48,-21.55 -227.94,-63.36 -41.8,-41.79 -62.71,-101.23 -62.71,-177.66 0,-35.91 5.23,-65.3 15.03,-88.17 -104.51,56.18 -224.03,105.16 -359.89,146.96 -135.2,42.46 -235.79,63.35 -301.75,63.35 -102.55,0 -153.49,-52.25 -153.49,-156.74 0,-35.93 12.42,-92.1 36.58,-168.53 24.17,-76.41 36.58,-124.74 36.58,-145.65 0,-48.33 -11.76,-72.49 -34.62,-72.49 -30.7,0 -72.5,9.15 -124.75,26.78 -52.25,17.64 -96.01,37.23 -131.94,57.47l-57.47 26.78c-9.8,5.23 -18.95,7.84 -26.78,7.84 -12.41,0 -18.95,-7.84 -18.95,-23.51 0,-12.41 9.15,-22.87 26.78,-30.04 143.05,-71.86 262.57,-107.13 359.89,-107.13 104.5,0 156.76,40.5 156.76,122.14 0,25.47 -13.07,72.51 -39.85,141.74 -27.43,68.58 -40.5,117.56 -40.5,145.65 0,71.2 15.03,107.11 45.73,107.11 71.84,0 177.66,-21.55 318.08,-63.35 139.77,-42.46 249.5,-90.13 329.18,-143.69 15.03,-50.94 22.86,-88.17 22.86,-111.03zm2250.09 -256.03c568.89,-423.9 922.25,-777.25 1060.06,-1060.07 43.76,-94.7 65.32,-159.36 65.32,-195.29 0,-20.24 -9.15,-30.7 -26.78,-30.7 -107.13,0 -269.76,131.94 -487.9,395.82 -218.16,264.51 -421.93,561.05 -610.7,890.24zm-76.41 126.05c-180.93,337.02 -271.71,583.26 -271.71,738.7 0,86.87 63.35,129.98 191.36,129.98 99.29,0 248.21,-36.58 445.45,-111.03 197.91,-73.81 370.99,-146.96 518.6,-220.12 148.27,-72.49 342.25,-171.12 581.96,-296.52 239.7,-124.75 370.98,-192.67 394.5,-202.47 15.01,-7.84 24.16,-11.77 26.77,-11.77 12.42,0 18.94,9.15 18.94,26.78 0,13.07 -9.14,22.86 -26.78,30.7 -33.31,17.63 -114.3,59.44 -242.96,124.1 -129.33,65.32 -231.22,116.26 -306.32,153.5 -75.12,36.56 -178.31,88.16 -310.26,152.82 -131.27,65.32 -244.27,116.92 -338.32,154.8 -94.71,38.53 -195.94,78.38 -304.36,118.88 -108.42,41.14 -205.75,71.19 -292.62,92.08 -86.86,20.26 -160.68,30.7 -222.06,30.7 -186.15,0 -279.56,-86.87 -279.56,-260.59 0,-168.52 93.41,-423.25 279.56,-765.5 186.14,-341.59 408.21,-655.1 665.54,-939.22 258,-284.77 470.93,-427.15 639.44,-427.15 56.17,0 84.25,33.31 84.25,99.92 0,53.56 -22.86,129.98 -69.23,229.26 -152.84,314.16 -546.68,698.21 -1182.19,1152.15zm3957.41 84.25c-35.92,15.03 -83.6,36.58 -143.69,63.36 -60.09,26.78 -175.7,73.8 -348.13,141.08 -172.43,67.93 -337.02,128.02 -493.78,180.27 -156.75,52.25 -329.18,99.27 -516.64,141.73 -187.44,41.8 -346.15,62.7 -476.14,62.7 -135.19,0 -237.09,-27.43 -304.36,-82.29 -67.93,-54.86 -101.89,-126.72 -101.89,-216.2 0,-104.5 65.97,-203.78 197.24,-298.49 131.29,-94.04 291.96,-141.73 480.73,-141.73 99.27,0 148.91,23.52 148.91,69.24 0,58.78 -56.17,88.17 -168.51,88.17 -7.19,0 -11.1,-3.92 -11.1,-11.76 0,-5.23 4.56,-13.71 13.06,-26.78 9.14,-12.4 13.72,-21.55 13.72,-26.78 0,-20.24 -10.46,-30.69 -30.7,-30.69 -137.81,0 -250.82,35.27 -338.98,105.16 -87.52,70.53 -131.94,146.31 -131.94,227.95 0,86.87 26.77,158.05 80.33,214.22 53.57,56.17 132.6,84.26 237.1,84.26 196.59,0 451.32,-48.98 763.53,-147.61 312.86,-97.97 576.06,-195.29 790.3,-292.62l322 -148.9c15.02,-7.84 24.17,-11.77 26.78,-11.77 12.42,0 18.94,9.15 18.94,26.78 0,13.07 -9.15,22.86 -26.78,30.7zm-34.62 65.32c-15.02,25.47 -22.86,50.94 -22.86,76.41 0,37.89 30.7,57.48 92.1,57.48 99.27,0 185.48,-31.35 257.99,-94.06 73.15,-62.69 109.07,-121.47 109.07,-177.64 0,-43.77 -30.04,-65.32 -91.44,-65.32 -69.23,0 -135.2,18.28 -199.21,55.52 -64.01,37.23 -112.34,86.21 -145.65,147.61zm444.14 -310.24c94.7,0 141.74,38.53 141.74,114.95 0,84.26 -52.25,169.82 -156.76,256.03 -104.5,86.87 -232.53,130.63 -382.74,130.63 -56.17,0 -98.63,-9.14 -126.72,-27.43 -4.57,30.69 -7.18,54.86 -7.18,73.15 0,79.03 32.66,143.7 99.28,193.33 66.61,49.64 169.82,74.46 310.24,74.46 392.54,0 996.05,-196.6 1809.87,-589.14 25.47,-13.06 43.77,-22.2 53.56,-26.77 15.68,-7.84 24.16,-11.77 26.77,-11.77 15.69,0 22.86,9.15 22.86,26.78 0,13.07 -9.79,22.86 -30.7,30.7 -265.17,143.04 -580.63,282.81 -947.06,419.33 -365.76,136.5 -685.8,204.42 -958.16,204.42 -186.8,0 -324.61,-28.08 -413.44,-84.25 -89.48,-56.17 -133.89,-128.67 -133.89,-218.15 0,-129.97 73.15,-256.68 220.1,-380.79 146.31,-123.43 303.72,-185.48 472.23,-185.48zm4852.88 1278.2c-237.1,180.92 -435,377.52 -593.05,589.14 -158.07,212.27 -237.75,390.58 -237.75,536.23 0,22.86 9.13,33.97 27.43,33.97 55.52,0 160.67,-112.34 313.51,-338.33 152.84,-226 316.12,-499.66 489.86,-821.01zm467 -975.8c84.26,-209.01 126.05,-354.65 126.05,-436.3 0,-38.53 10.46,-71.19 30.7,-97.97 20.24,-26.78 41.81,-39.85 65.32,-39.85 43.1,0 64.66,37.24 64.66,111.04 0,250.16 -154.14,657.06 -463.08,1220.73 204.44,-101.89 428.46,-208.35 672.08,-319.39 243.63,-111.03 483.34,-218.81 719.11,-323.31 235.79,-105.15 399.09,-177.66 487.9,-218.14 15.69,-7.84 25.49,-11.77 30.7,-11.77 13.07,0 18.95,9.15 18.95,26.78 0,13.07 -8.49,22.86 -26.78,30.7 -91.44,43.11 -262.56,118.22 -512.73,224.03 -250.15,105.82 -499.65,216.85 -749.8,332.46 -250.16,116.26 -478.76,230.56 -685.16,342.9 -196.59,357.26 -397.76,672.73 -604.81,947.06 -206.39,274.31 -352.04,411.48 -436.29,411.48 -53.56,0 -80.35,-33.31 -80.35,-99.28 0,-393.19 314.16,-807.94 941.85,-1244.25 109.72,-203.78 216.84,-421.92 321.35,-654.45 -188.77,216.84 -410.84,325.27 -666.22,325.27 -147.61,0 -258.64,-45.72 -333.11,-137.15 -73.8,-92.1 -110.38,-214.89 -110.38,-367.73 0,-160.67 38.54,-335.72 116.26,-524.47 77.73,-188.77 180.93,-365.12 308.29,-529.71 127.36,-164.59 287.38,-302.4 480.07,-413.43 192.67,-111.05 391.23,-166.56 595.01,-166.56 173.74,0 260.61,80.33 260.61,241.01 0,41.14 -14.38,97.31 -42.46,168.51 -28.09,71.2 -62.04,107.11 -103.2,107.11 -20.24,0 -37.23,-7.17 -51.59,-20.89 -13.72,-14.38 -20.91,-31.36 -20.91,-51.6 0,-7.84 13.07,-40.5 39.84,-97.98 26.78,-57.47 40.5,-107.76 40.5,-150.86 0,-79.04 -47.03,-118.88 -141.73,-118.88 -152.84,0 -300.45,33.3 -442.18,99.93 -141.08,65.97 -263.22,154.14 -365.11,263.87 -101.89,109.73 -191.38,231.21 -267.79,365.11 -77.07,134.55 -133.89,270.4 -172.43,407.56 -38.54,137.81 -57.48,268.45 -57.48,390.58 0,140.42 35.27,252.77 105.15,337.03 70.55,84.25 177.01,126.05 319.39,126.05 86.87,0 184.2,-40.49 291.31,-122.13 107.11,-81.65 206.39,-192.69 298.49,-333.11zm2854.89 -11.75c0,-15.03 10.45,-30.7 32.66,-45.73 21.55,-15.67 41.15,-22.86 58.78,-22.86 43.77,0 65.32,15.02 65.32,45.72 0,7.84 -3.27,16.99 -9.8,26.78 -5.88,10.45 -9.15,18.95 -9.15,26.79 -5.21,25.47 -22.2,69.22 -50.29,129.97 -27.43,61.39 -41.79,105.8 -41.79,133.89 0,117.57 90.79,176.35 271.7,176.35 152.84,0 409.53,-65.32 769.4,-195.29 359.89,-129.97 657.08,-252.76 891.55,-367.06 15.03,-7.84 24.16,-11.77 26.79,-11.77 13.05,0 18.93,9.15 18.93,26.78 0,13.07 -8.49,22.86 -26.77,30.7 -277.6,127.37 -592.41,251.46 -943.14,370.99 -350.75,120.18 -624.42,180.27 -821.02,180.27 -109.72,0 -185.48,-21.55 -227.94,-63.36 -41.81,-41.79 -62.71,-101.23 -62.71,-177.66 0,-35.91 5.23,-65.3 15.03,-88.17 -104.51,56.18 -224.04,105.16 -359.89,146.96 -135.2,42.46 -235.79,63.35 -301.75,63.35 -102.55,0 -153.49,-52.25 -153.49,-156.74 0,-35.93 12.42,-92.1 36.58,-168.53 24.17,-76.41 36.58,-124.74 36.58,-145.65 0,-48.33 -11.76,-72.49 -34.62,-72.49 -30.7,0 -72.5,9.15 -124.75,26.78 -52.25,17.64 -96.02,37.23 -131.94,57.47l-57.47 26.78c-9.8,5.23 -18.95,7.84 -26.78,7.84 -12.41,0 -18.95,-7.84 -18.95,-23.51 0,-12.41 9.15,-22.87 26.78,-30.04 143.04,-71.86 262.57,-107.13 359.89,-107.13 104.5,0 156.75,40.5 156.75,122.14 0,25.47 -13.06,72.51 -39.84,141.74 -27.43,68.58 -40.5,117.56 -40.5,145.65 0,71.2 15.03,107.11 45.73,107.11 71.84,0 177.65,-21.55 318.07,-63.35 139.77,-42.46 249.51,-90.13 329.19,-143.69 15.02,-50.94 22.86,-88.17 22.86,-111.03zm2361.13 589.78c-288.04,37.89 -432.39,82.95 -432.39,133.91 0,40.48 45.73,60.73 137.82,60.73 73.81,0 141.73,-14.37 202.47,-43.76 61.4,-29.39 92.1,-73.15 92.1,-131.94l0 -18.94zm1802.68 -635.51c-647.92,354.66 -1177.62,556.49 -1588.45,604.82l-114.95 15.02 0 22.86c0,76.42 -37.89,135.85 -114.3,178.31 -77.08,41.8 -163.29,62.71 -260.61,63.35 -150.22,-0.64 -225.98,-51.6 -225.98,-153.48 0,-45.73 164.59,-89.49 493.77,-129.98 -17.63,-66.62 -86.22,-171.13 -204.44,-314.17 -118.86,-142.38 -178.3,-243.62 -178.3,-302.4 0,-63.36 35.26,-121.49 105.15,-173.74 70.55,-52.26 139.77,-78.37 209.01,-78.37 56.17,0 84.26,8.48 84.26,26.78 0,9.79 -13.72,21.55 -40.5,34.61 -26.78,12.41 -59.44,30.04 -97.31,53.55 -38.54,22.87 -66.63,49.65 -84.26,80.35 -10.45,17.63 -15.68,36.58 -15.68,56.82 0,56.17 51.6,148.27 153.49,275.62 101.89,128.03 159.37,235.14 171.78,322.01l96.02 -11.76c482.01,-86.87 1013.02,-291.95 1591.71,-615.91 15.68,-7.84 24.81,-11.77 26.77,-11.77 15.69,0 23.52,9.15 23.52,26.78 0,13.07 -10.45,22.86 -30.7,30.7zm-19.59 -45.71c206.4,-94.71 400.38,-213.59 581.96,-355.97 84.25,-132.59 177,-265.84 278.89,-398.42 -99.28,7.84 -205.09,15.67 -317.43,22.86 -112.34,7.84 -197.91,13.72 -256.69,17.64 -58.13,3.92 -91.44,5.87 -99.27,5.87 -20.26,0 -30.7,-9.14 -30.7,-26.78 0,-10.44 6.52,-15.67 19.59,-15.67 344.21,-40.5 593.05,-67.28 745.89,-80.34 137.81,-171.12 268.45,-315.46 392.54,-434.34 123.45,-118.87 200.52,-177.66 231.21,-177.66 35.93,0 53.56,35.28 53.56,107.12 0,43.11 -131.28,203.78 -393.84,482.03 338.98,-22.87 694.95,-34.62 1067.24,-34.62 107.77,0 161.32,18.28 161.32,53.55 0,25.48 -15.67,38.53 -46.37,38.53 -5.22,0 -50.94,-1.96 -137.81,-5.87 -86.21,-3.92 -152.84,-5.88 -198.55,-5.88 -156.11,0 -463.09,13.06 -922.25,38.53 -15.68,17.64 -101.24,104.51 -256.68,259.95 -337.02,459.18 -504.89,816.44 -504.89,1071.82 0,101.9 79.04,152.84 237.09,152.84 135.2,0 319.39,-33.97 552.57,-103.19 233.83,-68.59 466.35,-152.19 698.87,-250.82 231.85,-97.96 415.39,-176.35 549.28,-235.13 133.91,-58.79 224.68,-100.58 273.68,-126.05 15.01,-7.84 25.47,-11.77 30.04,-11.77 13.06,0 19.59,9.15 19.59,26.78 0,13.07 -9.13,22.86 -26.77,30.7 -28.09,15.03 -85.57,42.46 -172.44,82.3 -86.86,39.19 -221.41,97.32 -403.64,174.39 -182.23,76.42 -361.19,146.96 -535.58,212.27 -175.04,64.67 -357.27,122.13 -547.33,171.78 -190.06,50.29 -345.52,75.11 -465.04,75.11 -112.34,0 -196.6,-16.33 -252.77,-48.33 -56.17,-31.35 -84.26,-92.1 -84.26,-181.58 0,-201.82 89.49,-459.16 267.79,-772.67 -155.45,111.69 -318.74,207.7 -489.85,286.73 -9.8,5.23 -18.95,7.84 -26.79,7.84 -12.4,0 -18.94,-7.84 -18.94,-23.51 0,-12.41 9.15,-22.87 26.78,-30.04zm3020.15 271.7c-84.25,-79.03 -126.7,-193.98 -126.7,-344.86 0,0 0,-2.62 0,-7.18 -28.1,35.26 -71.2,73.8 -129.98,114.3 -97.33,193.98 -145.66,338.33 -145.66,432.37 0,89.5 25.47,134.56 76.42,134.56 102.55,0 210.97,-109.73 325.92,-329.19zm64.66 -141.73c45.72,-125.4 69.23,-214.23 69.23,-267.8 0,-58.77 -11.75,-88.16 -34.61,-88.16 -20.25,0 -37.88,13.06 -51.6,39.83 -14.37,26.78 -20.9,59.44 -20.9,97.98 0,92.1 12.41,164.59 37.88,218.15zm-367.06 539.49c-137.82,0 -207.05,-86.87 -207.05,-259.95 0,-150.87 46.37,-282.16 137.81,-394.5 92.1,-112.34 169.82,-168.51 233.83,-168.51 4.57,0 12.4,2.62 22.86,7.84 12.41,-41.15 33.96,-74.46 64.66,-101.24 30.7,-26.78 67.92,-40.49 111.03,-40.49 35.93,0 65.98,16.98 90.14,49.64 24.16,33.31 36.58,81.64 36.58,145.65 0,89.48 -25.47,191.37 -77.08,306.32 86.87,114.96 232.52,171.78 436.3,171.78 148.27,0 325.27,-29.39 532.31,-89.47 206.4,-60.09 364.47,-114.3 474.19,-162.64 109.73,-48.99 207.05,-93.41 291.31,-133.89 15.01,-7.84 25.47,-11.77 30.7,-11.77 12.4,0 18.93,9.15 18.93,26.78 0,13.07 -9.13,22.86 -26.77,30.7 -135.2,68.59 -344.21,148.92 -627.68,239.06 -283.46,90.79 -538.19,135.85 -765.48,135.85 -175.7,0 -314.83,-32.01 -417.37,-95.35 -124.75,229.24 -244.92,344.19 -359.22,344.19z"/>
   <path class="fil1" d="M1151.3 7845.09l0 -1095.8 437.62 0c76.89,0 135.71,3.57 176.45,10.45 56.93,8.93 104.69,26.02 143.28,51.02 38.57,25.25 69.59,60.45 93.07,105.6 23.47,45.15 35.07,94.88 35.07,149.22 0,92.85 -31.29,171.67 -94.16,235.94 -62.6,64.54 -176.18,96.68 -340.22,96.68l-297.31 0 0 446.89 -153.8 0zm153.8 -575.46l299.47 0c99.29,0 169.43,-17.33 211.26,-52.29 41.54,-34.94 62.32,-83.91 62.32,-147.43 0,-45.65 -12.15,-84.93 -36.69,-117.58 -24.56,-32.66 -56.92,-54.34 -96.86,-64.8 -25.91,-6.37 -73.65,-9.69 -142.99,-9.69l-296.51 0 0 391.79zm1128.57 575.46l444.64 -1095.8 168.62 0 471.89 1095.8 -174.57 0 -134.09 -332.11 -488.07 0 -125.72 332.11 -162.7 0zm333.48 -449.95l394.99 0 -120.86 -303.8c-36.44,-92.34 -63.95,-168.6 -83.12,-228.8 -15.91,71.42 -37.22,141.57 -63.94,210.95l-127.07 321.65zm1272.93 97.94l144.07 -12.24c6.75,55.09 22.68,100.25 47.76,135.7 25.1,35.2 63.95,63.77 116.56,85.71 52.6,21.68 111.97,32.65 177.8,32.65 58.55,0 110.08,-8.17 154.87,-24.74 44.79,-16.58 77.97,-39.28 99.82,-68.11 21.85,-28.83 32.92,-60.2 32.92,-93.87 0,-34.17 -10.52,-64.02 -31.57,-89.78 -21.04,-25.51 -55.86,-46.94 -104.42,-64.53 -31.02,-11.23 -99.82,-29.09 -206.4,-53.32 -106.57,-24.23 -181.04,-46.93 -223.65,-68.36 -55.31,-27.55 -96.32,-61.72 -123.3,-102.28 -27.27,-40.56 -40.75,-86.22 -40.75,-136.46 0,-55.61 16.74,-107.4 49.92,-155.35 33.18,-48.21 81.48,-84.69 145.42,-109.68 63.66,-25 134.63,-37.5 212.61,-37.5 85.79,0 161.61,13.01 227.16,39.28 65.57,26.02 116.02,64.53 151.37,115.55 35.34,50.75 54.23,108.41 56.91,172.69l-147.3 10.71c-7.82,-69.12 -34.53,-121.41 -80.12,-156.62 -45.6,-35.45 -113.05,-53.05 -202.08,-53.05 -92.81,0 -160.54,16.06 -202.91,48.21 -42.35,32.13 -63.67,70.91 -63.67,116.31 0,39.28 15.11,71.68 45.06,97.19 29.68,25.25 106.57,51.51 231.23,78.05 124.64,26.78 210.16,49.99 256.56,69.89 67.19,29.33 117.11,66.32 149.22,111.47 32.1,44.89 48.02,96.67 48.02,155.33 0,58.42 -17.54,113.01 -52.87,164.53 -35.36,51.53 -85.8,91.58 -151.92,120.15 -66.1,28.56 -140.28,42.85 -223.12,42.85 -104.68,0 -192.37,-14.54 -263.06,-43.37 -70.94,-28.82 -126.25,-72.18 -166.46,-130.35 -40.47,-57.89 -61.51,-123.44 -63.68,-196.66zm1874.32 352.01l0 -967.25 -382.03 0 0 -128.55 917.87 0 0 128.55 -382.05 0 0 967.25 -153.79 0zm1147.21 0l0 -1095.8 836.94 0 0 128.55 -683.14 0 0 336.71 639.43 0 0 128.55 -639.43 0 0 373.43 710.65 0 0 128.56 -864.45 0zm1519.82 0l0 -1095.8 153.78 0 0 967.24 569.82 0 0 128.56 -723.6 0zm1359.8 0l0 -1095.8 836.94 0 0 128.55 -683.14 0 0 336.71 639.42 0 0 128.55 -639.42 0 0 373.43 710.64 0 0 128.56 -864.44 0zm1529.52 0l0 -1095.8 513.7 0c103.33,0 181.86,9.94 235.54,29.59 53.69,19.64 96.59,54.33 128.69,104.06 32.12,49.75 48.04,104.84 48.04,165.04 0,77.8 -26.71,143.36 -79.86,196.66 -53.15,53.31 -135.18,86.98 -246.33,101.52 40.74,18.37 71.49,36.74 92.53,54.58 44.79,38.78 87.16,87.5 126.82,145.91l200.46 298.44 -191.56 0 -153.24 -228.04c-44.53,-66.07 -81.49,-116.31 -110.36,-151.26 -29.14,-34.95 -55.04,-59.18 -77.97,-73.21 -22.66,-13.76 -46.14,-23.46 -69.88,-29.08 -17.26,-3.3 -45.59,-5.1 -85.26,-5.1l-177.53 0 0 486.69 -153.79 0zm153.79 -612.18l329.16 0c70.14,0 124.65,-6.89 164.04,-20.66 39.38,-13.53 69.33,-35.45 89.57,-65.81 20.52,-30.11 30.75,-62.75 30.75,-98.21 0,-51.77 -19.69,-94.63 -59.34,-128.05 -39.67,-33.41 -102.25,-49.99 -187.78,-49.99l-366.4 0 0 362.72zm1487.69 612.18l0 -1095.8 153.8 0 0 1095.8 -153.8 0zm746.55 0l444.64 -1095.8 168.63 0 471.89 1095.8 -174.58 0 -134.08 -332.11 -488.07 0 -125.73 332.11 -162.7 0zm333.48 -449.95l395 0 -120.87 -303.8c-36.43,-92.34 -63.95,-168.6 -83.12,-228.8 -15.9,71.42 -37.21,141.57 -63.93,210.95l-127.08 321.65zm1467.18 449.95l444.64 -1095.8 168.63 0 471.89 1095.8 -174.58 0 -134.08 -332.11 -488.07 0 -125.73 332.11 -162.7 0zm333.48 -449.95l394.99 0 -120.86 -303.8c-36.44,-92.34 -63.95,-168.6 -83.12,-228.8 -15.9,71.42 -37.22,141.57 -63.93,210.95l-127.08 321.65zm1326.35 449.95l0 -1095.8 513.71 0c103.33,0 181.84,9.94 235.54,29.59 53.69,19.64 96.59,54.33 128.69,104.06 32.12,49.75 48.03,104.84 48.03,165.04 0,77.8 -26.72,143.36 -79.86,196.66 -53.16,53.31 -135.17,86.98 -246.34,101.52 40.76,18.37 71.51,36.74 92.55,54.58 44.79,38.78 87.14,87.5 126.81,145.91l200.46 298.44 -191.56 0 -153.23 -228.04c-44.53,-66.07 -81.5,-116.31 -110.36,-151.26 -29.15,-34.95 -55.05,-59.18 -77.97,-73.21 -22.67,-13.76 -46.14,-23.46 -69.89,-29.08 -17.26,-3.3 -45.59,-5.1 -85.26,-5.1l-177.52 0 0 486.69 -153.8 0zm153.8 -612.18l329.16 0c70.13,0 124.65,-6.89 164.03,-20.66 39.39,-13.53 69.34,-35.45 89.58,-65.81 20.52,-30.11 30.75,-62.75 30.75,-98.21 0,-51.77 -19.69,-94.63 -59.34,-128.05 -39.67,-33.41 -102.27,-49.99 -187.79,-49.99l-366.39 0 0 362.72zm1727.28 612.18l0 -967.25 -382.04 0 0 -128.55 917.86 0 0 128.55 -382.05 0 0 967.25 -153.77 0zm1147.21 0l0 -1095.8 836.93 0 0 128.55 -683.15 0 0 336.71 639.43 0 0 128.55 -639.43 0 0 373.43 710.66 0 0 128.56 -864.44 0zm1476.09 -352.01l144.08 -12.24c6.75,55.09 22.66,100.25 47.76,135.7 25.09,35.2 63.94,63.77 116.55,85.71 52.61,21.68 111.96,32.65 177.79,32.65 58.55,0 110.09,-8.17 154.88,-24.74 44.79,-16.58 77.97,-39.28 99.81,-68.11 21.87,-28.83 32.92,-60.2 32.92,-93.87 0,-34.17 -10.52,-64.02 -31.57,-89.78 -21.04,-25.51 -55.84,-46.94 -104.4,-64.53 -31.03,-11.23 -99.83,-29.09 -206.4,-53.32 -106.58,-24.23 -181.04,-46.93 -223.66,-68.36 -55.31,-27.55 -96.33,-61.72 -123.31,-102.28 -27.26,-40.56 -40.73,-86.22 -40.73,-136.46 0,-55.61 16.72,-107.4 49.9,-155.35 33.2,-48.21 81.49,-84.69 145.43,-109.68 63.67,-25 134.63,-37.5 212.6,-37.5 85.81,0 161.61,13.01 227.18,39.28 65.56,26.02 116,64.53 151.36,115.55 35.34,50.75 54.22,108.41 56.92,172.69l-147.31 10.71c-7.82,-69.12 -34.53,-121.41 -80.13,-156.62 -45.59,-35.45 -113.04,-53.05 -202.08,-53.05 -92.81,0 -160.54,16.06 -202.89,48.21 -42.36,32.13 -63.69,70.91 -63.69,116.31 0,39.28 15.11,71.68 45.07,97.19 29.67,25.25 106.57,51.51 231.23,78.05 124.65,26.78 210.17,49.99 256.57,69.89 67.19,29.33 117.09,66.32 149.21,111.47 32.1,44.89 48.03,96.67 48.03,155.33 0,58.42 -17.55,113.01 -52.89,164.53 -35.34,51.53 -85.8,91.58 -151.9,120.15 -66.11,28.56 -140.3,42.85 -223.13,42.85 -104.69,0 -192.37,-14.54 -263.06,-43.37 -70.95,-28.82 -126.26,-72.18 -166.47,-130.35 -40.47,-57.89 -61.51,-123.44 -63.67,-196.66zm1452.62 352.01l444.63 -1095.8 168.64 0 471.89 1095.8 -174.58 0 -134.08 -332.11 -488.07 0 -125.73 332.11 -162.7 0zm333.48 -449.95l395 0 -120.88 -303.8c-36.42,-92.34 -63.94,-168.6 -83.1,-228.8 -15.91,71.42 -37.22,141.57 -63.94,210.95l-127.08 321.65zm1321.49 449.95l0 -1095.8 157.57 0 608.14 860.11 0 -860.11 147.32 0 0 1095.8 -157.58 0 -608.13 -860.11 0 860.11 -147.32 0zm1493.37 0l444.63 -1095.8 168.63 0 471.88 1095.8 -174.56 0 -134.09 -332.11 -488.06 0 -125.74 332.11 -162.69 0zm333.48 -449.95l394.99 0 -120.87 -303.8c-36.44,-92.34 -63.94,-168.6 -83.11,-228.8 -15.9,71.42 -37.23,141.57 -63.95,210.95l-127.06 321.65zm1316.64 449.95l0 -1095.8 153.78 0 0 967.24 569.82 0 0 128.56 -723.6 0z"/>
  </g>
 </g>
</svg>
