<?xml version="1.0" encoding="UTF-8"?>
<!DOCTYPE svg PUBLIC "-//W3C//DTD SVG 1.1//EN" "http://www.w3.org/Graphics/SVG/1.1/DTD/svg11.dtd">
<!-- Creator: CorelDRAW (Versión de evaluación) -->
<svg xmlns="http://www.w3.org/2000/svg" xml:space="preserve" width="169.333mm" height="169.333mm" version="1.1" shape-rendering="geometricPrecision" text-rendering="geometricPrecision" image-rendering="optimizeQuality" fill-rule="evenodd" clip-rule="evenodd"
viewBox="0 0 16933.32 16933.32"
 xmlns:xlink="http://www.w3.org/1999/xlink"
 xmlns:xodm="http://www.corel.com/coreldraw/odm/2003">
 <g id="Capa_x0020_1">
  <metadata id="CorelCorpID_0Corel-Layer"/>
  <path fill="#FAEC46" d="M9671.2 12357.44c-135.61,525.98 -1170.34,353.62 -1061.98,-206.61 93.52,-483.54 1216.48,-392.64 1061.98,206.61zm-3680.96 -105.84c-36.8,-570.34 1107.48,-607.24 1070.23,-42.89 -34.7,525.72 -1033.91,605.72 -1070.23,42.89zm1796.27 -350.85c-97.52,88.86 -57.83,174.52 -141.84,202.25 -272.02,89.77 -90.08,-574 306.73,-425.57 100.76,37.69 345.42,291.88 219.41,416.68 -160.99,159.45 -160.99,-218 -310.31,-225.21 -100.35,-4.85 -56.76,16.15 -73.99,31.85zm4498.39 -286.98c275.27,-81.81 307.62,259.38 35.45,198.61 -45.9,-66.48 -60.13,-97.27 -35.45,-198.61zm-9084.33 149.87c-76.35,-90.45 -87.34,-99.75 -45.02,-218.35 49.76,-18.4 95.92,-26.83 164.34,-18.5 50.33,121.54 48.53,229.67 -119.32,236.85zm5664.07 -252.94c-68.37,-388.79 518.19,-476.82 571.67,-105.4 56.75,394.22 -508.81,462.95 -571.67,105.4zm-2602.84 0c-112.31,-396.39 488.18,-529.77 563.32,-144.43 73.19,375.41 -467.9,481.23 -563.32,144.43zm5629.37 -148.18c-65.36,-202.1 184.57,-179.42 215.8,-54.81 41.79,166.75 -174.44,182.71 -215.8,54.81zm-3602.72 -211.56c90.6,-32.77 73.83,44.04 179.03,-50.58 26.84,-24.15 33.78,-29.89 51.96,-43.18 44.22,98.88 145.61,168.41 103.99,327.86 -59.14,128.83 -226.45,67.33 -322.83,26.39l-56.97 -27.76 34.18 -33.11c62.98,-83.86 26.41,-115.83 20.39,-141.96 -1.37,-5.96 -6.43,-21.74 -7.4,-26.57l-2.35 -31.09zm-4649.97 -133.03c37.41,91.5 22.86,126.01 -8.03,194.23 -111.83,19.92 -182.35,-2.92 -192.54,-106.76 -14.62,-148.85 112.06,-116.78 200.57,-87.47zm5507.59 -277.2c87.13,-57.35 16.18,-44.52 115.63,-56.71l-33.16 97.76c-102.91,33.83 -184.81,-26.1 -238.68,102.28l62.43 -27.58c43.33,-19.93 -8.28,-21.35 56.15,-21.19 -19.54,141.41 -180.48,179.14 -223.08,-1.98l47.32 -14.75c3.53,-0.9 10.7,-2.32 14.44,-3.24 40.95,-10.09 -10.08,30.22 49.91,-12.47 -140.21,3.56 -67.32,-12.09 -68.34,-49.15l111.18 -20.69c-10.6,-165.47 66.9,-162.92 193.74,-122.16 -19.57,33.11 -27.21,41.84 -44.01,66.52l-32.6 47.43c-2.84,4.14 -7.89,10.25 -10.93,15.93zm94.47 -358.82c148.92,-1.67 49.98,-3.02 154.37,-51.21 35.53,80.3 220.13,250.93 -2.97,129.51 71.97,120.72 -19.28,91.54 -17.17,197.68 0.59,30.15 47.42,-35.67 -8.59,72.55 -89.16,-21.19 -110.01,-75.16 -204.43,-193.49 139.13,-148.45 13.38,-64.62 190.17,-126.99 3.99,-1.4 11.61,-3.23 16.25,-6.83l-127.63 -21.22zm-4944.36 1154.05c-94.48,-37.05 -82.44,-51.9 -164.06,-98.5 -9.62,90.5 1.11,53.8 -56.32,117.19 86.22,-37.31 -11.3,-19.24 80.78,-42.76 1.75,-0.45 7.67,-1.84 11.45,-1.19 -13.27,119.91 -26.08,104.5 -145.59,115.14 -90.23,8.04 29.7,-46.45 -47.34,20.05l-68.03 72.66c118.46,-64.89 8.01,-62.54 121.43,-57.93 -20.04,108.18 -55.82,125.08 -167.57,111.65 14.58,61.49 36.77,109.93 -9.77,151.93 -2.6,33.07 18.28,48.91 -44.16,83 -58.93,32.18 -75.4,15.04 -115.02,-7.55 -20.08,-16.97 -11.71,11.38 -42.11,-44.53 -12.44,-22.87 -20.12,-53.34 -20.82,-85.21 -1.95,-88.31 24.54,-105.24 73.47,-139.04l115.4 -117.75c66.78,-62.62 51.41,-57.03 145.47,-40.4 -30.36,-143.73 2.53,-77.67 29.7,-146.69l29.36 0.83c4.23,0.03 24.2,0.87 29.88,0.63 61.64,-2.62 -18.95,39.39 57.59,-8.02 -17.05,-39.38 -19.45,-48.82 -35.79,-90.27 -306.73,-168.6 -189.98,-1173.69 -245.74,-1414.2 -42.41,-182.92 -78,-319.17 -267.79,-309.72 -73.1,111.33 -94.54,447.73 -195.09,646.52 -89.48,176.93 -241.27,320.34 -500.37,343.81 -7.5,440.05 -55.24,751.33 147.24,1130.33l180.09 253.85 54.65 -44.23c41.19,72.71 15.67,96.68 32.43,53.97l76.28 -36.33c20.04,-17.6 38.42,-53.91 49.12,-74.47l116.31 157.76c17.57,73.06 -7.57,-1.54 2.06,32.18 9.8,34.32 43.23,9.97 36.15,148.77l-125.08 47.51c24.34,16.83 7.78,6.61 24.36,39.8 64.94,17.14 20.09,-0.9 75.06,42.18 888.56,696.34 2049.75,844.77 3165.1,900.34 907.4,45.2 2122.76,24.91 3043.07,-70.14 205.12,-21.19 789.01,-144.45 920.12,-134.35 83.94,-72.1 406.75,-109.51 510.7,-161.98l-13.44 -112.47c77.79,-65.91 82.71,-74.32 175.99,-37.41 -0.54,-0.73 -26.21,-35.2 -26.49,-35.87 -32.2,-78.68 63.68,-133.85 78.81,-139.33 147.49,-53.45 159.51,104.41 170,135.23 -179.11,-2.94 -38.88,-1.51 -92.26,-42.29 -43.62,-33.32 -2.13,-43.99 -68.79,-17.51l16.93 60.81c31.63,16.97 74.58,-5.99 111.71,4.28l0.21 39.84c403.5,-141.99 778.48,-491.61 977.89,-755.82 346.66,-459.3 324.77,-756.42 315.45,-1423.12 -363.64,112.98 -579.9,24.71 -734.73,-197.67 -179.36,-257.59 -139.23,-502.16 -254.31,-780.99 -254.3,-18.86 -346.99,266.56 -298.99,527.28 41.89,227.58 149.65,408.06 177.29,671.02 54.02,513.92 -212.46,992.95 -746.41,913.42 -1017.89,-151.6 -321.22,-1508.26 -1002.1,-1503.68 -234.03,1.58 -532.09,36.94 -772.04,65.7 -1028.26,123.26 -2116.02,134.45 -3126.61,-52.11 -233.07,-43.02 -521.13,-38.71 -704.24,74.09 -214.61,132.2 -231.36,303.25 -215.47,622.62 22.46,451.51 -87.81,766.94 -538.67,743.02 -62.85,-3.34 -125.42,-13.98 -181.71,-31.94 -46.04,-14.7 -97.86,-33.9 -124.64,-71.94z"/>
  <path fill="#971D04" d="M7270.5 9522.72c1427.56,4.75 3340.86,-43.87 4666.14,-565.36 210.11,-82.67 398.71,-181.46 577.94,-288.96 872.49,-523.27 409.94,-607.57 305.34,-542.31 -141.68,88.4 -222.69,253.2 -796.08,517.39 -1667.16,768.13 -5437.55,754.04 -7233.32,392.7 -625.75,-125.92 -1070.17,-285.5 -1601.72,-556.34 -117.77,-60.01 -370.08,-272.14 -453.78,-127.15 -98.76,171.07 226.32,295.46 334.85,352.18 494.15,258.24 1017.22,442.24 1577.4,559.54 846.12,177.19 1724.29,255.32 2623.23,258.31z"/>
  <path fill="#FDFDFA" d="M7842.05 13979.09c-740.33,1.98 -1506.8,-53.6 -2214.75,-172.14 -94.89,-15.89 -429.9,-102.09 -494.75,-97.56 -81.18,5.68 -144.06,85.05 -77.56,162.82 42.22,49.38 157.76,58.32 226.62,73.15 1557.85,335.64 3959.72,311.79 5439.15,-17.63 662.82,-147.59 1213.44,-440.32 1573.66,-801.47 616.99,-618.59 247.42,-631.66 144.56,-490.25 -175.26,240.92 -341.49,424.84 -588.94,596.51 -955.13,662.59 -2612.77,742.85 -3986.82,746.51l-21.17 0.06z"/>
  <path fill="#F6C46E" d="M6825.86 8916.33l-326.25 -19.46c-334.42,-17.61 -675.65,-54.47 -1002.56,-101.61 -219.69,-31.67 -774.67,-165.49 -921.84,-108.95 -77.17,260.65 131.17,238.38 589.49,316.57 806.96,137.67 1753.29,189.79 2571.51,188.34 727.4,-1.3 2200.96,-112.76 2944.74,-282.1 148.19,-33.74 205.61,-160.63 81.46,-238.78 -80.88,-42.24 -769.42,96.1 -923.18,118.91 -591.41,87.74 -2510.34,226.49 -3013.37,127.08z"/>
  <path fill="#FE999A" d="M5508.04 8200.48c-285.27,20.45 -254.16,-370.55 -101.7,-461.51 119.24,-71.14 207.71,-2.62 175.07,134.11 -27.04,113.3 -44.69,209.2 -73.37,327.4zm870.06 -629.23c375.68,170.9 604.71,651.27 257.35,660.3 -63.17,-91.12 -58.62,-248.97 -111.4,-355.14 -54.8,-110.23 -113.01,-171.21 -145.95,-305.16zm-589.39 -484.02c-55.33,103.69 -56.58,158.65 -129.74,250.86 -57.16,72.05 -131.9,138.96 -193.78,186.92 -91.61,71 -309.98,270.39 -331.17,432.61 -62.59,479.26 693.9,461.73 1099.34,453.4 219.19,-4.5 482.62,-78.3 582.94,-191.32 138.85,-156.43 65.88,-428.89 -46.37,-569.26 -122.54,-153.23 -462.08,-247.35 -731.87,-411.14 -88.36,-53.65 -163.43,-122.96 -249.35,-152.07z"/>
  <path fill="#FE999A" d="M3203.05 7062.22c-307.04,32.45 -231.26,-407.21 7.04,-565.62 199.11,-132.35 182.68,51.05 120.32,185.27 -52.8,113.64 -79.95,263.66 -127.36,380.35zm1030.92 99.85c-97.51,-19.51 -214.35,34.92 -165.2,-156.2 30.09,-117.01 126.86,-108.92 247.49,-130.96 -81.97,-249.39 -211.17,-441.33 -228.59,-511.62 306.94,82.91 673.85,719.33 240.52,655.6 43.65,57.32 -69.45,46.33 84.46,46.33l-14.09 50.6c324.06,-147.99 280.22,-574.13 -28.7,-769.39 -122.57,-77.49 -268.3,-137.58 -398.62,-215.58 -264.17,-158.14 -210.78,-185.38 -320.55,-289.05l-451.26 433.54c-512.02,468.11 -436.94,874.54 192.88,920.27 167.76,12.18 735.97,59.92 841.66,-33.54zm0 0c87.92,2.59 87.21,-8.38 164.59,-46.25l14.09 -50.6c-153.91,0 -40.81,10.99 -84.46,-46.33l-11.93 -143.98c-120.63,22.04 -217.4,13.95 -247.49,130.96 -49.15,191.12 67.69,136.69 165.2,156.2z"/>
  <path fill="#111111" d="M5788.71 7087.23c85.92,29.11 160.99,98.42 249.35,152.07 269.79,163.79 609.33,257.91 731.87,411.14 112.25,140.37 185.22,412.83 46.37,569.26 -100.32,113.02 -363.75,186.82 -582.94,191.32 -405.44,8.33 -1161.93,25.86 -1099.34,-453.4 21.19,-162.22 239.56,-361.61 331.17,-432.61 61.88,-47.96 136.62,-114.87 193.78,-186.92 73.16,-92.21 74.41,-147.17 129.74,-250.86zm381.03 1528.21c309,1.76 617.4,-77.61 778.83,-242.23 173.85,-177.29 197.31,-499.23 53.49,-743.19 -140.52,-238.37 -303.84,-292.03 -576.35,-418.64 -765.33,-355.57 -781.01,-711.73 -837.69,-214.6 -40.38,354.15 -526.16,434.11 -644.29,874.97 -83.12,310.21 125.22,533.48 317.16,631.66 215.76,110.36 632.42,110.45 908.85,112.03z"/>
  <path fill="#FE999A" d="M6510.49 6029.56c-414.94,16.71 -142.65,-634.6 207.7,-682.43 -8.58,134.42 -62.78,229.58 -106.1,340.38 -39.09,99.98 -72.35,239.03 -101.6,342.05zm814.31 139.1l5.28 -1047.13c-340.33,-202.64 -314.82,-264.9 -426.4,-330.2 -120.52,293.7 -662.46,573.59 -735.54,900.92 -113.49,508.32 760.26,512.49 1156.66,476.41z"/>
  <path fill="#FEFEFE" d="M7485.35 4432.26c38.52,22.4 59.75,38.61 106.97,71.69l-4.7 269.71 -105.88 -35.91 3.06 393.62 98.03 71.16 -8.29 268.47 -89.6 -25.31 0.93 401.08c168.93,93.66 442.52,303.69 600.8,353.97l-1.34 -411.42 -355.43 -203.65 7.6 -289.58 346.71 195.69 1.72 -412.04 -326.44 -194.86 8.37 -265.8c103.61,37.66 207.46,137.96 318.02,174.93l-1.03 -396.54c-129.27,-84.59 -397.29,-274.76 -521.64,-316.49 -96.44,108.38 -81.2,179.85 -77.86,351.28z"/>
  <path fill="#E42C2C" d="M9135.5 12418.25c-4.17,-107.03 57.23,-156.69 108.03,-225.62 67.02,-90.94 72.13,-164.83 184.8,-151.88 4.04,110.37 -58.54,151.42 -112.07,223.9 -115.67,156.63 -72.03,167.73 -180.76,153.6zm-317.51 -14.63c-10.92,-14.43 -45.71,32.31 -19.7,-80.31 0.12,-0.5 29.33,-52.66 32.06,-56.66 106.36,-156.58 159.74,-259.02 252.79,-239.95 8.54,80.91 -197.93,393.99 -265.15,376.92zm853.21 -46.18c154.5,-599.25 -968.46,-690.15 -1061.98,-206.61 -108.36,560.23 926.37,732.59 1061.98,206.61z"/>
  <path fill="#E42C2C" d="M6565.47 12385.56c-15.56,-36.62 -15.86,43.2 -11.48,-47.7l40.54 -84.01c82.29,-114.92 153.74,-266.01 238.71,-241.99 15.12,35.82 15.95,-42.55 11.26,47.34l-40.43 86.12c-91.78,127.61 -160.61,261.73 -238.6,240.24zm-349.11 -11.27c-18.19,-109.15 212.45,-438.75 274.08,-379.52 55.96,53.77 -70.52,187.55 -99.19,224.46 -65.11,83.82 -67.08,161.76 -174.89,155.06zm-226.12 -122.69c36.32,562.83 1035.53,482.83 1070.23,-42.89 37.25,-564.35 -1107.03,-527.45 -1070.23,42.89z"/>
  <path fill="#F6C46E" d="M2513.65 7464.25c-337.98,133.97 334.27,706.9 520.62,831.52 128.93,86.22 904.42,503.41 1069.26,430.07 91.01,-40.5 95.58,-174.4 -2.48,-226.14 -115.23,-60.79 -409.54,-111.59 -802.33,-341.73 -721.37,-422.66 -583.53,-773.6 -785.07,-693.72z"/>
  <path fill="#971D04" d="M7170.92 7168.45c-381.38,173.51 601.4,825.82 1189.52,288.28 150.31,-137.38 50.22,-301.07 -106.32,-238.29 -52.97,21.25 -135.95,143.28 -331.41,182.09 -469.54,93.22 -608.58,-297.24 -751.79,-232.08z"/>
  <path fill="#FDFDFA" d="M3072.77 12648.82c-213.98,182.47 1128.55,1066.22 1281.4,943.2 200.89,-161.68 -476.94,-304.49 -925.08,-737.67 -154.4,-149.24 -257.24,-290.02 -356.32,-205.53z"/>
  <path fill="#111111" d="M6261.8 11510.7c95.42,336.8 636.51,230.98 563.32,-144.43 -75.14,-385.34 -675.63,-251.96 -563.32,144.43z"/>
  <path fill="#111111" d="M8864.64 11510.7c62.86,357.55 628.42,288.82 571.67,-105.4 -53.48,-371.42 -640.04,-283.39 -571.67,105.4z"/>
  <path fill="#FEFEFE" d="M7481.07 6556.62c132.74,78.07 475.69,316.57 602.17,356.26l-2.22 -412.12c-173.64,-68.27 -458.51,-312.07 -599.25,-341.62l-0.7 397.48z"/>
  <path fill="#FDFDFA" d="M4772.41 6239.86c-29.76,187.1 65.16,205.34 236.82,180.31 87.36,-35.52 304.86,-104.84 420.87,-137.29 158.95,-44.46 413.41,-12.71 346.51,-219.41 -103.28,-169.29 -888.38,149.89 -1004.2,176.39z"/>
  <path fill="#FDFDFA" d="M2889.48 10219.79c88.81,-198.48 -89.6,-172.62 -108.6,-423.55 -13.02,-171.99 79.08,-338.01 25.39,-488.07 -430.91,-134.93 -314.44,1050.83 83.21,911.62z"/>
  <path fill="#FDFDFA" d="M4276.58 10790.98c69.16,431.95 377.71,602.94 416.77,399.58 18.02,-93.79 -60.29,-131.81 -106.51,-213.98 -103.36,-183.74 -57.19,-493.04 -104.64,-551.94 -42.81,-53.13 -284.64,-127.2 -205.62,366.34z"/>
  <path fill="#F9A82A" d="M7420.51 3509.08c4.38,-35.37 5.97,-80.39 16.44,-113.47 7.35,-23.21 7.18,-22.59 20.31,-43.5 24.6,-39.2 8.33,-14.05 32.61,-38.43 18.93,-84.55 78.04,-275.92 116.45,-336.35 26.81,-42.18 95.3,-103.09 151.55,-42.85 41.43,44.37 -4.65,122.31 -16.47,180.3 98.6,48.59 161.19,-19.59 247.49,101.84 118.75,66.84 85.3,121.47 90.99,278.5l23.88 -284.53c-13.44,-18.64 -11.61,-6.52 -23.66,-42.82 -4.97,-14.95 -8.88,-37.37 -12.39,-53.29 -8.26,-37.46 -15.74,-74.49 -24.58,-112.07l-154.56 -432.13c-117.79,55.96 -260.89,273.39 -335.67,395.36 -72.77,118.69 -217.27,381.39 -132.39,543.44z"/>
  <path fill="#111211" d="M7786.51 11900.75c17.23,-15.7 -26.36,-36.7 73.99,-31.85 149.32,7.21 149.32,384.66 310.31,225.21 126.01,-124.8 -118.65,-378.99 -219.41,-416.68 -396.81,-148.43 -578.75,515.34 -306.73,425.57 84.01,-27.73 44.32,-113.39 141.84,-202.25z"/>
  <path fill="#EC3264" d="M7480.63 6918.34c85.29,16.79 151.19,75.65 220.51,118.25 64.22,39.47 177.81,79.77 198.9,150.27 104.88,-52.46 167.46,-106.27 183.2,-273.98 -126.48,-39.69 -469.43,-278.19 -602.17,-356.26l-0.44 361.72z"/>
  <path fill="#FDFDFA" d="M12420.93 9497.55c-246.42,-16.25 -201.5,169.86 -166.88,349.59 129.41,671.94 322.65,388.19 327.55,329.21 3.76,-45.34 -43.49,-148.52 -60.43,-214.8 -43.19,-168.99 -22.32,-341.78 -100.24,-464z"/>
  <path fill="#EC3264" d="M7481.77 6159.14c140.74,29.55 425.61,273.35 599.25,341.62l5.65 -300.02c-158.28,-50.28 -431.87,-260.31 -600.8,-353.97l-4.1 312.37z"/>
  <path fill="#FDFDFA" d="M10991.93 11214.34c0.52,-105.48 -74.43,-219.45 -81.36,-402.07 -4.91,-129.5 -14.77,-340.36 -179.54,-245.98 -177.81,101.84 4.08,623.64 91.71,731.56 101.49,3.04 127.38,-27.5 169.19,-83.51z"/>
  <path fill="#FDFDFA" d="M6510.49 6029.56c29.25,-103.02 62.51,-242.07 101.6,-342.05 43.32,-110.8 97.52,-205.96 106.1,-340.38 -350.35,47.83 -622.64,699.14 -207.7,682.43z"/>
  <path fill="#FAEB49" d="M7420.51 3509.08c10.99,169.72 196.59,335.58 336.7,384.09 176.89,61.25 300.2,-216.32 326.64,-405.21 -110.66,37.58 -64.65,7.03 -157.12,-77.97l-92.94 134.65c114.07,-46.2 26.17,-20.49 77.45,-49.97 38.28,-22 -32.7,-15.83 50.1,-14.28l-55.68 92.24c-105.83,16.57 -91.41,-14.46 -170.81,61.55 -3.98,3.81 -8.3,9.13 -11.82,12.68l86.5 -14.45c-20.33,59.4 -38.68,80.7 -94.49,116.17 -46.49,-10.91 -88.04,-22.26 -116.61,-88.44 -0.81,-1.88 -2.49,-7.87 -3.21,-9.77 -54.54,-144.18 -9.98,-6.6 -70.59,-76.01 -58.34,-92.65 -41.58,-143.65 -34.76,-260.68 -24.28,24.38 -8.01,-0.77 -32.61,38.43 -13.13,20.91 -12.96,20.29 -20.31,43.5 -10.47,33.08 -12.06,78.1 -16.44,113.47z"/>
  <path fill="#FDFDFA" d="M3203.05 7062.22c47.41,-116.69 74.56,-266.71 127.36,-380.35 62.36,-134.22 78.79,-317.62 -120.32,-185.27 -238.3,158.41 -314.08,598.07 -7.04,565.62z"/>
  <path fill="#FBEC53" d="M7524.63 3574.36c60.61,69.41 16.05,-68.17 70.59,76.01 0.72,1.9 2.4,7.89 3.21,9.77 28.57,66.18 70.12,77.53 116.61,88.44 55.81,-35.47 74.16,-56.77 94.49,-116.17l-86.5 14.45c3.52,-3.55 7.84,-8.87 11.82,-12.68 79.4,-76.01 64.98,-44.98 170.81,-61.55l55.68 -92.24c-82.8,-1.55 -11.82,-7.72 -50.1,14.28 -51.28,29.48 36.62,3.77 -77.45,49.97l92.94 -134.65c92.47,85 46.46,115.55 157.12,77.97l-3.97 7.16c-5.69,-157.03 27.76,-211.66 -90.99,-278.5 -76,15.85 -63.57,10.02 -96.04,69.36 -58.4,106.71 31.96,55.69 -145.26,127.23 -0.85,-59.93 -7.19,-103.17 -13.8,-153.92l-13.33 -92.49c-166.42,155.12 40.48,388.62 -195.83,407.56z"/>
  <path fill="#EC3264" d="M4316.26 6874.91l11.93 143.98c433.33,63.73 66.42,-572.69 -240.52,-655.6 17.42,70.29 146.62,262.23 228.59,511.62z"/>
  <path fill="#EC3264" d="M6635.45 8231.55c347.36,-9.03 118.33,-489.4 -257.35,-660.3 32.94,133.95 91.15,194.93 145.95,305.16 52.78,106.17 48.23,264.02 111.4,355.14z"/>
  <path fill="#FDFDFA" d="M5508.04 8200.48c28.68,-118.2 46.33,-214.1 73.37,-327.4 32.64,-136.73 -55.83,-205.25 -175.07,-134.11 -152.46,90.96 -183.57,481.96 101.7,461.51z"/>
  <path fill="#FDFDFA" d="M7489.87 3313.68c-6.82,117.03 -23.58,168.03 34.76,260.68 236.31,-18.94 29.41,-252.44 195.83,-407.56l20.94 -52.02c11.82,-57.99 57.9,-135.93 16.47,-180.3 -56.25,-60.24 -124.74,0.67 -151.55,42.85 -38.41,60.43 -97.52,251.8 -116.45,336.35z"/>
  <path fill="#FBEC53" d="M8290.8 11182.05c0.97,4.83 6.03,20.61 7.4,26.57 6.02,26.13 42.59,58.1 -20.39,141.96l-34.18 33.11 56.97 27.76c96.38,40.94 263.69,102.44 322.83,-26.39 41.62,-159.45 -59.77,-228.98 -103.99,-327.86 -18.18,13.29 -25.12,19.03 -51.96,43.18 -105.2,94.62 -88.43,17.81 -179.03,50.58l2.35 31.09z"/>
  <polygon fill="#EC3264" points="8085.33,5789.32 8084.21,5491.78 7737.5,5296.09 7729.9,5585.67 "/>
  <path fill="#FB9C9B" d="M10297.7 13352.96c88.79,58.24 98.25,1.63 132.27,54.17 45.88,70.83 11.27,23.51 -38.43,85 -3.89,4.82 -11.83,22.07 -14.84,17.95 -3.16,-4.36 -11.44,11.94 -15.49,19.06 75.06,9.98 89.05,15.71 148.73,37.2 106.65,38.4 235.95,53.67 261.21,-109.19 29.02,-187.04 -26.02,-60.14 -39.53,-176.92l-433.92 72.73zm-7224.93 -704.14c99.08,-84.49 201.92,56.29 356.32,205.53 448.14,433.18 1125.97,575.99 925.08,737.67 -152.85,123.02 -1495.38,-760.73 -1281.4,-943.2zm4769.28 1330.27l21.17 -0.06c1374.05,-3.66 3031.69,-83.92 3986.82,-746.51 247.45,-171.67 413.68,-355.59 588.94,-596.51 102.86,-141.41 472.43,-128.34 -144.56,490.25 -360.22,361.15 -910.84,653.88 -1573.66,801.47 -1479.43,329.42 -3881.3,353.27 -5439.15,17.63 -68.86,-14.83 -184.4,-23.77 -226.62,-73.15 -66.5,-77.77 -3.62,-157.14 77.56,-162.82 64.85,-4.53 399.86,81.67 494.75,97.56 707.95,118.54 1474.42,174.12 2214.75,172.14zm3294.79 -826.85c-59.53,57.42 -193.51,66.65 -285.75,95.9l-119.47 32.09c13.51,116.78 68.55,-10.12 39.53,176.92 -25.26,162.86 -154.56,147.59 -261.21,109.19 -59.68,-21.49 -73.67,-27.22 -148.73,-37.2 4.05,-7.12 12.33,-23.42 15.49,-19.06 3.01,4.12 10.95,-13.13 14.84,-17.95 49.7,-61.49 84.31,-14.17 38.43,-85 -34.02,-52.54 -43.48,4.07 -132.27,-54.17 -360.74,110.54 -1684.28,156.32 -2116.35,167.45 -1554.45,40.07 -3982.92,-7.78 -5091.35,-1237.13 -103.48,-114.77 -207.43,-297.01 -270.03,-340.6 -6.19,460.89 -29.64,642.48 197.73,984.55 151.68,228.2 344.93,429.48 579.98,583.98 390.76,256.87 1123.29,587.19 1714.73,631.39l367.04 62.52c49.22,14.09 24.5,5.28 49.48,20.53 114.35,-25.47 923.64,59.5 1120.35,68.29 1010.36,45.13 2481.74,2.28 3440.76,-146.63 915.6,-142.17 1886.26,-457.18 2368.19,-1228.53 202.61,-324.3 208.98,-543.08 197.64,-985.72l-324.49 414.31c-261.51,297.71 -1073.43,807.36 -1394.54,804.87z"/>
  <path fill="#EC3264" d="M8085.93 5079.74l-0.05 -285.73c-110.56,-36.97 -214.41,-137.27 -318.02,-174.93l-8.37 265.8 326.44 194.86z"/>
  <path fill="#EC3264" d="M7563.21 4080.98c124.35,41.73 392.37,231.9 521.64,316.49 6.41,-222.74 4.47,-229.08 -115.79,-360.3 -111.2,6.56 -85.79,55.46 -223.29,13.91 -117.65,-35.56 -108.41,-70.13 -182.56,29.9z"/>
  <path fill="#FBEC53" d="M3192.47 11979.79c3.55,35.81 -2.53,18.05 7.81,52.88 5.22,3.29 13.04,2.18 15.36,10.34l97 102.69c47.23,51.79 64.14,72.91 121.75,119.25l125.08 -47.51c7.08,-138.8 -26.35,-114.45 -36.15,-148.77 -9.63,-33.72 15.51,40.88 -2.06,-32.18l-116.31 -157.76c-10.7,20.56 -29.08,56.87 -49.12,74.47l-76.28 36.33c-16.76,42.71 8.76,18.74 -32.43,-53.97l-54.65 44.23z"/>
  <path fill="#FBEC53" d="M3702.52 11730.87c83.06,-9.68 104.32,15.62 158.41,41.4 111.75,13.43 147.53,-3.47 167.57,-111.65 -113.42,-4.61 -2.97,-6.96 -121.43,57.93l68.03 -72.66c77.04,-66.5 -42.89,-12.01 47.34,-20.05 119.51,-10.64 132.32,4.77 145.59,-115.14 -3.78,-0.65 -9.7,0.74 -11.45,1.19 -92.08,23.52 5.44,5.45 -80.78,42.76 57.43,-63.39 46.7,-26.69 56.32,-117.19 2.24,-29.15 7.71,-16.3 -22.2,-17.99 -76.54,47.41 4.05,5.4 -57.59,8.02 -5.68,0.24 -25.65,-0.6 -29.88,-0.63l-29.36 -0.83c-27.17,69.02 -60.06,2.96 -29.7,146.69 -94.06,-16.63 -78.69,-22.22 -145.47,40.4l-115.4 117.75z"/>
  <path fill="#252425" d="M5218.86 14318.61c23.38,17.01 -13.58,2.57 45.14,22.08 17.26,5.74 36.56,8.98 54.72,12.25 31.01,5.57 59.96,7.68 92.07,12.44 74.09,10.97 136.44,22.14 211.46,31.67 23.51,-34.57 34.37,-56.32 53.07,-98.84 37.58,-85.47 -21.22,-31.76 53.61,-72.56 -24.98,-15.25 -0.26,-6.44 -49.48,-20.53l-367.04 -62.52c53.13,74.06 54.83,33.6 48.04,141.17l-141.59 34.84zm-1144.73 -2989.41c16.34,41.45 18.74,50.89 35.79,90.27 29.91,1.69 24.44,-11.16 22.2,17.99 81.62,46.6 69.58,61.45 164.06,98.5 0.21,-39.76 14.18,-26.29 -10.54,-67.49 115.37,-72.86 -3.18,-94.25 143.37,-116.88 -21.25,-25.43 -35.16,-39.6 -65.14,-66.35 -54.38,-48.52 -17.51,-26.26 -84.97,-57.64 -14.15,34.97 -23.37,29.05 6.74,29.19 -1.25,-0.51 -30.84,-55.1 -137.67,6.73 -17.56,10.16 -42.66,42.38 -73.84,65.68zm7098.67 1551.6c-103.95,52.47 -426.76,89.88 -510.7,161.98l99.48 -17.83c-28.48,176.69 66.14,156.93 89.51,223.19 92.24,-29.25 226.22,-38.48 285.75,-95.9 -83.99,-5.93 -46.37,24.29 -101.26,-29.26 -36.44,-35.54 -36.49,-46.63 -51.96,-107.12 102.07,36.41 231.49,134.65 243.94,-61.76 -120.15,31.75 8.96,56.45 -116.4,50.71 109.9,-61.4 21.24,-73.44 144.83,-88.04 87.54,-10.33 110.17,-16.39 142.26,-108.58l-225.45 72.61zm-6360.32 -6175.45l-39.67 -169.34c-14.53,-83.93 -0.06,-44.84 -31.53,-56.5 -33.6,4.67 -94.98,29.94 -102.18,99.99 -11.71,113.89 82.79,102.16 173.38,125.85zm-2202.13 5714.68c-107.47,-34 -325.98,-157.49 -431.01,-221.34 -731.83,-444.88 28.17,-809.49 437.36,-870.85l-6.35 1092.19zm1788.21 -5304.21c-77.38,37.87 -76.67,48.84 -164.59,46.25 -105.69,93.46 -673.9,45.72 -841.66,33.54 -629.82,-45.73 -704.9,-452.16 -192.88,-920.27l451.26 -433.54c109.77,103.67 56.38,130.91 320.55,289.05 130.32,78 276.05,138.09 398.62,215.58 308.92,195.26 352.76,621.4 28.7,769.39zm2926.24 -947.16c-396.4,36.08 -1270.15,31.91 -1156.66,-476.41 73.08,-327.33 615.02,-607.22 735.54,-900.92 111.58,65.3 86.07,127.56 426.4,330.2l-5.28 1047.13zm761.13 -1088.92l-1.72 412.04 1.12 297.54 1.34 411.42 -5.65 300.02 2.22 412.12c-15.74,167.71 -78.32,221.52 -183.2,273.98 -237.03,70.44 -384.4,-60 -419.41,-268.52l0.44 -361.72 0.7 -397.48 4.1 -312.37 -0.93 -401.08 -0.14 -314.32 -3.06 -393.62 3.61 -305.49c-3.34,-171.43 -18.58,-242.9 77.86,-351.28 74.15,-100.03 64.91,-65.46 182.56,-29.9 137.5,41.55 112.09,-7.35 223.29,-13.91 120.26,131.22 122.2,137.56 115.79,360.3l1.03 396.54 0.05 285.73zm-762.64 -1362.21c54.31,53.8 112.01,131.27 164.85,193.69 -95.61,167.39 -153.51,139.07 -156.48,422.83 -1.84,175.6 10.05,371.59 -3.98,544.09 -295.1,-150.97 -241.47,-334.93 -335.56,-415.88 -117.49,-101.08 -167.22,55.85 -202.25,132.78 -88.89,195.2 -356.82,431.78 -525.28,596.81 -215.84,211.46 -232.74,378.1 -335.66,404.5 -181.42,46.53 -462.57,59.76 -662.91,99.48 -205.63,40.78 -407.04,80.56 -609.27,130.88 -400.38,99.61 -566.74,257.07 -793.42,-53.82 -80.98,-111.06 -93.33,-442.52 -323.27,-130.92 -56.07,75.98 -104.97,106.91 -168.04,170.98 -163.6,166.22 -548.97,529.22 -643.05,711.69 -160.43,311.19 0.98,59.53 -219.3,287.82 -62.18,64.43 -9.65,34.29 -93.93,69.72 -11.03,33.32 -158.42,183.95 -251.16,369.6 -88.48,177.12 -99.09,295.65 -109.89,512.06 -16.27,326.01 57.62,806.42 130.45,1116.92 7.93,174.12 35.38,336.06 31.24,534.12 -3.24,154.7 -32,388.86 -4.29,529.46 39.48,336.46 184.12,479.93 399.12,612.25l-6.65 546.77c-252.76,121.64 -799.14,171.01 -919,623.05 -117.18,441.97 433.56,674.69 708.97,826.09 -51.63,146 -244.41,380.23 -69.75,537.94 239.31,216.07 478.44,-110.29 479.17,-110.79 227.84,276.51 69.57,164.55 433.45,510.82 396.21,377.05 1596.57,874.44 1981.46,828.14l141.59 -34.84c6.79,-107.57 5.09,-67.11 -48.04,-141.17 -591.44,-44.2 -1323.97,-374.52 -1714.73,-631.39 -235.05,-154.5 -428.3,-355.78 -579.98,-583.98 -227.37,-342.07 -203.92,-523.66 -197.73,-984.55 62.6,43.59 166.55,225.83 270.03,340.6 1108.43,1229.35 3536.9,1277.2 5091.35,1237.13 432.07,-11.13 1755.61,-56.91 2116.35,-167.45l433.92 -72.73 119.47 -32.09c-23.37,-66.26 -117.99,-46.5 -89.51,-223.19l-99.48 17.83c-131.11,-10.1 -715,113.16 -920.12,134.35 -920.31,95.05 -2135.67,115.34 -3043.07,70.14 -1115.35,-55.57 -2276.54,-204 -3165.1,-900.34 -54.97,-43.08 -10.12,-25.04 -75.06,-42.18 -119.94,-19.87 -197.92,-69.84 -292.16,-76.75 22.14,-77.98 70.62,-42.48 33.69,-195.33 -10.34,-34.83 -4.26,-17.07 -7.81,-52.88l-180.09 -253.85c-202.48,-379 -154.74,-690.28 -147.24,-1130.33 259.1,-23.47 410.89,-166.88 500.37,-343.81 100.55,-198.79 121.99,-535.19 195.09,-646.52 189.79,-9.45 225.38,126.8 267.79,309.72 55.76,240.51 -60.99,1245.6 245.74,1414.2 31.18,-23.3 56.28,-55.52 73.84,-65.68 106.83,-61.83 136.42,-7.24 137.67,-6.73 -30.11,-0.14 -20.89,5.78 -6.74,-29.19 -9.06,-49.23 -59.54,-111.32 -86.01,-174.78 -209.09,-501.22 54.28,-1242.51 -296.97,-1586.75 -232.92,-228.27 -572.45,-136.15 -633.88,215.4 -49.87,285.44 -98.57,625.46 -399.1,656.26 -334.94,34.33 -420.78,-350.23 -402.7,-668.68 49.83,-877.93 -169.69,-1182.85 -146.21,-1990.89 6.38,-219.6 174.82,-569.38 381.17,-675.04 209.58,448.49 742.77,413 1230.69,411.32 471.25,-1.62 969.24,-200.97 886.59,-709.09 -90.59,-23.69 -185.09,-11.96 -173.38,-125.85 7.2,-70.05 68.58,-95.32 102.18,-99.99 -0.08,-67.75 16.06,-5.42 -12.92,-72.01 -49,-56.36 -47.65,-77.4 -113.34,-136.66 -49.82,-44.95 -96.35,-62.8 -143.01,-115.76 178.01,-112.68 1205.63,-283.74 1491.91,-304.49 106.13,614.39 933.6,508.65 1358.37,528.26 44.1,281.95 -58.02,567.91 92.41,796.38 102.77,156.08 384.32,271.25 611.3,116.36 235.61,-160.77 209.44,-332.97 209.42,-670.81 -0.03,-293.1 -1.03,-586.35 1.5,-879.41 384.96,14.27 845.08,23.18 1212.42,88.82l234.48 29.71 72.5 6.63c-20.45,-49.52 -72.13,-117.18 -10.53,-178.89 51.51,-51.59 104.48,-30.13 149.06,-0.55l-14.3 -51.75 -80.11 -12.99c-233.56,-50.16 -520.48,-69.9 -762.14,-89.97 -198.08,-16.46 -630.27,-17.99 -791.03,-54.69 -33.52,-201.79 -9.12,-640.07 -9.1,-867.91 0.04,-684.46 -18.52,-419.8 -161.41,-698.56 83.43,-153.56 87.15,-162.28 153.15,-350.29l14.29 -290.68c-5.09,-4.36 -11.5,-9.88 -15.01,-13.39 -3.35,-3.35 -10.13,-9.07 -14.03,-13.12l-108.82 -118.33 -2.58 85.18 -23.88 284.53 3.97 -7.16c-26.44,188.89 -149.75,466.46 -326.64,405.21 -140.11,-48.51 -325.71,-214.37 -336.7,-384.09 -84.88,-162.05 59.62,-424.75 132.39,-543.44 74.78,-121.97 217.88,-339.4 335.67,-395.36l154.56 432.13c78.8,26.22 22.13,-9.25 83.75,53.23 19.81,20.09 29.71,32.99 47.79,49.46l-1.43 -147.23c3.86,-122.55 -173.39,-545.84 -246.51,-608.37 -128.43,1.51 -224.17,170.54 -285.52,239.09 -285.06,318.52 -493.1,676.08 -317.92,1128.94zm2557.26 1917.81l14.3 51.75c52.24,31.73 115.52,64.97 177.06,-32.8l35.17 -65.42c50.52,50.88 22.93,46.29 102.29,56.08 -1.9,-85.3 3.56,-29.14 -34.83,-99.08l63.07 -118.44c-67.27,44.42 -98.08,86.01 -150.21,136.52 -83.57,80.99 -60.86,80.64 -206.85,71.39zm-124.23 231.19l67.01 17.78c64.64,-28.05 101.34,-57.44 110.77,-129.93 -101.02,10.03 -33.08,15.05 -113.58,58.07 31.96,-76.68 51.32,-38.12 74.33,-125.36 -44.58,-29.58 -97.55,-51.04 -149.06,0.55 -61.6,61.71 -9.92,129.37 10.53,178.89zm3305.6 6560.38l-0.97 -1097.54c305.5,39.16 770.61,243.16 746.5,537.77 -17.49,213.79 -525.95,475.42 -745.53,559.77zm-2311.41 -7253.89c137.44,302.75 714.75,410.95 892.37,673.69 139.2,205.92 114.94,466.6 -60.96,576.67 -166.24,104.02 -395.44,138.58 -628.13,133.28 -223.23,-5.08 -518.55,3.28 -713.71,-68.14 -175.98,-64.4 -355.52,-253.78 -231.4,-496.08 111.81,-218.27 371.74,-416.62 554.06,-609.29 62.06,-65.57 108.82,-160.52 187.77,-210.13zm-349.49 59.8c-33.24,65.66 -36.65,61.41 -91.23,110.04 -18.17,16.19 -25.68,20.34 -42.86,39.93 -32.12,36.62 -17.74,17.3 -29.32,44.64l-63.07 118.44c38.39,69.94 32.93,13.78 34.83,99.08 -79.36,-9.79 -51.77,-5.2 -102.29,-56.08l-35.17 65.42c-61.54,97.77 -124.82,64.53 -177.06,32.8 -23.01,87.24 -42.37,48.68 -74.33,125.36 80.5,-43.02 12.56,-48.04 113.58,-58.07 -9.43,72.49 -46.13,101.88 -110.77,129.93 -75.64,303.75 -98.71,440.3 114.51,651.97 301.06,298.86 1364.18,296.08 1728.53,77.09 110.69,-66.53 134.38,-134.65 218.86,-203.82 528.56,189.19 1360.21,672.97 1379.85,1268.61 14.88,451.17 -50.54,761.65 -143.4,1174.42 -39.84,177.1 -86.51,355.71 -114.31,541.39 -28.48,190.14 -34.41,393.72 -78.63,577.36 -125.24,520.17 -556,478.18 -703.53,120.13 -116.97,-283.91 -52.91,-853.32 -517.49,-766.9 -323.28,60.14 -501.58,448.97 -418.4,856.24 63.41,310.49 297.06,727.21 102.67,1068.47 -76.99,135.17 -248.32,239.07 -461.95,176.48 -575.39,-168.56 -179.14,-996.45 -598.31,-1367.61 -245.22,-217.13 -754.69,-93.82 -1109.73,-61.94 -401.24,36.03 -802.98,84.47 -1210.6,97.41 -364.62,11.57 -1469.41,-48.26 -1839.75,-128.66 -191.58,-41.59 -400.65,-62.95 -604.03,-26.41 -911.64,163.82 -618.94,933.09 -693.01,1270.91 -59.11,269.62 -256.16,154.5 -445.6,142.14 -146.55,22.63 -28,44.02 -143.37,116.88 24.72,41.2 10.75,27.73 10.54,67.49 26.78,38.04 78.6,57.24 124.64,71.94 56.29,17.96 118.86,28.6 181.71,31.94 450.86,23.92 561.13,-291.51 538.67,-743.02 -15.89,-319.37 0.86,-490.42 215.47,-622.62 183.11,-112.8 471.17,-117.11 704.24,-74.09 1010.59,186.56 2098.35,175.37 3126.61,52.11 239.95,-28.76 538.01,-64.12 772.04,-65.7 680.88,-4.58 -15.79,1352.08 1002.1,1503.68 533.95,79.53 800.43,-399.5 746.41,-913.42 -27.64,-262.96 -135.4,-443.44 -177.29,-671.02 -48,-260.72 44.69,-546.14 298.99,-527.28 115.08,278.83 74.95,523.4 254.31,780.99 154.83,222.38 371.09,310.65 734.73,197.67 9.32,666.7 31.21,963.82 -315.45,1423.12 -199.41,264.21 -574.39,613.83 -977.89,755.82l-127.22 72.11c-32.09,92.19 -54.72,98.25 -142.26,108.58 -123.59,14.6 -34.93,26.64 -144.83,88.04 125.36,5.74 -3.75,-18.96 116.4,-50.71 -12.45,196.41 -141.87,98.17 -243.94,61.76 15.47,60.49 15.52,71.58 51.96,107.12 54.89,53.55 17.27,23.33 101.26,29.26 321.11,2.49 1133.03,-507.16 1394.54,-804.87l324.49 -414.31c11.34,442.64 4.97,661.42 -197.64,985.72 -481.93,771.35 -1452.59,1086.36 -2368.19,1228.53 -959.02,148.91 -2430.4,191.76 -3440.76,146.63 -196.71,-8.79 -1006,-93.76 -1120.35,-68.29 -74.83,40.8 -16.03,-12.91 -53.61,72.56 -18.7,42.52 -29.56,64.27 -53.07,98.84l1299.13 113.15 115.82 542.37c-444.47,-279.41 -807.22,423.41 -126.61,415.47 564.39,-6.58 326.73,-280.8 229.44,-957.1l1568.61 -11.24c-102.24,658.02 -321.02,924.03 151.63,965.32 205.12,17.91 484.2,-32.11 446.07,-267.95 -38.26,-236.64 -297.95,-199.8 -494.75,-148.56l110.28 -566.77c903.7,-81.54 1547.43,-103.27 2381.78,-355.19 676.98,-204.41 1148.8,-559.79 1527.49,-1098.34l49.01 -58.02c70.77,85.65 73.49,129.41 191.57,170.09 101.56,34.99 218.29,12.21 286.82,-50.56 173.03,-158.44 -24.54,-395.98 -70.55,-538.78 280.27,-150.43 820.03,-380.86 710.21,-821.17 -106.46,-426.82 -623.15,-505.82 -918.74,-625.89 -28.05,-1336.42 48.19,-521.77 165.15,-1554.61 96.74,-854.34 680.61,-2064.74 -194.92,-2758.97 -544.72,-431.91 -592.56,-367.96 -1111.97,-643.35 -6.02,-71.56 -10.29,-140.94 -28.46,-206.08 -23.55,-84.46 -59.32,-105.45 -60.41,-181.62l-100.05 -103.35c-211.38,-225.61 -524.01,-298.36 -732.78,-473.65 -71.3,-59.87 -118.06,-116.19 -155.04,-204.52 -154.07,-368.04 -228.37,-39.54 -302.76,83.03 -36.41,60 -99.49,145.32 -157.2,172.06zm-6942.27 7071.93c-16.58,-33.19 -0.02,-22.97 -24.36,-39.8 -57.61,-46.34 -74.52,-67.46 -121.75,-119.25l-97 -102.69c-2.32,-8.16 -10.14,-7.05 -15.36,-10.34 36.93,152.85 -11.55,117.35 -33.69,195.33 94.24,6.91 172.22,56.88 292.16,76.75z"/>
  <path fill="#FBEC53" d="M11172.8 12880.8l225.45 -72.61 127.22 -72.11 -0.21 -39.84c-37.13,-10.27 -80.08,12.69 -111.71,-4.28l-16.93 -60.81c66.66,-26.48 25.17,-15.81 68.79,17.51 53.38,40.78 -86.85,39.35 92.26,42.29 -10.49,-30.82 -22.51,-188.68 -170,-135.23 -15.13,5.48 -111.01,60.65 -78.81,139.33 0.28,0.67 25.95,35.14 26.49,35.87 -93.28,-36.91 -98.2,-28.5 -175.99,37.41l13.44 112.47z"/>
  <path fill="#FBEC53" d="M9146.07 10740.73c3.04,-5.68 8.09,-11.79 10.93,-15.93l32.6 -47.43c16.8,-24.68 24.44,-33.41 44.01,-66.52 -126.84,-40.76 -204.34,-43.31 -193.74,122.16l-111.18 20.69c1.02,37.06 -71.87,52.71 68.34,49.15 -59.99,42.69 -8.96,2.38 -49.91,12.47 -3.74,0.92 -10.91,2.34 -14.44,3.24l-47.32 14.75c42.6,181.12 203.54,143.39 223.08,1.98 -64.43,-0.16 -12.82,1.26 -56.15,21.19l-62.43 27.58c53.87,-128.38 135.77,-68.45 238.68,-102.28l33.16 -97.76c-99.45,12.19 -28.5,-0.64 -115.63,56.71z"/>
  <path fill="#FBEC53" d="M9391.94 10460.21c223.1,121.42 38.5,-49.21 2.97,-129.51 -104.39,48.19 -5.45,49.54 -154.37,51.21l127.63 21.22c-4.64,3.6 -12.26,5.43 -16.25,6.83 -176.79,62.37 -51.04,-21.46 -190.17,126.99 94.42,118.33 115.27,172.3 204.43,193.49 56.01,-108.22 9.18,-42.4 8.59,-72.55 -2.11,-106.14 89.14,-76.96 17.17,-197.68z"/>
  <path fill="#FDFDFA" d="M7900.04 7186.86c-21.09,-70.5 -134.68,-110.8 -198.9,-150.27 -69.32,-42.6 -135.22,-101.46 -220.51,-118.25 35.01,208.52 182.38,338.96 419.41,268.52z"/>
  <path fill="#FAEC46" d="M7720.46 3166.8l13.33 92.49c6.61,50.75 12.95,93.99 13.8,153.92 177.22,-71.54 86.86,-20.52 145.26,-127.23 32.47,-59.34 20.04,-53.51 96.04,-69.36 -86.3,-121.43 -148.89,-53.25 -247.49,-101.84l-20.94 52.02z"/>
  <path fill="#F2CAAD" d="M6216.36 12374.29c107.81,6.7 109.78,-71.24 174.89,-155.06 28.67,-36.91 155.15,-170.69 99.19,-224.46 -61.63,-59.23 -292.27,270.37 -274.08,379.52z"/>
  <path fill="#F2CAAD" d="M9135.5 12418.25c108.73,14.13 65.09,3.03 180.76,-153.6 53.53,-72.48 116.11,-113.53 112.07,-223.9 -112.67,-12.95 -117.78,60.94 -184.8,151.88 -50.8,68.93 -112.2,118.59 -108.03,225.62z"/>
  <path fill="#F2CAAD" d="M8817.99 12403.62c67.22,17.07 273.69,-296.01 265.15,-376.92 -93.05,-19.07 -146.43,83.37 -252.79,239.95 -2.73,4 -31.94,56.16 -32.06,56.66 -26.01,112.62 8.78,65.88 19.7,80.31z"/>
  <path fill="#F2CAAD" d="M6565.47 12385.56c77.99,21.49 146.82,-112.63 238.6,-240.24l40.43 -86.12c4.69,-89.89 3.86,-11.52 -11.26,-47.34 -84.97,-24.02 -156.42,127.07 -238.71,241.99l-40.54 84.01c-4.38,90.9 -4.08,11.08 11.48,47.7z"/>
  <path fill="#C16512" d="M11891.17 11362.52c41.36,127.9 257.59,111.94 215.8,-54.81 -31.23,-124.61 -281.16,-147.29 -215.8,54.81z"/>
  <path fill="#C26510" d="M3437.91 11105.4c10.19,103.84 80.71,126.68 192.54,106.76 30.89,-68.22 45.44,-102.73 8.03,-194.23 -88.51,-29.31 -215.19,-61.38 -200.57,87.47z"/>
  <path fill="#C26510" d="M12284.9 11613.77c-24.68,101.34 -10.45,132.13 35.45,198.61 272.17,60.77 239.82,-280.42 -35.45,-198.61z"/>
  <path fill="#C16512" d="M3200.57 11763.64c167.85,-7.18 169.65,-115.31 119.32,-236.85 -68.42,-8.33 -114.58,0.1 -164.34,18.5 -42.32,118.6 -31.33,127.9 45.02,218.35z"/>
  <path fill="#C36C1B" d="M4728.36 6407.5c28.98,66.59 12.84,4.26 12.92,72.01 31.47,11.66 17,-27.43 31.53,56.5l106.8 12.41c108.75,2.52 127.46,-29.77 129.62,-128.25 -171.66,25.03 -266.58,6.79 -236.82,-180.31 -58.9,49.44 -20.4,-20.81 -38.95,84.65 -15.69,89.19 6.83,-43.26 -0.06,39.41 -4.55,54.49 8,13.4 -5.04,43.58zm6263.57 4806.84c-41.81,56.01 -67.7,86.55 -169.19,83.51 -87.63,-107.92 -269.52,-629.72 -91.71,-731.56 164.77,-94.38 174.63,116.48 179.54,245.98 6.93,182.62 81.88,296.59 81.36,402.07zm-6715.35 -423.36c-79.02,-493.54 162.81,-419.47 205.62,-366.34 47.45,58.9 1.28,368.2 104.64,551.94 46.22,82.17 124.53,120.19 106.51,213.98 -39.06,203.36 -347.61,32.37 -416.77,-399.58zm8144.35 -1293.43c77.92,122.22 57.05,295.01 100.24,464 16.94,66.28 64.19,169.46 60.43,214.8 -4.9,58.98 -198.14,342.73 -327.55,-329.21 -34.62,-179.73 -79.54,-365.84 166.88,-349.59zm-9531.45 722.24c-397.65,139.21 -514.12,-1046.55 -83.21,-911.62 53.69,150.06 -38.41,316.08 -25.39,488.07 19,250.93 197.41,225.07 108.6,423.55zm6949.75 -1430.54c153.76,-22.81 842.3,-161.15 923.18,-118.91 124.15,78.15 66.73,205.04 -81.46,238.78 -743.78,169.34 -2217.34,280.8 -2944.74,282.1 -818.22,1.45 -1764.55,-50.67 -2571.51,-188.34 -458.32,-78.19 -666.66,-55.92 -589.49,-316.57 147.17,-56.54 702.15,77.28 921.84,108.95l1002.56 101.61c1167.3,140.88 2256.84,26.92 3339.62,-107.62zm-2568.73 733.47c-898.94,-2.99 -1777.11,-81.12 -2623.23,-258.31 -560.18,-117.3 -1083.25,-301.3 -1577.4,-559.54 -108.53,-56.72 -433.61,-181.11 -334.85,-352.18 83.7,-144.99 336.01,67.14 453.78,127.15 531.55,270.84 975.97,430.42 1601.72,556.34 1795.77,361.34 5566.16,375.43 7233.32,-392.7 573.39,-264.19 654.4,-428.99 796.08,-517.39 104.6,-65.26 567.15,19.04 -305.34,542.31 -179.23,107.5 -367.83,206.29 -577.94,288.96 -1325.28,521.49 -3238.58,570.11 -4666.14,565.36zm-1100.76 -907.28c-276.43,-1.58 -693.09,-1.67 -908.85,-112.03 -191.94,-98.18 -400.28,-321.45 -317.16,-631.66 118.13,-440.86 603.91,-520.82 644.29,-874.97 56.68,-497.13 72.36,-140.97 837.69,214.6 272.51,126.61 435.83,180.27 576.35,418.64 143.82,243.96 120.36,565.9 -53.49,743.19 -161.43,164.62 -469.83,243.99 -778.83,242.23zm3515.92 -1783.51c160.47,-105.08 113.91,116.88 236.7,206.22 201.7,146.73 689.51,181.33 879.52,581.62 313.2,659.8 -294.22,950.96 -885.32,941.48 -300.65,-4.82 -629.15,9.48 -878.39,-109.49 -193.93,-92.57 -401.33,-321.08 -317.03,-632.51 79.61,-294.1 469.57,-588.36 702.39,-760.07l262.13 -227.25zm-6386.94 1326.04c392.79,230.14 687.1,280.94 802.33,341.73 98.06,51.74 93.49,185.64 2.48,226.14 -164.84,73.34 -940.33,-343.85 -1069.26,-430.07 -186.35,-124.62 -858.6,-697.55 -520.62,-831.52 201.54,-79.88 63.7,271.06 785.07,693.72zm9655.1 -749.66c97.88,-54.08 192.9,23.09 171.22,155.02 -40.73,247.78 -344.67,581.33 -494.77,652.42 -117.39,55.6 -239.28,-38.65 -181.33,-160.8 12.94,-27.28 167.27,-154.04 198.54,-184.96 321.93,-318.42 144.07,-372.01 306.34,-461.68zm-5782.9 -239.86c143.21,-65.16 282.25,325.3 751.79,232.08 195.46,-38.81 278.44,-160.84 331.41,-182.09 156.54,-62.78 256.63,100.91 106.32,238.29 -588.12,537.54 -1570.9,-114.77 -1189.52,-288.28zm2055.9 -1180.5c55.81,32.15 8.89,-42.32 54.58,41.84 59.67,-103.54 17.95,-47.89 63.61,-57.59 12.55,26.96 18.26,34.16 28.13,48.2l73.35 97.97c3.06,5.77 17.29,38.63 19.1,45.35 33.97,125.92 -20.43,305.2 -312.49,181.1l-21.55 -8.44c-58.2,-25.2 -20.52,-0.82 -63.2,-33.12 39.01,-76.92 59.23,-58.61 74.2,-125.66 -64.85,-4.05 -131.94,10.43 -200.81,-9.29 -57.28,-16.4 -26.35,-3.74 -62.33,-31.53 -238.94,-24.83 -526.55,66.92 -506.45,-197.36 123.96,-96.06 265.33,-66.96 445.57,-47.59 250.02,26.86 349.76,0.57 408.29,96.12zm-4498.46 419.55c13.04,-30.18 0.49,10.91 5.04,-43.58 6.89,-82.67 -15.63,49.78 0.06,-39.41 18.55,-105.46 -19.95,-35.21 38.95,-84.65 115.82,-26.5 900.92,-345.68 1004.2,-176.39 66.9,206.7 -187.56,174.95 -346.51,219.41 -116.01,32.45 -333.51,101.77 -420.87,137.29 -2.16,98.48 -20.87,130.77 -129.62,128.25l-106.8 -12.41 39.67 169.34c82.65,508.12 -415.34,707.47 -886.59,709.09 -487.92,1.68 -1021.11,37.17 -1230.69,-411.32 -206.35,105.66 -374.79,455.44 -381.17,675.04 -23.48,808.04 196.04,1112.96 146.21,1990.89 -18.08,318.45 67.76,703.01 402.7,668.68 300.53,-30.8 349.23,-370.82 399.1,-656.26 61.43,-351.55 400.96,-443.67 633.88,-215.4 351.25,344.24 87.88,1085.53 296.97,1586.75 26.47,63.46 76.95,125.55 86.01,174.78 67.46,31.38 30.59,9.12 84.97,57.64 29.98,26.75 43.89,40.92 65.14,66.35 189.44,12.36 386.49,127.48 445.6,-142.14 74.07,-337.82 -218.63,-1107.09 693.01,-1270.91 203.38,-36.54 412.45,-15.18 604.03,26.41 370.34,80.4 1475.13,140.23 1839.75,128.66 407.62,-12.94 809.36,-61.38 1210.6,-97.41 355.04,-31.88 864.51,-155.19 1109.73,61.94 419.17,371.16 22.92,1199.05 598.31,1367.61 213.63,62.59 384.96,-41.31 461.95,-176.48 194.39,-341.26 -39.26,-757.98 -102.67,-1068.47 -83.18,-407.27 95.12,-796.1 418.4,-856.24 464.58,-86.42 400.52,482.99 517.49,766.9 147.53,358.05 578.29,400.04 703.53,-120.13 44.22,-183.64 50.15,-387.22 78.63,-577.36 27.8,-185.68 74.47,-364.29 114.31,-541.39 92.86,-412.77 158.28,-723.25 143.4,-1174.42 -19.64,-595.64 -851.29,-1079.42 -1379.85,-1268.61 -84.48,69.17 -108.17,137.29 -218.86,203.82 -364.35,218.99 -1427.47,221.77 -1728.53,-77.09 -213.22,-211.67 -190.15,-348.22 -114.51,-651.97l-67.01 -17.78 -72.5 -6.63 28.35 29.56c49.21,60.56 35.82,3.64 34.77,105.37l-126.73 -105.6c-86.95,93.92 17.8,36.42 47.1,186.34 -120.21,-20.11 -13.64,4.96 -101.77,-57.89 -63.06,-44.96 -99.42,15.24 -116.2,-187.49 -367.34,-65.64 -827.46,-74.55 -1212.42,-88.82 -2.53,293.06 -1.53,586.31 -1.5,879.41 0.02,337.84 26.19,510.04 -209.42,670.81 -226.98,154.89 -508.53,39.72 -611.3,-116.36 -150.43,-228.47 -48.31,-514.43 -92.41,-796.38 -424.77,-19.61 -1252.24,86.13 -1358.37,-528.26 -286.28,20.75 -1313.9,191.81 -1491.91,304.49 46.66,52.96 93.19,70.81 143.01,115.76 65.69,59.26 64.34,80.3 113.34,136.66zm4498.46 -419.55c19.48,221.93 -150.06,159.61 -347.41,148.83 35.98,27.79 5.05,15.13 62.33,31.53 68.87,19.72 135.96,5.24 200.81,9.29 -14.97,67.05 -35.19,48.74 -74.2,125.66 42.68,32.3 5,7.92 63.2,33.12l21.55 8.44c292.06,124.1 346.46,-55.18 312.49,-181.1 -1.81,-6.72 -16.04,-39.58 -19.1,-45.35l-73.35 -97.97c-9.87,-14.04 -15.58,-21.24 -28.13,-48.2 -45.66,9.7 -3.94,-45.95 -63.61,57.59 -45.69,-84.16 1.23,-9.69 -54.58,-41.84zm457 -128.05l-234.48 -29.71c16.78,202.73 53.14,142.53 116.2,187.49 88.13,62.85 -18.44,37.78 101.77,57.89 -29.3,-149.92 -134.05,-92.42 -47.1,-186.34l126.73 105.6c1.05,-101.73 14.44,-44.81 -34.77,-105.37l-28.35 -29.56z"/>
  <path fill="#EC3264" d="M7481.74 4737.75l105.88 35.91 4.7 -269.71c-47.22,-33.08 -68.45,-49.29 -106.97,-71.69l-3.61 305.49z"/>
  <polygon fill="#EC3264" points="7484.94,5445.69 7574.54,5471 7582.83,5202.53 7484.8,5131.37 "/>
  <path fill="#C16512" d="M3691.98 11999.65c39.62,22.59 56.09,39.73 115.02,7.55 62.44,-34.09 41.56,-49.93 44.16,-83 -22.5,-50.5 -97.35,-108.13 -160.97,-132.33 -18.33,124.97 1.37,62.36 71.61,163.37l-69.82 44.41zm0 0l69.82 -44.41c-70.24,-101.01 -89.94,-38.4 -71.61,-163.37 63.62,24.2 138.47,81.83 160.97,132.33 46.54,-42 24.35,-90.44 9.77,-151.93 -54.09,-25.78 -75.35,-51.08 -158.41,-41.4 -48.93,33.8 -75.42,50.73 -73.47,139.04 0.7,31.87 8.38,62.34 20.82,85.21 30.4,55.91 22.03,27.56 42.11,44.53z"/>
  <path fill="#FE9A99" d="M10317.49 6407.28c-413.91,40.01 -132.68,-645.32 209.32,-673.98 -11.36,132.66 -58.94,224.04 -103.9,335.14 -40.89,101.02 -63.15,242.14 -105.42,338.84zm1066.71 -323.04c-51.92,-140.32 -143.98,-250.22 -184.28,-373.17 148.85,43.1 610.76,445.79 389.49,637.4 -164.71,142.62 -161.63,-146.47 -205.21,-264.23zm-633.69 -911.22c-78.95,49.61 -125.71,144.56 -187.77,210.13 -182.32,192.67 -442.25,391.02 -554.06,609.29 -124.12,242.3 55.42,431.68 231.4,496.08 195.16,71.42 490.48,63.06 713.71,68.14 232.69,5.3 461.89,-29.26 628.13,-133.28 175.9,-110.07 200.16,-370.75 60.96,-576.67 -177.62,-262.74 -754.93,-370.94 -892.37,-673.69z"/>
  <path fill="#FE999A" d="M9239.17 8213.4c-357.94,4.29 -155.07,-600.74 217.51,-661.23 -5.39,79.82 -179.9,620.55 -217.51,661.23zm1164.18 -30.21c-43.1,-103.71 -50.79,-233.57 -105.25,-356.28 -55.06,-124.04 -120.14,-189.37 -156.94,-308.19 332.6,101.21 655.33,666.96 262.19,664.47zm-423.28 174.93c445.32,0.48 879.37,-198.68 617.63,-682.61 -173.61,-320.99 -685.35,-298.04 -889.25,-567.7 -107.47,44.95 -736.26,536.08 -788.3,764.34 -56.37,247.2 137.32,389.59 323.11,440.87 163.74,45.2 547.86,44.9 736.81,45.1z"/>
  <path fill="#111111" d="M9980.07 8358.12c-188.95,-0.2 -573.07,0.1 -736.81,-45.1 -185.79,-51.28 -379.48,-193.67 -323.11,-440.87 52.04,-228.26 680.83,-719.39 788.3,-764.34 203.9,269.66 715.64,246.71 889.25,567.7 261.74,483.93 -172.31,683.09 -617.63,682.61zm-294.41 -1526.19l-262.13 227.25c-232.82,171.71 -622.78,465.97 -702.39,760.07 -84.3,311.43 123.1,539.94 317.03,632.51 249.24,118.97 577.74,104.67 878.39,109.49 591.1,9.48 1198.52,-281.68 885.32,-941.48 -190.01,-400.29 -677.82,-434.89 -879.52,-581.62 -122.79,-89.34 -76.23,-311.3 -236.7,-206.22z"/>
  <path fill="#F6C46E" d="M12953.82 7408.31c-162.27,89.67 15.59,143.26 -306.34,461.68 -31.27,30.92 -185.6,157.68 -198.54,184.96 -57.95,122.15 63.94,216.4 181.33,160.8 150.1,-71.09 454.04,-404.64 494.77,-652.42 21.68,-131.93 -73.34,-209.1 -171.22,-155.02z"/>
  <path fill="#FDFDFA" d="M8879.41 6136.78c197.35,10.78 366.89,73.1 347.41,-148.83 -58.53,-95.55 -158.27,-69.26 -408.29,-96.12 -180.24,-19.37 -321.61,-48.47 -445.57,47.59 -20.1,264.28 267.51,172.53 506.45,197.36z"/>
  <path fill="#FDFDFA" d="M10317.49 6407.28c42.27,-96.7 64.53,-237.82 105.42,-338.84 44.96,-111.1 92.54,-202.48 103.9,-335.14 -342,28.66 -623.23,713.99 -209.32,673.98z"/>
  <path fill="#FDFDFA" d="M9239.17 8213.4c37.61,-40.68 212.12,-581.41 217.51,-661.23 -372.58,60.49 -575.45,665.52 -217.51,661.23z"/>
  <path fill="#EC3264" d="M10403.35 8183.19c393.14,2.49 70.41,-563.26 -262.19,-664.47 36.8,118.82 101.88,184.15 156.94,308.19 54.46,122.71 62.15,252.57 105.25,356.28z"/>
  <path fill="#EC3264" d="M11199.92 5711.07c40.3,122.95 132.36,232.85 184.28,373.17 43.58,117.76 40.5,406.85 205.21,264.23 221.27,-191.61 -240.64,-594.3 -389.49,-637.4z"/>
  <path fill="#252425" d="M8043.13 3002.41c8.84,37.58 16.32,74.61 24.58,112.07 3.51,15.92 7.42,38.34 12.39,53.29 12.05,36.3 10.22,24.18 23.66,42.82l2.58 -85.18 108.82 118.33c3.9,4.05 10.68,9.77 14.03,13.12 3.51,3.51 9.92,9.03 15.01,13.39 -5.67,-64.39 -12.74,-119.71 -23.63,-180.8 -1.49,-8.3 -11.53,-62.72 -13.99,-70.43 -26.55,-83.19 -13.37,-35.9 -33.34,-61.15l1.43 147.23c-18.08,-16.47 -27.98,-29.37 -47.79,-49.46 -61.62,-62.48 -4.95,-27.01 -83.75,-53.23z"/>
  <path fill="#FEFEFE" d="M11467.33 2733.58c25.36,-38.28 3.6,-15.24 37.64,-52.95 63.38,-70.23 12.77,-12.12 44.48,-33.25l75.05 -71.62 373.65 135.35c-5.66,161.39 -142.6,448.79 -199.02,607.91 -49.1,138.48 -163.54,539.02 -245.26,616.88 5,35.54 32.19,-27.98 -3.26,81.54l-86.43 230.47 167.42 75.48 -79.6 198.16 -30.52 118.46 -170.64 -42.07 -77.22 134.04c8.25,62.13 -2.98,56.97 -24.81,129.35l-53.19 128.13 -363.4 -126.34 70.02 -124.94c-4.35,-30.3 -9.68,12.14 2.02,-54.08 4.72,-26.65 11.87,-48.96 21.08,-74.56 13.97,-38.91 31.47,-76.51 50.26,-112.67 -42.95,-66.78 17.63,-20.1 -93.23,-70.49 -156.84,-85.47 -455.48,-134.49 -575.33,-233.98 148.83,-416.42 178.14,-395.17 542.15,-779.99 177.81,-187.99 471.45,-481.44 618.14,-678.83zm2309.69 147.54c-61.59,3.23 52.71,25.63 -74.09,-4.53 -5.06,-1.2 -44.83,-16.56 -51.79,-19.08 -55.36,-20.04 -91.21,-32.6 -142.55,-58.28l-1545.26 -563.69c-6.39,0.05 -14.24,0.45 -19.17,-0.03l-125.15 -31.67c-54.87,-19.85 -102.43,-36.64 -154.38,-60.57l-369.67 -143.95c-79.71,7.63 -208.92,-49.2 -296.66,-88.86l-910.71 -334.88c-146.38,170.01 -1236.63,3607.71 -1422.32,3946.93l-12.79 95.83c-9.23,30.59 -25.11,66.52 -35.55,100.74 111.94,45.74 66.11,18.35 162.27,-14.55 67.5,-23.09 430.57,-113.67 492.13,-173.83l56.64 21.97 490.21 -120.03c41.07,-95.56 40.74,-152.3 106.69,-232.54l85.29 -173.04 235.91 109.38c16.33,134.38 -27.54,192.69 -84.33,336.93 2.73,84.83 -74.51,190.74 -119.5,273.18 5.35,-10.77 22.98,-48.55 29.24,-55.39 47.55,-51.87 24.07,-33.64 75.04,-54.78l59.02 -127.4c35.68,-99.34 150.66,-424.41 302.1,-319.89 100.41,69.29 32.11,8.24 38.07,66.84l-40.11 208.46c49.28,-16.12 37.3,-73.26 70.36,-149.42 91.16,34.45 -13.33,-7.21 20.06,18.43l40.52 12.96c3.31,-0.87 10.43,-4.18 13.81,-5.36l35.19 -15.65c14.18,-5.33 51.9,-16.8 113,-19.22l822.85 20.53c114.54,20.6 124.66,-40.8 273.09,33.1 189.05,-72.7 389.51,106.29 582,150.4 -109.73,-31.88 -327.99,-78.78 -372.1,-203.74 -98.98,-114.65 -197.87,-242.74 -149.81,-386.13 -46.16,-118.79 53.49,-314.09 103.15,-449.57 59.7,-162.88 97.07,-349.92 192.42,-488.95 -15.04,-79.57 65.58,-242.4 101.95,-336.58 109.66,-283.99 184.72,-506.46 450.6,-581.03 97.75,-27.41 226.25,-15.25 354,30.66 108.19,38.89 280.47,124.17 294.92,212.76 59.49,61.3 38.96,15.05 44.96,84.1 117.91,124.08 47.38,498.67 -88.82,700.05 11.2,124.52 -113.16,353.11 -156.04,486.91 -68.12,163.48 -115.78,335.17 -183.08,499.38 -109.53,267.31 -165.91,229.19 -293.59,364.75l-4.78 28.96c112.49,-29.68 270.85,5.58 408.13,-17.23 60.65,-10.08 366.72,-42.18 401.45,-27.71 -15.59,-7.74 -64.24,-29.8 -74.65,-39.81 -63.67,-61.28 -33.11,3.92 -42.11,-71.05 80.55,-98.25 70.09,-202.79 133.68,-303.03 20.96,-33.05 172.88,-197.75 196.57,-212.78l991.73 -1084.34c108.74,18.97 306.78,83.02 395.5,145.29 -60.02,158.28 -235.53,734.34 -317.78,830.49 3.44,26.93 8.25,-9.67 -1.58,50.53 -2.71,16.59 -6.99,34.33 -12.13,50.25 -12.8,39.68 -36.41,88.43 -52.93,127.65l-52.9 152.49c63.53,-8.61 -0.14,9.79 52.79,-13.02 27.8,-11.98 22.87,-11.22 45.99,-30.43 91.5,-11.26 72.39,-46.23 179.08,-56.99 32.55,-23.61 183.43,-99.92 215.96,-112.22 150.11,-56.8 203.97,-125.28 417.16,-218.47 105.03,-45.92 845.74,-524 904.06,-594.01 41.64,-50 60.94,-75.25 97.57,-111.26 -94.4,-39.33 -164.76,-46.5 -241.59,-98.03 -93.63,-79.46 -1120.01,-415.14 -1315.69,-484.17 -222.58,-78.53 -449.28,-159.72 -672.68,-239.72 -186.35,-66.73 -469.93,-147.69 -648.87,-233.04zm1748.53 2008.96c125.19,71.15 127.1,56.33 201.45,150.72l63.37 65.81 -61.87 126.1 -304.75 -128.48 101.8 -214.15zm-504.45 81.96c-106.69,10.76 -87.58,45.73 -179.08,56.99 -7.7,73.89 -29.88,73.49 -37.92,127.37 -29.69,199.34 106.95,71.43 111.69,68.14 64.47,-44.71 230.47,72.38 300.78,104.32l-104.74 195.14c-140.78,-31.69 -43.13,-91.75 -270.52,-132.39l8.57 28.35c0.68,4.19 2.46,10.74 2.91,15.64l-116.35 376.64c-7.98,1.88 -17.35,1.71 -24.5,2.3l-98.49 7.4c-73.09,-69.14 -79.02,-4.15 -9.47,-76.12l-88.68 -19.77c-31.38,70.67 -37.16,66.27 -30.16,127.54l71.21 -107.03c-0.5,7.39 -2.61,15.59 -4.13,21.86 -1.51,6.16 -2.7,13.98 -4.66,21.4l-54.42 207.02c-5.08,11.08 -31.15,41.44 -36.47,46.07 134.86,132.66 29.6,-3.06 322.98,141.04l-97.25 195.81 -284.61 -140.55c0.31,-7.23 -0.45,-49.31 -2.22,-58.8 -0.6,-3.26 -2.63,-9.99 -3.33,-12.85l-15.08 -35.07 -364.62 -141.17 143.59 -399.66c-188.31,-93.22 -550.81,-164.84 -693.05,-275.73 9,74.97 -21.56,9.77 42.11,71.05 10.41,10.01 59.06,32.07 74.65,39.81 -34.73,-14.47 -340.8,17.63 -401.45,27.71 -137.28,22.81 -295.64,-12.45 -408.13,17.23 -61.47,84.47 -23.58,16.51 3.52,57.08 93.12,-10.19 26.62,5.07 128.9,74.59 77.03,52.35 136.44,48.86 233.6,111.54l-49.37 99.43c354.18,175.9 707.82,333.9 1064.02,510.8 19.31,77.97 73.84,-55.84 0.26,94.67l137.44 68.22 28.28 -56.94 170.65 84.75c56.57,-113.95 23.98,-104.62 141.85,-47.72 -36.59,73.68 -68.88,161.43 -121.71,210.14 -33.6,30.99 -6.14,-26.49 -69.12,60.42 -46.25,63.83 -64.2,202.69 -86.05,284.17 -16.39,61.14 -102.54,128.88 -132.96,163.49 1.76,5.22 11.45,6.17 10.35,12.87 -5.44,32.84 85.54,-34.05 -7.59,136.19l-104.24 -51.76c0.69,-7.02 -1.63,-40.76 -0.5,-45.55 0.1,-0.45 -20.93,11.67 18.64,-41.97 -87.31,-16.01 -185.74,-42.52 -274.83,-97.39 5.66,29.03 -94.6,74.34 206.61,107 -65.33,30.12 -10.62,75 -233.41,-40.56l-213.7 -72.65c-4.05,-0.18 -11.37,-0.19 -16.93,0.81 80.51,111.63 264.44,122.17 344.64,173.59 391.8,251.24 839.37,441.71 1276.52,655.17 93.42,-188.11 71.96,-128.17 130.8,-147.63l1072.61 -3036.23 -0.55 -47.67c-72.41,145.8 -128.84,211.84 -193.13,341.29 -98.57,-100.62 -164.01,-116.74 -289.19,-178.91 -14.36,-107.71 111.44,-30.24 -15.4,-120.2 -100.86,-71.54 -71.92,-28.18 -116.51,52.62l-194.99 -83.01c-160.95,324.08 -117.15,4.45 -226.6,241.99 -50.61,-28.56 -49.1,-14.69 -60.61,-67.69l-90.63 134.27c-93.28,-113 -121.94,-46.88 -219.83,-38.91zm1393.16 -1133.99c76.83,51.53 147.19,58.7 241.59,98.03 -36.63,36.01 -55.93,61.26 -97.57,111.26 -58.32,70.01 -799.03,548.09 -904.06,594.01 -213.19,93.19 -267.05,161.67 -417.16,218.47 -32.53,12.3 -183.41,88.61 -215.96,112.22 97.89,-7.97 126.55,-74.09 219.83,38.91l90.63 -134.27c11.51,53 10,39.13 60.61,67.69 109.45,-237.54 65.65,82.09 226.6,-241.99l194.99 83.01c44.59,-80.8 15.65,-124.16 116.51,-52.62 126.84,89.96 1.04,12.49 15.4,120.2 125.18,62.17 190.62,78.29 289.19,178.91 64.29,-129.45 120.72,-195.49 193.13,-341.29l0.55 47.67 285.32 -806.18 -240.31 -89.99c-6.28,-1.19 -14.43,-1.56 -19.59,-2.37l-39.7 -1.67zm-990.51 1266.18l304.75 128.48 61.87 -126.1 -63.37 -65.81c-74.35,-94.39 -76.26,-79.57 -201.45,-150.72l-101.8 214.15zm-680.51 -31.75l-104.56 302.86 157.52 78.47 -107.1 310.71 -85.12 -18.7c-69.55,71.97 -63.62,6.98 9.47,76.12l98.49 -7.4c7.15,-0.59 16.52,-0.42 24.5,-2.3l116.35 -376.64c-0.45,-4.9 -2.23,-11.45 -2.91,-15.64l-8.57 -28.35c227.39,40.64 129.74,100.7 270.52,132.39l104.74 -195.14c-70.31,-31.94 -236.31,-149.03 -300.78,-104.32 -4.74,3.29 -141.38,131.2 -111.69,-68.14 8.04,-53.88 30.22,-53.48 37.92,-127.37 -23.12,19.21 -18.19,18.45 -45.99,30.43 -52.93,22.81 10.74,4.41 -52.79,13.02zm-258.1 781.11c-60.31,73.81 -88.73,182.47 -107.98,278.9l15.08 35.07c0.7,2.86 2.73,9.59 3.33,12.85 1.77,9.49 2.53,51.57 2.22,58.8l284.61 140.55 97.25 -195.81c-293.38,-144.1 -188.12,-8.38 -322.98,-141.04 5.32,-4.63 31.39,-34.99 36.47,-46.07l54.42 -207.02c1.96,-7.42 3.15,-15.24 4.66,-21.4 1.52,-6.27 3.63,-14.47 4.13,-21.86l-71.21 107.03zm-2590.66 -493.83c-148.43,-73.9 -158.55,-12.5 -273.09,-33.1l-103.73 157.58c42.04,37.13 64.91,38.65 131.94,71.38 8.98,59.91 29.32,-6.21 -26.21,64.63 -2.53,112.29 0.82,237.2 -41.29,332.82 33.71,16.74 18.81,18.84 42.29,-15.05l83.81 -234.86c56.64,-76.15 -14.6,-45.01 75.07,-35.95 61.94,86.72 -31.95,95.15 -17.37,195.01 82.22,-87.87 14.97,-114.7 120.66,-165.28 -29.01,28.94 -50.09,48.84 -78.14,101.71 -45.25,85.27 -36.94,111.62 -22.35,155.41 161.77,-407.19 337.29,-134.31 343.11,-118.42 21.42,58.47 -4.31,86.46 1.94,147.03l41.17 -49.31 93.3 46.12c-2,-5.53 -5.86,-17.18 -10.28,-14.38 -0.3,0.18 -58.75,-65.21 -56.26,-113.08 61.91,-31.18 96.37,6.93 153.56,-0.53 -82.01,-75.92 -52.08,-52.63 -162.54,-51.33l107.5 -25.66c8.37,-0.28 15.24,2.05 22.13,2.19 6.79,0.16 14.21,3.68 21.5,4.23l-288.01 -119.53c129.1,-54.24 68.82,35.44 143.04,-19.84 194.82,-145.12 -243.64,-246.29 -301.75,-281.79zm-2566.51 192.91l-56.64 -21.97c-61.56,60.16 -424.63,150.74 -492.13,173.83 -96.16,32.9 -50.33,60.29 -162.27,14.55l-13.91 33.01 1201.42 425.71c104.47,-27.27 56.81,-3.22 133.38,16.72 107.37,27.95 31.85,52.45 66.49,9.14 -136.52,-67.8 -96.78,-24.8 -198.02,-116.11l-130.33 -82.37 144.47 -266.52 42.97 34.61c28.77,-22.07 15.16,0.24 43.79,-44.38 28.49,-44.38 11.89,-27.45 29.22,-78.69l-9.1 137.18 116.6 53.36c84.59,25.21 54.6,-15.71 186.57,49.81 24.66,-71.8 17.01,-68.66 37.58,-123.02l-18.69 37.86c72.68,-14.46 50.3,96.07 61.85,-41.02 9.13,-58.94 78.03,5.95 -72.68,-65.38 -91.89,50.99 -5.64,133.31 -156.35,61.53l64.33 -124.14c-50.97,21.14 -27.49,2.91 -75.04,54.78 -6.26,6.84 -23.89,44.62 -29.24,55.39 44.99,-82.44 122.23,-188.35 119.5,-273.18 -50.64,1.86 -144.74,-4.2 -201.15,-0.36 -28.82,66.63 -32.95,121.09 -75.07,172.91 -42.54,52.34 10.15,11.88 -46.88,34.46 -138.19,-86.25 107.16,-307.82 86.23,-480.28 -65.95,80.24 -65.62,136.98 -106.69,232.54l-490.21 120.03zm2803.15 430c-105.61,153.15 -76.95,363.68 -249.64,414.84 1.46,65.08 -87.69,10.1 34.56,69.45 48.59,-43.5 46.67,-11.07 102.71,-87.96 76.38,-104.81 101.06,-254.93 148.19,-352.32l30.64 -51.52c-2.61,86.16 -132.04,408.89 -194.94,535.53 166.31,82.54 113.24,50.07 205.59,61.71l53.43 -97.96c63.02,-94.64 69.27,-60.59 79.49,-197.2l-84.79 120.21 -64.35 127.57c-146.79,-45.19 -77.79,-30.66 -90.6,-72.71l164.18 -472.83 -93.3 -46.12 -41.17 49.31zm295.32 -87.36l84.36 46.31c-9,26.2 -8.14,25.07 -21.98,48.04l-21.47 18.7c-8.88,0.55 -30.92,1.42 -49.11,2.55l-69.04 86.17 -118.11 287.82 25.27 12.55 84.79 -120.21c-10.22,136.61 -16.47,102.56 -79.49,197.2l-53.43 97.96c-92.35,-11.64 -39.28,20.83 -205.59,-61.71 62.9,-126.64 192.33,-449.37 194.94,-535.53l-30.64 51.52c-47.13,97.39 -71.81,247.51 -148.19,352.32 -56.04,76.89 -54.12,44.46 -102.71,87.96 -122.25,-59.35 -33.1,-4.37 -34.56,-69.45l-16.41 -16.98c-22.21,26.55 10.78,27.17 -59.95,4.36 43.02,80.2 52.99,-1.55 -25.04,169.06l262.19 138.43c28.48,-54.8 38.33,-97.3 105.74,-86.38 150.03,24.3 -46.11,7.25 131.94,95.68 70.76,-128.85 78.22,-102.78 34.94,-177.61 45.37,-6.8 33.61,5.36 70.98,-35.66 54.22,-123.29 2.89,3.83 -8.47,-78.69 -1.23,-8.9 -70.16,-0.31 22.52,-97.94 34.82,-36.67 124.14,-55.21 172.2,-61.77 -13.36,-115.46 32.74,-235.5 119.95,-318.47l269.58 75c7.33,0.65 16.11,1.5 23.9,-0.15l-121.02 -113.3c-81.38,-62.14 -117.14,-25.11 -117.14,-25.1 -5.6,1.16 -12.15,3.57 -17.37,4.87 -168.27,42.16 117.07,-1.05 -38.08,11.11 -44.05,-57.56 -149.39,-165.38 -208.56,-56.19 165.45,83.55 47.52,20.94 75.96,84.99 -81.17,-40.1 -75.51,-31.07 -132.9,-17.46zm772.59 1132.88c63.72,73.66 6.66,120.41 -53.75,227.3 -22.86,-58.3 -47.82,-9.92 -70.97,0.38 132.27,65.69 165.7,80.43 291.99,124.49 95.59,33.36 151.95,42.5 260.75,75.71l555.85 208.55c-54.24,-65.44 -62.85,-36.97 -125.26,-92.72 -94.43,-84.36 -38.22,-14.69 -62.18,-124.66 -91.77,-45.58 -79.73,-30.95 -148.37,-99.72l-60.3 -51.19 -59.41 76.44c-143.8,-32.6 -99.1,-52.74 -99.21,-90.18l-154.82 67.8c-5.91,3.26 -24.9,15.74 -30.45,19.19l-266.94 -104.35 89.58 -180.38 109.12 54.19c-51.14,105.51 -65.31,79.87 31.02,127.71 75.28,-151.58 23.05,-55.41 113.29,-97.43 9.37,-99.28 -46.96,2.76 -1.95,-91.23 2.97,-6.2 35.05,-49.93 39.33,-55.53 -134.39,-32.74 -116.03,-30.06 -185.93,-20.82l-28.29 1.41c-3.79,-0.41 -10.1,-2.4 -13.87,-3.23 -21.33,-4.67 -53.89,-34.42 -91.13,-15.51 -27.92,14.16 -13.38,-4.34 -38.1,43.78zm-607.36 -413.82c-46.76,29.6 -1.99,64.66 -126.96,-8.1 13.54,34.2 -15.26,5.64 34.93,49.93 27.86,24.59 34.66,24.01 71.28,42.29 -35.79,7.87 -30.73,66.24 -133.67,-63.5 25.59,96.6 -74.77,10.5 70.93,103.25l-73.38 149.88 223.12 111.35c21.8,85.72 36.64,-17.08 -0.67,96.53 148.63,73.82 241.43,96.28 385.26,167.71l-99.54 -27.68c56.76,-63.43 70.02,-84.29 97.11,-166.24 35.28,-106.73 22.52,-44.47 -18.12,-112.74l-15.24 -25.74c-38.29,-67.28 4.52,-31.9 -51.5,-68.88 -33.43,-22.06 -98.28,-31.18 -156.68,-98.28 132.23,65.67 114.31,50.82 169.2,39.54l-160.8 -104.05c22.17,141.36 12.46,33.23 -27.46,55.04 -65.07,-35.27 -144.9,-34 -219.55,-58.88 122.67,-130.33 20.2,-10.27 31.74,-81.43zm-2086.07 -1149.98c-31.21,126.31 -42.98,310.65 -99.28,419.72l-76.24 -34.55 -18.86 -85.19c-11.55,137.09 10.83,26.56 -61.85,41.02l18.69 -37.86c-20.57,54.36 -12.92,51.22 -37.58,123.02 -131.97,-65.52 -101.98,-24.6 -186.57,-49.81l-116.6 -53.36 9.1 -137.18c-17.33,51.24 -0.73,34.31 -29.22,78.69 -28.63,44.62 -15.02,22.31 -43.79,44.38l-42.97 -34.61 -144.47 266.52 130.33 82.37c101.24,91.31 61.5,48.31 198.02,116.11 -34.64,43.31 40.88,18.81 -66.49,-9.14 -76.57,-19.94 -28.91,-43.99 -133.38,-16.72 298.44,123.02 613.25,219.17 922.94,331.66 173.96,63.19 785.26,253.16 887.13,327.75l13.86 -27.89c-91.73,-77.07 -135.79,-81.63 -249.98,-88.68 93.48,-43.1 1.84,-34.99 97.42,-17.43 74.2,13.64 32.34,20.81 35.17,36 -52.95,-55.57 0.16,14.8 -11.86,-59.46 -93.35,-93.28 -7.55,32.76 -243.39,-88.64l104.51 -201.72c-163.7,-81.29 -45.01,-19.5 -65.36,-119.51 -130.14,10.26 124.94,-11.71 -48.71,14.35 -13.27,1.98 -8.94,11.25 -69.5,3.19 46.17,-93.68 100.81,-321.68 234.06,-614.07l-166.89 35.17c-53.49,184.8 -51.98,147.84 -106.32,145.29l-24.27 -27.01 -104.79 -22.23 -56.33 156.05c109.59,71.94 192.13,28.21 128.95,154.62 -89.69,-21.42 -193.46,-48.18 -261.77,-105.48 26.89,-69.11 53.92,-119.79 47.9,-177.87 -47.16,51.75 -75.22,137.41 -125.03,170.98 55.19,-51.83 139.25,-173.3 103.71,-255.52 -43.27,112.16 -69.75,226.13 -179.59,224.98 -92.02,-0.95 -160.98,-67.95 -166.25,-139.64 -6.9,-93.89 125.83,-416.18 185.49,-507.34l-35.19 15.65c-3.38,1.18 -10.5,4.49 -13.81,5.36l-40.52 -12.96c-33.39,-25.64 71.1,16.02 -20.06,-18.43 -33.06,76.16 -21.08,133.3 -70.36,149.42zm292.94 -158.26c72.13,31.62 175.89,80.43 129.84,205.61 -41.3,112.33 -10.32,55.88 -68.82,64.18 -126.38,-98.81 76.51,-94.55 -82.24,-167.54 -66.15,41.81 -85.37,148.66 -113.24,225.57 -41.59,114.74 -111.76,188.9 1.88,236.61 127.98,-99.82 31.35,-147.46 69.26,-249.19 69.67,-4.27 58.6,-1.46 130.62,37.08l-19.95 88.9c35.54,82.22 -48.52,203.69 -103.71,255.52 49.81,-33.57 77.87,-119.23 125.03,-170.98 88.99,-122.62 103.83,-296.35 178.24,-430.53 48.07,17.84 96.74,33.53 142.96,50.43 122.28,44.71 100.71,58.86 104.09,91.82 -64.22,58.39 -75.86,22.43 -175.88,-14.78l-66.41 145.33 136.2 77.03 -48.89 102.62c54.34,2.55 52.83,39.51 106.32,-145.29l166.89 -35.17c-133.25,292.39 -187.89,520.39 -234.06,614.07 60.56,8.06 56.23,-1.21 69.5,-3.19 173.65,-26.06 -81.43,-4.09 48.71,-14.35 20.35,100.01 -98.34,38.22 65.36,119.51l-104.51 201.72c235.84,121.4 150.04,-4.64 243.39,88.64l39.41 -92.29c-39.17,-28.06 -16.51,-7.77 -37.71,-49.06 -31.14,-60.7 -39.77,-120.17 -9.86,-187.18 56.35,-10.94 92.6,6.64 142.02,23.26 30.29,-40.51 24.66,-46.4 48.97,-94.12l77.5 -251.21 26.62 -75.09c-14.59,-43.79 -22.9,-70.14 22.35,-155.41 28.05,-52.87 49.13,-72.77 78.14,-101.71 -105.69,50.58 -38.44,77.41 -120.66,165.28 -83.82,131.38 -106.21,298.25 -177.83,443.61 -139.31,-56.09 -100.14,-116.49 -58.3,-494.24 -39.92,64.64 -61.92,134.91 -86.85,207.28 -10.6,30.78 -24.12,81.42 -35.09,107.99l-63.15 90.34c-80.39,-49.21 -62.77,-31.69 -24.58,-137.82 50.32,-139.84 131.54,-398.3 190.56,-498.34l112.73 39.21c55.53,-70.84 35.19,-4.72 26.21,-64.63 -67.03,-32.73 -89.9,-34.25 -131.94,-71.38l103.73 -157.58 -822.85 -20.53zm2400.49 1722.06c24.72,-48.12 10.18,-29.62 38.1,-43.78 37.24,-18.91 69.8,10.84 91.13,15.51 3.77,0.83 10.08,2.82 13.87,3.23l28.29 -1.41c69.9,-9.24 51.54,-11.92 185.93,20.82 -4.28,5.6 -36.36,49.33 -39.33,55.53 -45.01,93.99 11.32,-8.05 1.95,91.23 -90.24,42.02 -38.01,-54.15 -113.29,97.43 -96.33,-47.84 -82.16,-22.2 -31.02,-127.71l-109.12 -54.19 -89.58 180.38 266.94 104.35c5.55,-3.45 24.54,-15.93 30.45,-19.19l154.82 -67.8c0.11,37.44 -44.59,57.58 99.21,90.18l59.41 -76.44 60.3 51.19c68.64,68.77 56.6,54.14 148.37,99.72 23.96,109.97 -32.25,40.3 62.18,124.66 62.41,55.75 71.02,27.28 125.26,92.72l-555.85 -208.55c-108.8,-33.21 -165.16,-42.35 -260.75,-75.71 -126.29,-44.06 -159.72,-58.8 -291.99,-124.49 23.15,-10.3 48.11,-58.68 70.97,-0.38 60.41,-106.89 117.47,-153.64 53.75,-227.3zm307.36 -295.58c-60.82,169.48 -140.69,265.3 -308.39,131.19 -81.91,-111.28 138.46,-589.96 173.83,-631.22l76.88 32.45c-70.08,285.72 -242.04,490.89 -121.39,564.04 140.37,-78.25 111.27,-464.53 263.7,-518.66 72.82,42.5 57.38,-5.89 33.08,97.38l-117.71 324.82zm-914.72 -118.24c-11.54,71.16 90.93,-48.9 -31.74,81.43 74.65,24.88 154.48,23.61 219.55,58.88 39.92,-21.81 49.63,86.32 27.46,-55.04 47.76,-171.97 142.07,-772.76 423.06,-495.09 58.83,105.59 -12.27,221.64 -59.04,354.28 -66.78,189.38 -56.32,205.37 -203.22,244.86 -54.89,11.28 -36.97,26.13 -169.2,-39.54 58.4,67.1 123.25,76.22 156.68,98.28 56.02,36.98 13.21,1.6 51.5,68.88l15.24 25.74c40.64,68.27 53.4,6.01 18.12,112.74 -27.09,81.95 -40.35,102.81 -97.11,166.24l99.54 27.68c-143.83,-71.43 -236.63,-93.89 -385.26,-167.71 37.31,-113.61 22.47,-10.81 0.67,-96.53l-223.12 -111.35 73.38 -149.88c-145.7,-92.75 -45.34,-6.65 -70.93,-103.25 102.94,129.74 97.88,71.37 133.67,63.5 -36.62,-18.28 -43.42,-17.7 -71.28,-42.29 -50.19,-44.29 -21.39,-15.73 -34.93,-49.93 55.96,-87.13 137.49,-348.82 182.13,-474.02 4.28,-12.01 22.14,-59.99 27.16,-69.07l46.95 -58.45c37.28,8.46 106.88,25.93 149.63,46.74 100.98,49.14 76.9,17.11 67.61,96.72 -65.64,43.06 -67.81,-9.56 -173.3,-14.79l-68.91 163.92 122.3 74.95c-54.4,122.96 -28.42,32.21 -158.71,39.93l-67.9 202.17zm1203.79 123.92l34.25 -11.58c32.17,-63.13 36.55,-97.25 57.44,-158.01 4.31,-12.53 25.07,-64.36 31.18,-73.61l38.73 -38.11c4.86,-7.53 9.5,-7.36 15,-9.6 87.02,57.26 32.45,66.82 -50.67,313.81 -36.15,107.42 -73.05,235.82 -128.14,331.24 -121.91,-49.25 -92.02,-58.29 -80.11,-195.69 7.26,-83.49 4.27,-134.2 32.63,-219.09 -40.09,-19.91 -19.74,-19.31 -51,30.12l-115.38 272.48c-2.7,3.64 -13.6,16.07 -12.94,13.12 0.68,-2.99 -8.46,9.18 -13.62,12.61 -89.07,-53.16 -55.74,6.03 -44.39,-81.93l105.88 -292.86c107.74,-292.34 67.71,-298.24 214.67,-228.85 10.95,83.87 -5.51,260.9 -33.53,335.95zm-1691.08 -1431.87c44.11,124.96 262.37,171.86 372.1,203.74 -192.49,-44.11 -392.95,-223.1 -582,-150.4 58.11,35.5 496.57,136.67 301.75,281.79 -74.22,55.28 -13.94,-34.4 -143.04,19.84l288.01 119.53c-7.29,-0.55 -14.71,-4.07 -21.5,-4.23 -6.89,-0.14 -13.76,-2.47 -22.13,-2.19l-107.5 25.66c110.46,-1.3 80.53,-24.59 162.54,51.33l73.83 43.82c57.39,-13.61 51.73,-22.64 132.9,17.46 -28.44,-64.05 89.49,-1.44 -75.96,-84.99 59.17,-109.19 164.51,-1.37 208.56,56.19 155.15,-12.16 -130.19,31.05 38.08,-11.11 5.22,-1.3 11.77,-3.71 17.37,-4.87 0,-0.01 35.76,-37.04 117.14,25.1l121.02 113.3c-7.79,1.65 -16.57,0.8 -23.9,0.15l-269.58 -75c-87.21,82.97 -133.31,203.01 -119.95,318.47 -48.06,6.56 -137.38,25.1 -172.2,61.77 -92.68,97.63 -23.75,89.04 -22.52,97.94 11.36,82.52 62.69,-44.6 8.47,78.69 -37.37,41.02 -25.61,28.86 -70.98,35.66 43.28,74.83 35.82,48.76 -34.94,177.61 -178.05,-88.43 18.09,-71.38 -131.94,-95.68 -67.41,-10.92 -77.26,31.58 -105.74,86.38l-262.19 -138.43c78.03,-170.61 68.06,-88.86 25.04,-169.06 -64.39,-23.44 -88.81,-63.41 -123.17,-104.53 -24.31,47.72 -18.68,53.61 -48.97,94.12 -49.42,-16.62 -85.67,-34.2 -142.02,-23.26 -29.91,67.01 -21.28,126.48 9.86,187.18 21.2,41.29 -1.46,21 37.71,49.06l-39.41 92.29c12.02,74.26 -41.09,3.89 11.86,59.46 -2.83,-15.19 39.03,-22.36 -35.17,-36 -95.58,-17.56 -3.94,-25.67 -97.42,17.43 114.19,7.05 158.25,11.61 249.98,88.68l223.68 99.28 2829.48 1008.08c78.06,-7.08 192.53,45.6 279.46,85.55l270.5 101.8 124.44 -329.54c-58.84,19.46 -37.38,-40.48 -130.8,147.63 -437.15,-213.46 -884.72,-403.93 -1276.52,-655.17 -80.2,-51.42 -264.13,-61.96 -344.64,-173.59 5.56,-1 12.88,-0.99 16.93,-0.81l213.7 72.65c222.79,115.56 168.08,70.68 233.41,40.56 -301.21,-32.66 -200.95,-77.97 -206.61,-107 91.75,-78.48 93.69,-283.27 172.11,-382.14 -1.6,-19.32 -7.48,1.3 1.87,-49.47 1.66,-9.02 13.57,-49.19 16.75,-58.58 13.02,-38.44 24.86,-63.61 41.48,-99.26 51.36,1.47 97.4,10.46 159.12,39.91 54.19,25.85 94.97,45.9 86.3,98.17 16.16,42.83 28.13,-21.85 10.59,89.37 -11.77,74.74 -137.41,380.58 -213.39,459.39 -39.57,53.64 -18.54,41.52 -18.64,41.97 -1.13,4.79 1.19,38.53 0.5,45.55l104.24 51.76c93.13,-170.24 2.15,-103.35 7.59,-136.19 1.1,-6.7 -8.59,-7.65 -10.35,-12.87 30.42,-34.61 116.57,-102.35 132.96,-163.49 21.85,-81.48 39.8,-220.34 86.05,-284.17 62.98,-86.91 35.52,-29.43 69.12,-60.42 52.83,-48.71 85.12,-136.46 121.71,-210.14 -117.87,-56.9 -85.28,-66.23 -141.85,47.72l-170.65 -84.75 -28.28 56.94 -137.44 -68.22c73.58,-150.51 19.05,-16.7 -0.26,-94.67 -356.2,-176.9 -709.84,-334.9 -1064.02,-510.8l49.37 -99.43c-97.16,-62.68 -156.57,-59.19 -233.6,-111.54 -102.28,-69.52 -35.78,-84.78 -128.9,-74.59 -27.1,-40.57 -64.99,27.39 -3.52,-57.08l4.78 -28.96c-114.26,1.14 -110.12,57.1 -306.27,22.09 -149.74,-26.74 -233.78,-73.43 -364.39,-158.44zm244.82 790.66l69.04 -86.17c18.19,-1.13 40.23,-2 49.11,-2.55l-89.71 -28.45 -28.44 117.17zm-247.79 355.23c12.81,42.05 -56.19,27.52 90.6,72.71l64.35 -127.57 -25.27 -12.55 -46.76 128.89 -82.92 -61.48zm-988.16 -625.51l24.27 27.01 48.89 -102.62 -136.2 -77.03c-31.28,57.69 46.67,49.13 113.05,86.26l-50.01 66.38zm-802.03 -62.43l18.86 85.19 9.75 -133.57 -101.29 -17c150.71,71.33 81.81,6.44 72.68,65.38zm1270.88 188.7c-1.67,55.88 -12.77,25.32 29.97,62.03l12.32 -77.08c-23.48,33.89 -8.58,31.79 -42.29,15.05zm2112.67 754.7c31.26,-49.43 10.91,-50.03 51,-30.12l-5.72 -88.63c-26.85,31.66 -28.04,19.06 -39.27,57.75 -19.87,68.39 -6.13,42.23 -6.01,61zm100.69 30.52l18.75 72.38c53.97,-109.5 21.12,-51.44 15.5,-83.96l-34.25 11.58zm-3589.92 -1229.31l111.73 -166.21c31.69,-54.57 66.82,-118.25 96.11,-162.58 85.12,35.33 68.76,14.07 132.33,75.74 -5.96,-58.6 62.34,2.45 -38.07,-66.84 -151.44,-104.52 -266.42,220.55 -302.1,319.89zm1145.3 -911.04l170.64 42.07 30.52 -118.46 -37.16 92.53c-39.59,-4.53 -57.35,-13.98 -96.43,-19.83 -87.97,-13.15 -18.02,-11.15 -67.57,3.69zm-375.24 -101.07l25.55 -37.3c-54.79,-28.63 -67.1,-46.43 -118.78,-33.19 110.86,50.39 50.28,3.71 93.23,70.49z"/>
  <path fill="#2A2A2D" d="M13091.91 2568.17c-11.28,2.38 31.75,11.19 -49.29,-5.22 -10.44,-2.12 -41.09,-12.21 -52.62,-16.55 -35.99,-13.59 -70.73,-31.96 -105.56,-48.03l-472.67 -174.06c-77.13,1.48 -181.28,-41.03 -277.38,-86.87l-2098.3 -755.26 4.07 -8.19c-7.55,-2.68 -15.09,-5.88 -22.47,-9l-44.76 90.12c-2.73,27.17 -7.37,54.85 -13.99,82.94l19.71 -39.68 -41.72 118.13c-24.86,84.49 -47.39,163.75 -83.82,237.38l-1118.53 3167.59c3.9,24.75 8.91,12.19 1.87,52.58 -1.81,10.37 -19.13,66.44 -23.32,78.5 -17.65,50.82 -40.14,99.01 -63.77,151.12l-141.18 385.5c420.88,179.25 910.23,325.45 1343.69,481.26 205.43,73.86 1238.85,422.53 1340.41,487.2 27.09,-4.62 9.78,-9.9 52.4,-2.03 17.68,3.26 46.19,15.87 63.93,22.5l316.3 106.42 -10.4 -47.31c-101.87,-74.59 -713.17,-264.56 -887.13,-327.75 -309.69,-112.49 -624.5,-208.64 -922.94,-331.66l-1201.42 -425.71c-5.57,-27.43 -11.39,-15.59 -6.1,-56.85 2.88,-22.46 6.6,-28.79 13.84,-49.38 14.72,-41.91 35.71,-83.4 54.51,-123.35 185.69,-339.22 1275.94,-3776.92 1422.32,-3946.93l910.71 334.88c36.22,-6.1 -24.15,-21.61 73.57,1.73 16.12,3.85 56.33,20.55 73.78,27.29 51.46,19.87 99.66,37.72 149.31,59.84l369.67 143.95 298.7 92.27 1545.26 563.69c5.87,-0.61 13.19,-1.9 17.58,-1.63l112.87 27.2c46.41,17.31 91.82,36.26 137.98,56.32 178.94,85.35 462.52,166.31 648.87,233.04 223.4,80 450.1,161.19 672.68,239.72 195.68,69.03 1222.06,404.71 1315.69,484.17 18.57,0.78 41.14,0.6 59.29,4.04l240.31 89.99 -1482.37 4171.95 -270.5 -101.8c-13.54,0.47 -7.23,8.46 -58.33,-2.76 -30.36,-6.67 -42.11,-13.92 -70.12,-24.41 -53.44,-19.99 -99.05,-34.81 -151.01,-58.38l-2829.48 -1008.08c-7.96,0.91 -15.6,-2.73 -23.55,4.92l186.88 100.07c67.32,76.81 392.45,158.54 509.75,205.44l173.45 65.25c6.01,-0.43 17.54,-6.83 18.06,-1.1l122.23 29.87c65.59,24.04 116.04,37.27 176.78,68.09l1526.38 558.23c16.89,-0.69 -0.3,-9.89 58.58,2.8 14.96,3.22 38.43,11.8 53.65,17.09 46.33,16.1 91.75,35.41 136.1,55.14l474.48 173.28 1499.29 -4209.97c5.04,-35.52 13.05,-69.53 23.81,-101.82 -51.91,-9.46 -100.98,-26.06 -146.51,-48.52l-12.15 -4.32c-40.32,-5.99 -81.59,-16.08 -123.61,-30.92l-3413.76 -1223.96zm-1463.54 4241.15l-13.86 27.89 10.4 47.31 128.19 70.81 -217.74 623.34 68 33.77c24.17,-46.98 34.43,-55.62 64.51,-78.81 -20.3,-48.65 -100.45,40.96 10.9,-72.82 67.68,33.34 3,9.66 41.3,-22.16 -63.77,-50.5 -60.19,16.1 -15.4,-119.19l131.34 -346.07c95.11,38.68 110.59,58.38 179.37,40.2l-186.88 -100.07c7.95,-7.65 15.59,-4.01 23.55,-4.92l-223.68 -99.28zm-319.76 -31.22l73.63 37.62 -50.65 142.73 -159.7 439.71 73.28 36.39c52.86,-137.27 79.92,-321.66 166.27,-434.62 -3.13,-24.97 -14.78,-1.73 3.93,-71.1 9.18,-34.03 20.01,-50.43 33.07,-78.74l159.5 55.67 16.97 -21.24 -316.3 -106.42z"/>
  <path fill="#FDFDFD" d="M12763.71 3582.76c10.53,63.4 -2.18,54.67 -23.51,127.33 -95.86,239.53 -186.9,501.23 -269.83,746.62 -41.05,121.49 -101.74,259.91 -134.99,378.05 -46.2,164.14 -3.42,217.93 158.35,283.15 78.24,-15.3 132.24,2.66 199.88,-130.12l311.63 -865.91c49.84,-133.26 184.97,-447.44 166.45,-560.66 -16.65,-101.8 -132.83,-159.06 -222.4,-149.61 -84.7,8.94 -124.18,91.99 -185.58,171.15z"/>
  <path fill="#FEFEFE" d="M9327.97 5552.67c56.69,36.8 104.26,40.67 153.44,89.83 13.8,13.8 2.16,44.37 134.82,112.23l-96.03 167.37 -221.98 -90.82c-18.85,39.55 7.28,168.6 -123.51,48.04 -113.75,-104.86 -26.4,-28.33 -39.6,-96.26 -13.94,-71.81 36.11,-26.76 -73.11,-83.67 64.72,-71.12 55.56,-55.09 147.76,-78 71.99,-17.9 73.55,-0.59 118.21,-68.72z"/>
  <path fill="#434249" d="M14328.12 5113.23l-62.07 150.96c98.17,29.16 22.41,1.58 62.84,13.56 30.37,9 18.28,1.14 51.38,20.36l-214.63 512.08 69.33 12.87 -81.98 165.08c116.89,39.81 87.62,34.05 186.64,99.62 3.75,-104.14 -1.58,-89.88 44.16,-183.64 -56.88,20.83 -79.26,19.39 -67.35,77.81l29.87 -99.8c2.37,-5.14 4.95,-10.55 7.6,-15.35 6.27,-11.36 23.98,-31.54 28.01,-36.67 2.14,-2.73 71.6,-115.42 104.81,-165.53 88.53,-9.79 88.69,8.83 152.37,28.41 43.14,-102.93 63.74,-19 -36.21,-80.69 -12.92,-7.96 -91.92,49.72 -48.84,-138.45 11.6,-50.64 13.72,-43.52 41.09,-90.47l-67.45 -54.56 36.49 -32.3c4.13,-1.93 11.45,-4.22 15.71,-5.9l173.15 -415.55c104.28,-11.79 -33.88,-93.4 33.38,18.11 3.16,5.25 6.38,17.91 9.72,26.81 16.52,-39.22 40.13,-87.97 52.93,-127.65 5.14,-15.92 9.42,-33.66 12.13,-50.25 9.83,-60.2 5.02,-23.6 1.58,-50.53 -85.69,95.64 -24.15,45.78 -62.54,183.19l-35.92 -209.11c-0.28,-5.66 -4.42,-11.41 -1.31,-22.45 3.29,-11.66 0.48,-16 -1.34,-23.7l-119.47 -47.54c-5.82,-1.75 -19.61,2.88 -20.68,-4.61 -1.07,-7.53 -13.79,-3.41 -20.84,-4.17 -3.86,5.66 -6.48,13.26 -8.69,18.63 -2.22,5.39 -5.67,12.16 -8.31,18.91 -89.32,228.3 -134.59,410.01 -255.76,653.99l0.2 -141.47zm487.41 -1163.05l235.09 108.7c-82.09,110.99 -19.02,87.19 -69.66,170.27 -52.09,85.42 -32.66,-19.69 -105.12,131.56l-90.57 -36.88c-80.91,162.9 -68.32,124.36 -112.14,140.81 -171.65,-84.48 3.14,-27.11 -96.41,-142.93l-69.82 -67.77c-45.79,-64.15 -41.88,1.36 -25.88,-81.21 32.44,-10.6 16.74,-25.61 117.33,13.05 17.38,6.67 53.04,28.43 79.65,39.49l137.53 -275.09zm-1022.2 849.94l50.93 -40.09c11.56,-11 21.57,-30.21 46.8,-52.95 -6.47,95.95 -69.48,139.89 -141.15,284.2 118.29,58.75 77.91,57.87 208.15,56.33l-27.97 57.02c34.34,-61.41 -3.07,-9.24 35.62,-17.35l515.25 -583.14c44.77,-59.43 30.22,-65.68 93.38,-70.57l-55.21 157.99 -191.01 521.67 -0.2 141.47c121.17,-243.98 166.44,-425.69 255.76,-653.99 2.64,-6.75 6.09,-13.52 8.31,-18.91 2.21,-5.37 4.83,-12.97 8.69,-18.63 7.05,0.76 19.77,-3.36 20.84,4.17 1.07,7.49 14.86,2.86 20.68,4.61l119.47 47.54c1.82,7.7 4.63,12.04 1.34,23.7 -3.11,11.04 1.03,16.79 1.31,22.45l35.92 209.11c38.39,-137.41 -23.15,-87.55 62.54,-183.19 82.25,-96.15 257.76,-672.21 317.78,-830.49 -88.72,-62.27 -286.76,-126.32 -395.5,-145.29l-991.73 1084.34zm884.67 -574.85c-26.61,-11.06 -62.27,-32.82 -79.65,-39.49 -100.59,-38.66 -84.89,-23.65 -117.33,-13.05 -16,82.57 -19.91,17.06 25.88,81.21l69.82 67.77c99.55,115.82 -75.24,58.45 96.41,142.93 43.82,-16.45 31.23,22.09 112.14,-140.81l90.57 36.88c72.46,-151.25 53.03,-46.14 105.12,-131.56 50.64,-83.08 -12.43,-59.28 69.66,-170.27l-235.09 -108.7 -137.53 275.09zm-411.95 1038.92l-278.38 -113.09c-22.46,0.84 -80.64,24.35 -57.58,-46.47l27.97 -57.02c-130.24,1.54 -89.86,2.42 -208.15,-56.33 71.67,-144.31 134.68,-188.25 141.15,-284.2 -25.23,22.74 -35.24,41.95 -46.8,52.95l-50.93 40.09c-23.69,15.03 -175.61,179.73 -196.57,212.78 -63.59,100.24 -53.13,204.78 -133.68,303.03 142.24,110.89 504.74,182.51 693.05,275.73l-143.59 399.66 364.62 141.17c19.25,-96.43 47.67,-205.09 107.98,-278.9 -7,-61.27 -1.22,-56.87 30.16,-127.54l88.68 19.77 85.12 18.7 107.1 -310.71 -157.52 -78.47 104.56 -302.86 52.9 -152.49c-3.34,-8.9 -6.56,-21.56 -9.72,-26.81 -67.26,-111.51 70.9,-29.9 -33.38,-18.11l-173.15 415.55c-4.26,1.68 -11.58,3.97 -15.71,5.9l-36.49 32.3 67.45 54.56c-27.37,46.95 -29.49,39.83 -41.09,90.47 -43.08,188.17 35.92,130.49 48.84,138.45 99.95,61.69 79.35,-22.24 36.21,80.69 -63.68,-19.58 -63.84,-38.2 -152.37,-28.41 -33.21,50.11 -102.67,162.8 -104.81,165.53 -4.03,5.13 -21.74,25.31 -28.01,36.67 -2.65,4.8 -5.23,10.21 -7.6,15.35l-29.87 99.8c-11.91,-58.42 10.47,-56.98 67.35,-77.81 -45.74,93.76 -40.41,79.5 -44.16,183.64 -99.02,-65.57 -69.75,-59.81 -186.64,-99.62l81.98 -165.08 -69.33 -12.87 214.63 -512.08c-33.1,-19.22 -21.01,-11.36 -51.38,-20.36 -40.43,-11.98 35.33,15.6 -62.84,-13.56zm-335.96 -159.56c-23.06,70.82 35.12,47.31 57.58,46.47l-43.39 -24.23 21.43 -39.59c-38.69,8.11 -1.28,-44.06 -35.62,17.35z"/>
  <path fill="#FCFBFD" d="M10987.9 4102l115.74 11.25 41.49 -108.1 252.55 -704.92c-68.98,39.05 -572.49,600.83 -639.82,704.16 97.26,32.17 144.51,41.68 230.04,97.61z"/>
  <path fill="#FCFBFD" d="M14480.96 4504.14l-515.25 583.14 -21.43 39.59 43.39 24.23 278.38 113.09 62.07 -150.96 191.01 -521.67 24.21 -125.38c-58.54,55.22 -35.2,26.57 -62.38,37.96zm0 0c27.18,-11.39 3.84,17.26 62.38,-37.96l-24.21 125.38 55.21 -157.99c-63.16,4.89 -48.61,11.14 -93.38,70.57z"/>
  <path fill="#3D3D3E" d="M11624.39 5938.02l-12.32 77.08c-42.74,-36.71 -31.64,-6.15 -29.97,-62.03 42.11,-95.62 38.76,-220.53 41.29,-332.82l-112.73 -39.21c-59.02,100.04 -140.24,358.5 -190.56,498.34 -38.19,106.13 -55.81,88.61 24.58,137.82l63.15 -90.34c10.97,-26.57 24.49,-77.21 35.09,-107.99 24.93,-72.37 46.93,-142.64 86.85,-207.28 -41.84,377.75 -81.01,438.15 58.3,494.24 71.62,-145.36 94.01,-312.23 177.83,-443.61 -14.58,-99.86 79.31,-108.29 17.37,-195.01 -89.67,-9.06 -18.43,-40.2 -75.07,35.95l-83.81 234.86z"/>
  <path fill="#3E3C42" d="M13829.71 6726.71c5.62,32.52 38.47,-25.54 -15.5,83.96l-18.75 -72.38c28.02,-75.05 44.48,-252.08 33.53,-335.95 -146.96,-69.39 -106.93,-63.49 -214.67,228.85l-105.88 292.86c-11.35,87.96 -44.68,28.77 44.39,81.93 5.16,-3.43 14.3,-15.6 13.62,-12.61 -0.66,2.95 10.24,-9.48 12.94,-13.12l115.38 -272.48c-0.12,-18.77 -13.86,7.39 6.01,-61 11.23,-38.69 12.42,-26.09 39.27,-57.75l5.72 88.63c-28.36,84.89 -25.37,135.6 -32.63,219.09 -11.91,137.4 -41.8,146.44 80.11,195.69 55.09,-95.42 91.99,-223.82 128.14,-331.24 83.12,-246.99 137.69,-256.55 50.67,-313.81 -5.5,2.24 -10.14,2.07 -15,9.6l-38.73 38.11c-6.11,9.25 -26.87,61.08 -31.18,73.61 -20.89,60.76 -25.27,94.88 -57.44,158.01z"/>
  <path fill="#3E3C42" d="M12983.08 6699.86c-116.91,-38.52 -50.82,-108.84 -11.17,-217.64 34.96,-95.91 48.29,-212.77 136.02,-246.1 52.74,40.1 52.19,21.5 33.13,98.51 -19.16,77.48 -114.28,319.09 -157.98,365.23zm-176.14 -0.22l160.8 104.05c146.9,-39.49 136.44,-55.48 203.22,-244.86 46.77,-132.64 117.87,-248.69 59.04,-354.28 -280.99,-277.67 -375.3,323.12 -423.06,495.09z"/>
  <path fill="#3E3C42" d="M13327.32 6829.07c-120.65,-73.15 51.31,-278.32 121.39,-564.04l-76.88 -32.45c-35.37,41.26 -255.74,519.94 -173.83,631.22 167.7,134.11 247.57,38.29 308.39,-131.19l117.71 -324.82c24.3,-103.27 39.74,-54.88 -33.08,-97.38 -152.43,54.13 -123.33,440.41 -263.7,518.66z"/>
  <path fill="#3E3C42" d="M10685.54 5325.35c-59.66,91.16 -192.39,413.45 -185.49,507.34 5.27,71.69 74.23,138.69 166.25,139.64 109.84,1.15 136.32,-112.82 179.59,-224.98l19.95 -88.9c-72.02,-38.54 -60.95,-41.35 -130.62,-37.08 -37.91,101.73 58.72,149.37 -69.26,249.19 -113.64,-47.71 -43.47,-121.87 -1.88,-236.61 27.87,-76.91 47.09,-183.76 113.24,-225.57 158.75,72.99 -44.14,68.73 82.24,167.54 58.5,-8.3 27.52,48.15 68.82,-64.18 46.05,-125.18 -57.71,-173.99 -129.84,-205.61 -61.1,2.42 -98.82,13.89 -113,19.22z"/>
  <path fill="#3E3C42" d="M10399 5495.53l-30.29 126.17 -99.84 -16.41c30.16,-78.45 79.48,-203.58 154.85,-239.48l-24.72 129.72zm-193.46 13.45l-59.02 127.4 -64.33 124.14c150.71,71.78 64.46,-10.54 156.35,-61.53l101.29 17 -9.75 133.57 76.24 34.55c56.3,-109.07 68.07,-293.41 99.28,-419.72l40.11 -208.46c-63.57,-61.67 -47.21,-40.41 -132.33,-75.74 -29.29,44.33 -64.42,108.01 -96.11,162.58l-111.73 166.21z"/>
  <path fill="#3E3C42" d="M10126.39 5295.14c-38.06,98.46 -31.09,93.97 -112.5,79.95 -15.58,-62.91 27.11,-157.22 62.36,-219.18 80.39,39.47 83.67,52.49 50.14,139.23zm-201.52 -95.04c20.93,172.46 -224.42,394.03 -86.23,480.28 57.03,-22.58 4.34,17.88 46.88,-34.46 42.12,-51.82 46.25,-106.28 75.07,-172.91 56.41,-3.84 150.51,2.22 201.15,0.36 56.79,-144.24 100.66,-202.55 84.33,-336.93l-235.91 -109.38 -85.29 173.04z"/>
  <path fill="#3E3C42" d="M10867.21 5831.89c6.02,58.08 -21.01,108.76 -47.9,177.87 68.31,57.3 172.08,84.06 261.77,105.48 63.18,-126.41 -19.36,-82.68 -128.95,-154.62l56.33 -156.05 104.79 22.23 50.01 -66.38c-66.38,-37.13 -144.33,-28.57 -113.05,-86.26l66.41 -145.33c100.02,37.21 111.66,73.17 175.88,14.78 -3.38,-32.96 18.19,-47.11 -104.09,-91.82 -46.22,-16.9 -94.89,-32.59 -142.96,-50.43 -74.41,134.18 -89.25,307.91 -178.24,430.53z"/>
  <path fill="#3D3D3E" d="M12464.71 6606.27c124.97,72.76 80.2,37.7 126.96,8.1l67.9 -202.17c130.29,-7.72 104.31,83.03 158.71,-39.93l-122.3 -74.95 68.91 -163.92c105.49,5.23 107.66,57.85 173.3,14.79 9.29,-79.61 33.37,-47.58 -67.61,-96.72 -42.75,-20.81 -112.35,-38.28 -149.63,-46.74l-46.95 58.45c-5.02,9.08 -22.88,57.06 -27.16,69.07 -44.64,125.2 -126.17,386.89 -182.13,474.02z"/>
  <path fill="#BCC7C1" d="M11411.44 6999.93c50.92,-77.36 29.67,-54.81 46.14,-153.19 104.25,79.12 81.33,9.25 15.94,156.42 -77.3,173.94 -129.66,416.37 -187.51,543.53l124.4 61.77 241.04 -660.08 -43.51 -42.62 -159.5 -55.67c-13.06,28.31 -23.89,44.71 -33.07,78.74 -18.71,69.37 -7.06,46.13 -3.93,71.1z"/>
  <path fill="#3E3C42" d="M12265.59 5979.48l-164.18 472.83 82.92 61.48 46.76 -128.89 118.11 -287.82 28.44 -117.17 89.71 28.45 21.47 -18.7c13.84,-22.97 12.98,-21.84 21.98,-48.04l-84.36 -46.31 -73.83 -43.82c-57.19,7.46 -91.65,-30.65 -153.56,0.53 -2.49,47.87 55.96,113.26 56.26,113.08 4.42,-2.8 8.28,8.85 10.28,14.38z"/>
  <path fill="#3A393D" d="M11786.07 5954.06l-26.62 75.09c76.14,-18.19 70.87,0.3 99.31,-180.57 36.21,102.26 16.73,-0.56 1.79,94.9 -7.09,45.29 -28.48,4.71 -19.02,94.85 16.74,-116.25 -5.43,-42.77 47.05,-113.94l67.76 -89.64c82.13,19.94 90.85,1.16 67.84,97.39 -9.94,41.59 -49.03,131.62 -66.54,173.88 80.43,-12.06 23.05,49.3 107.07,-178.8 15.67,129.7 -31.76,174.87 -66.78,247.25l-87.94 195.66 -44.92 10.4 16.41 16.98c172.69,-51.16 144.03,-261.69 249.64,-414.84 -6.25,-60.57 19.48,-88.56 -1.94,-147.03 -5.82,-15.89 -181.34,-288.77 -343.11,118.42zm171.57 151.96l-62.57 160.07c-30.36,39.18 -10.21,14.74 -46.52,31.13 -103.06,-70.13 -19.76,-104.51 30.07,-274.71l11.57 -78.77c3.21,-9.51 -0.77,-12.93 -1.61,-19.35 -52.48,71.17 -30.31,-2.31 -47.05,113.94 -9.46,-90.14 11.93,-49.56 19.02,-94.85 14.94,-95.46 34.42,7.36 -1.79,-94.9 -28.44,180.87 -23.17,162.38 -99.31,180.57l-77.5 251.21c34.36,41.12 58.78,81.09 123.17,104.53 70.73,22.81 37.74,22.19 59.95,-4.36l44.92 -10.4 87.94 -195.66c35.02,-72.38 82.45,-117.55 66.78,-247.25 -84.02,228.1 -26.64,166.74 -107.07,178.8z"/>
  <polygon fill="#A4ABA9" points="11437.54,7530.09 11535.36,7578.67 11753.1,6955.33 11624.91,6884.52 11607.94,6905.76 11651.45,6948.38 "/>
  <path fill="#434249" d="M12760.19 5366.07c62.5,-48.35 69.06,-32.92 126.69,-96.92 65.4,-72.63 56.07,-92.37 61.42,-110.21l6.64 -42.26c-35.88,19.43 -93.26,-10.71 -140.18,-41.58 -70.84,-46.57 -17.9,-128.73 -124.93,31.51 -55.77,83.49 -27.56,60.76 -194.04,82.15 135.08,63.23 148.18,87.61 281.36,98.1l-16.96 79.21zm736.38 -1974.39c-6,-69.05 14.53,-22.8 -44.96,-84.1 20.8,143.3 12.47,34.09 -28.05,56.24 -55.12,-58.64 -99.63,-51.58 -104.47,-122.79 -80.71,-40.09 -169.56,-110.33 -237.41,-79.29 -62.6,28.62 -86.05,85.48 -122.15,131.4l-47.13 53.17c318.11,36.23 80.31,-23.85 286.8,100.15 59.63,35.81 -20.75,-15.93 77.89,21.93 -0.41,40.86 -48.3,132.96 73.97,106.88 37.31,-7.95 50.99,-55.66 56.89,-67.49l33.99 -63.81c-35.29,32.99 9.53,34.96 48.2,71.09 -29.02,-79.45 -1.92,-29.48 -47.4,-94.45 39.04,-78.61 -7.56,-15.72 53.83,-28.93zm-1144.48 253.51c-36.37,94.18 -116.99,257.01 -101.95,336.58l85.95 -94.2c-15.66,57.75 -6.83,102.49 -84.45,170.53 5.46,2.26 17.54,-3.46 17.62,1.97 0.06,4.55 69.93,-6.02 114.91,16.7l-299.06 611.62c-3.46,76.81 -25.98,38.55 45.3,89.47 93.07,31.38 55.47,32.68 179.24,-218.15 54.93,-111.3 112.1,-168.81 93.99,-284.19l46.62 2.53 209.54 -514.58c55.09,-59.91 9.46,-33.06 80.4,-53.38 21.33,-72.66 34.04,-63.93 23.51,-127.33l-49.39 66.97c-11.61,-49.33 -15.75,-25.42 0.45,-92.59 15.87,-65.84 87.18,-125.28 92.29,-189.33 -42.62,-2.81 -52.66,-36.51 -121.62,102.34l-175.89 -87.32c-21.14,75.12 -35.19,181.52 -97.11,234.39 -68.37,58.39 45.5,32.06 -60.35,27.97zm899.62 933.45c42.88,-133.8 167.24,-362.39 156.04,-486.91 -69.72,81.23 -77.98,158.44 -95.23,256.89 -43.75,-97.76 -31.74,-4.2 -12.05,-101.03 17.99,-88.53 -4.48,-9.12 37.81,-46.04 -8.51,2.28 -17.67,6.38 -24.43,10.11 -6.17,3.39 -15.21,5.92 -21.84,10.12 -41.08,26.03 -27.32,19.07 -38.53,55.83 29.86,-28.15 14.19,79.44 1.52,-28.53 -21.23,-180.96 104,-142.62 9.73,-245.23l-67.47 133.86 -122.82 -27.64c57.04,-69.15 114.39,-127.93 111.1,-223.19 -2.39,-69.44 17.35,1.41 -16.43,-58.31l-140.82 473.67c-19.16,38.59 -93.29,174.52 -101.75,207.29 -27.71,107.26 46.99,120.55 17.46,58.1 -63.14,35.99 -40.49,-30.95 -87.18,97.16 -16.89,46.35 -6.27,63.73 -16.3,111.2 66.27,57.53 42.3,29.39 113.65,56.45 -65.78,134.73 -60.15,88.31 84.69,160.24 26.99,-92.78 93.34,-392.73 212.85,-414.04zm-491.52 787.43l16.96 -79.21c-133.18,-10.49 -146.28,-34.87 -281.36,-98.1 166.48,-21.39 138.27,1.34 194.04,-82.15 107.03,-160.24 54.09,-78.08 124.93,-31.51 46.92,30.87 104.3,61.01 140.18,41.58l-6.64 42.26c-5.35,17.84 3.98,37.58 -61.42,110.21 -57.63,64 -64.19,48.57 -126.69,96.92zm-408.1 -1720.88c105.85,4.09 -8.02,30.42 60.35,-27.97 61.92,-52.87 75.97,-159.27 97.11,-234.39l175.89 87.32c68.96,-138.85 79,-105.15 121.62,-102.34 -5.11,64.05 -76.42,123.49 -92.29,189.33 -16.2,67.17 -12.06,43.26 -0.45,92.59l49.39 -66.97c61.4,-79.16 100.88,-162.21 185.58,-171.15 89.57,-9.45 205.75,47.81 222.4,149.61 18.52,113.22 -116.61,427.4 -166.45,560.66l-311.63 865.91c-67.64,132.78 -121.64,114.82 -199.88,130.12 -43.17,31.03 -13.37,46.47 -182.54,-37.55l160.98 103.7c-177.46,41.75 95.24,13.94 -140.61,-13.08l-304.27 -16.17c32.16,-213.55 -77.47,9.05 -10.31,-243.96 -77.7,-38.59 -3.26,-16.84 -62.41,9.44 -48.06,143.39 50.83,271.48 149.81,386.13 130.61,85.01 214.65,131.7 364.39,158.44 196.15,35.01 192.01,-20.95 306.27,-22.09 127.68,-135.56 184.06,-97.44 293.59,-364.75 67.3,-164.21 114.96,-335.9 183.08,-499.38 -119.51,21.31 -185.86,321.26 -212.85,414.04 -144.84,-71.93 -150.47,-25.51 -84.69,-160.24 -71.35,-27.06 -47.38,1.08 -113.65,-56.45 10.03,-47.47 -0.59,-64.85 16.3,-111.2 46.69,-128.11 24.04,-61.17 87.18,-97.16 29.53,62.45 -45.17,49.16 -17.46,-58.1 8.46,-32.77 82.59,-168.7 101.75,-207.29l140.82 -473.67c33.78,59.72 14.04,-11.13 16.43,58.31 3.29,95.26 -54.06,154.04 -111.1,223.19l122.82 27.64 67.47 -133.86c94.27,102.61 -30.96,64.27 -9.73,245.23 12.67,107.97 28.34,0.38 -1.52,28.53 11.21,-36.76 -2.55,-29.8 38.53,-55.83 6.63,-4.2 15.67,-6.73 21.84,-10.12 6.76,-3.73 15.92,-7.83 24.43,-10.11 -42.29,36.92 -19.82,-42.49 -37.81,46.04 -19.69,96.83 -31.7,3.27 12.05,101.03 17.25,-98.45 25.51,-175.66 95.23,-256.89 136.2,-201.38 206.73,-575.97 88.82,-700.05 -61.39,13.21 -14.79,-49.68 -53.83,28.93 45.48,64.97 18.38,15 47.4,94.45 -38.67,-36.13 -83.49,-38.1 -48.2,-71.09l-33.99 63.81c-5.9,11.83 -19.58,59.54 -56.89,67.49 -122.27,26.08 -74.38,-66.02 -73.97,-106.88 -98.64,-37.86 -18.26,13.88 -77.89,-21.93 -206.49,-124 31.31,-63.92 -286.8,-100.15l47.13 -53.17c36.1,-45.92 59.55,-102.78 122.15,-131.4 67.85,-31.04 156.7,39.2 237.41,79.29 4.84,71.21 49.35,64.15 104.47,122.79 40.52,-22.15 48.85,87.06 28.05,-56.24 -14.45,-88.59 -186.73,-173.87 -294.92,-212.76 -127.75,-45.91 -256.25,-58.07 -354,-30.66 -265.88,74.57 -340.94,297.04 -450.6,581.03zm-101.95 336.58c-95.35,139.03 -132.72,326.07 -192.42,488.95 -49.66,135.48 -149.31,330.78 -103.15,449.57 59.15,-26.28 -15.29,-48.03 62.41,-9.44 -67.16,253.01 42.47,30.41 10.31,243.96l304.27 16.17c235.85,27.02 -36.85,54.83 140.61,13.08l-160.98 -103.7c169.17,84.02 139.37,68.58 182.54,37.55 -161.77,-65.22 -204.55,-119.01 -158.35,-283.15 33.25,-118.14 93.94,-256.56 134.99,-378.05 82.93,-245.39 173.97,-507.09 269.83,-746.62 -70.94,20.32 -25.31,-6.53 -80.4,53.38l-209.54 514.58 -46.62 -2.53c18.11,115.38 -39.06,172.89 -93.99,284.19 -123.77,250.83 -86.17,249.53 -179.24,218.15 -71.28,-50.92 -48.76,-12.66 -45.3,-89.47l299.06 -611.62c-44.98,-22.72 -114.85,-12.15 -114.91,-16.7 -0.08,-5.43 -12.16,0.29 -17.62,-1.97 77.62,-68.04 68.79,-112.78 84.45,-170.53l-85.95 94.2z"/>
  <path fill="#38373C" d="M11687.42 7465.12l-8.65 -4.31c-93.51,95.55 -51.96,47.67 -24.23,58.69 10.36,-19.01 21.32,-37.15 32.88,-54.38z"/>
  <path fill="#FEFEFE" d="M14133.6 6694.49c-30.68,110.71 -120.98,266.25 -114.72,372.46 163.08,54.63 128.97,-182.55 232.07,-312.6l-1.33 -33.43c-11.06,-90.76 7.49,-54.08 -60.98,-90.95 -33.06,13.48 -10.59,-33.52 -55.04,64.52z"/>
  <path fill="#EEEEF1" d="M11888.58 5924.39c0.84,6.42 4.82,9.84 1.61,19.35l-11.57 78.77c-49.83,170.2 -133.13,204.58 -30.07,274.71 36.31,-16.39 16.16,8.05 46.52,-31.13l62.57 -160.07c17.51,-42.26 56.6,-132.29 66.54,-173.88 23.01,-96.23 14.29,-77.45 -67.84,-97.39l-67.76 89.64z"/>
  <path fill="#F1F1F1" d="M12983.08 6699.86c43.7,-46.14 138.82,-287.75 157.98,-365.23 19.06,-77.01 19.61,-58.41 -33.13,-98.51 -87.73,33.33 -101.06,150.19 -136.02,246.1 -39.65,108.8 -105.74,179.12 11.17,217.64z"/>
  <path fill="#D6D9D9" d="M11411.44 6999.93c-86.35,112.96 -113.41,297.35 -166.27,434.62l67.97 33.76c57.85,-127.16 83.08,-291.21 160.38,-465.15 65.39,-147.17 88.31,-77.3 -15.94,-156.42 -16.47,98.38 4.78,75.83 -46.14,153.19z"/>
  <path fill="#424246" d="M14033.51 6716.62c68.73,-75.82 58.7,-71.57 78.56,-173.29l-56.91 194.91c40.67,-94.3 18.31,-88.24 87.09,-157.39 -86.74,174.65 -24.8,37.85 -8.65,113.64 44.45,-98.04 21.98,-51.04 55.04,-64.52 68.47,36.87 49.92,0.19 60.98,90.95l1.33 33.43 41.3 -51.04c-0.54,-1.76 5.02,-66.01 -4.02,9.59 -6.91,57.72 -8.55,3.38 50.8,-65.51 8.67,-52.27 -32.11,-72.32 -86.3,-98.17 -61.72,-29.45 -107.76,-38.44 -159.12,-39.91 -16.62,35.65 -28.46,60.82 -41.48,99.26 -3.18,9.39 -15.09,49.56 -16.75,58.58 -9.35,50.77 -3.47,30.15 -1.87,49.47zm217.44 37.73c-103.1,130.05 -68.99,367.23 -232.07,312.6 -6.26,-106.21 84.04,-261.75 114.72,-372.46 -16.15,-75.79 -78.09,61.01 8.65,-113.64 -68.78,69.15 -46.42,63.09 -87.09,157.39l56.91 -194.91c-19.86,101.72 -9.83,97.47 -78.56,173.29 -78.42,98.87 -80.36,303.66 -172.11,382.14 89.09,54.87 187.52,81.38 274.83,97.39 75.98,-78.81 201.62,-384.65 213.39,-459.39 17.54,-111.22 5.57,-46.54 -10.59,-89.37 -59.35,68.89 -57.71,123.23 -50.8,65.51 9.04,-75.6 3.48,-11.35 4.02,-9.59l-41.3 51.04z"/>
  <path fill="#3E3C42" d="M10902.24 4738.18l-70.02 124.94 363.4 126.34 53.19 -128.13 -76.68 42.26c-40.38,17.11 31.45,28.22 -56.07,7.31l-120.6 -82.07c54.83,-10.94 4.64,-13.86 69.65,2.35 88.4,22.03 18.71,40.11 90.92,52.83l-89.08 -55.4c-96.41,-73.11 -78.09,-30.54 -167.13,-47.39 39.2,-71.31 11.68,-56.84 76.35,-91.13 88.06,-46.67 -8.3,0.63 46.2,10.29 -17.23,-26.37 -35.07,-37.87 -68.35,-81.09 -19.86,108.25 10.29,47.26 -51.78,118.89zm242.89 -733.03l-41.49 108.1 -115.74 -11.25 99.36 63.37c-56.4,13.28 -44.32,25.14 -138.73,-21.75 55.76,2.74 66.29,18.15 118.32,54.97 -86.24,54.27 -29.13,-11.03 -83.23,80.76 -141.73,-69.21 -64.71,-66.09 -132.45,28.75 35.58,45.81 148.28,95.36 149.98,151.47l-25.55 37.3c-18.79,36.16 -36.29,73.76 -50.26,112.67 -9.21,25.6 -16.36,47.91 -21.08,74.56 -11.7,66.22 -6.37,23.78 -2.02,54.08 62.07,-71.63 31.92,-10.64 51.78,-118.89 33.28,43.22 51.12,54.72 68.35,81.09 -54.5,-9.66 41.86,-56.96 -46.2,-10.29 -64.67,34.29 -37.15,19.82 -76.35,91.13 89.04,16.85 70.72,-25.72 167.13,47.39l89.08 55.4c-72.21,-12.72 -2.52,-30.8 -90.92,-52.83 -65.01,-16.21 -14.82,-13.29 -69.65,-2.35l120.6 82.07c87.52,20.91 15.69,9.8 56.07,-7.31l76.68 -42.26c21.83,-72.38 33.06,-67.22 24.81,-129.35 -27.47,29.1 -73.81,111.79 -75.31,114.28 -1.5,-164.54 96.99,-143.65 8.56,-217.31 -2.51,-2.09 -10.46,-5.02 -14.05,-9.36 54.85,-7.1 63.81,0.01 106.44,-41.68 -1.71,-5.79 -3.92,-19.33 -7.37,-16.58 -3.27,2.61 -5.53,-12.53 -6.31,-16 -32.98,-146.99 -18.1,56.49 -6.93,-43.11l72.29 -200.06c49.78,-71.39 -40.98,2.24 61.61,-32.24 4.05,-1.36 12.49,-2.52 18.4,-4.76 -0.01,-0.04 -81.91,-75.89 36.24,-195.68 59.41,-60.25 5.79,-31.98 83.42,-52.04 35.45,-109.52 8.26,-46 3.26,-81.54l-69.25 48.53 338.18 -919.15c-59.52,-65.02 -68.94,-57.75 -151.82,-98.91l42.39 -85.37 -113.59 -56.41 -145.97 270.07 -152.63 -73.64 -84.14 121.58c64.36,31.42 138.76,62.9 192.24,103.82 113.74,87.04 52.62,17.67 168.21,75.08 -65.39,131.69 -108.33,272.92 -213.99,375.73 -29.36,28.58 6.48,-16.6 -43.58,51.57 -138.9,189.12 -77.94,236.46 -166.32,425.77l-9.22 -51.01c-0.93,-9.09 -1.76,-13.85 -2.42,-23.41 -0.6,-8.78 -0.11,-13.27 -0.4,-21.63l3.57 -73.37zm404.32 -1357.77c-42.91,63.69 -25.58,51.18 -82.12,86.2 -146.69,197.39 -440.33,490.84 -618.14,678.83 -364.01,384.82 -393.32,363.57 -542.15,779.99 119.85,99.49 418.49,148.51 575.33,233.98 51.68,-13.24 63.99,4.56 118.78,33.19 -1.7,-56.11 -114.4,-105.66 -149.98,-151.47 67.74,-94.84 -9.28,-97.96 132.45,-28.75 54.1,-91.79 -3.01,-26.49 83.23,-80.76 -52.03,-36.82 -62.56,-52.23 -118.32,-54.97 94.41,46.89 82.33,35.03 138.73,21.75l-99.36 -63.37c-85.53,-55.93 -132.78,-65.44 -230.04,-97.61 67.33,-103.33 570.84,-665.11 639.82,-704.16l-252.55 704.92 -3.57 73.37c0.29,8.36 -0.2,12.85 0.4,21.63 0.66,9.56 1.49,14.32 2.42,23.41l9.22 51.01c88.38,-189.31 27.42,-236.65 166.32,-425.77 50.06,-68.17 14.22,-22.99 43.58,-51.57 105.66,-102.81 148.6,-244.04 213.99,-375.73 -115.59,-57.41 -54.47,11.96 -168.21,-75.08 -53.48,-40.92 -127.88,-72.4 -192.24,-103.82l84.14 -121.58 152.63 73.64 145.97 -270.07 113.59 56.41 -42.39 85.37c82.88,41.16 92.3,33.89 151.82,98.91l-338.18 919.15 69.25 -48.53c81.72,-77.86 196.16,-478.4 245.26,-616.88 56.42,-159.12 193.36,-446.52 199.02,-607.91l-373.65 -135.35 -75.05 71.62zm-275.83 2084.6l77.22 -134.04c49.55,-14.84 -20.4,-16.84 67.57,-3.69 39.08,5.85 56.84,15.3 96.43,19.83l37.16 -92.53 79.6 -198.16 -167.42 -75.48 86.43 -230.47c-77.63,20.06 -24.01,-8.21 -83.42,52.04 -118.15,119.79 -36.25,195.64 -36.24,195.68 -5.91,2.24 -14.35,3.4 -18.4,4.76 -102.59,34.48 -11.83,-39.15 -61.61,32.24l-72.29 200.06c-11.17,99.6 -26.05,-103.88 6.93,43.11 0.78,3.47 3.04,18.61 6.31,16 3.45,-2.75 5.66,10.79 7.37,16.58 -42.63,41.69 -51.59,34.58 -106.44,41.68 3.59,4.34 11.54,7.27 14.05,9.36 88.43,73.66 -10.06,52.77 -8.56,217.31 1.5,-2.49 47.84,-85.18 75.31,-114.28z"/>
  <path fill="#F5F3F5" d="M10013.89 5375.09c81.41,14.02 74.44,18.51 112.5,-79.95 33.53,-86.74 30.25,-99.76 -50.14,-139.23 -35.25,61.96 -77.94,156.27 -62.36,219.18z"/>
  <path fill="#9B9B9C" d="M10998.3 1910.46c87.74,39.66 216.95,96.49 296.66,88.86 -49.65,-22.12 -97.85,-39.97 -149.31,-59.84 -17.45,-6.74 -57.66,-23.44 -73.78,-27.29 -97.72,-23.34 -37.35,-7.83 -73.57,-1.73z"/>
  <path fill="#FEFEFE" d="M10368.71 5621.7l30.29 -126.17c-55.24,15.22 -7.33,-12.62 -57.58,25.06 -10.5,7.87 -29.03,40.37 -36.67,52.43 23.28,37.16 -74.22,7.69 63.96,48.68zm0 0c-138.18,-40.99 -40.68,-11.52 -63.96,-48.68 7.64,-12.06 26.17,-44.56 36.67,-52.43 50.25,-37.68 2.34,-9.84 57.58,-25.06l24.72 -129.72c-75.37,35.9 -124.69,161.03 -154.85,239.48l99.84 16.41z"/>
  <path fill="#9E9DA1" d="M12134.39 2237.44c98.74,47.1 205.99,90.69 283.67,86.66 -55.04,-26.37 -97.82,-44.98 -150.38,-63.31 -11.93,-4.16 -69.41,-22.76 -79.17,-24.58 -40.09,-7.52 -30.11,-2.24 -54.12,1.23z"/>
  <path fill="#9B9B9C" d="M8649.36 5403.67c23.63,-52.11 46.12,-100.3 63.77,-151.12 4.19,-12.06 21.51,-68.13 23.32,-78.5 7.04,-40.39 2.03,-27.83 -1.87,-52.58 -23.29,51.7 -39.76,103.55 -61.19,159.26 -7.85,20.43 -19.67,46.38 -23.75,66.57 -15.62,77.49 -2.14,27.25 -0.28,56.37z"/>
  <path fill="#97989A" d="M14681.53 7916.68c51.96,23.57 97.57,38.39 151.01,58.38 28.01,10.49 39.76,17.74 70.12,24.41 51.1,11.22 44.79,3.23 58.33,2.76 -86.93,-39.95 -201.4,-92.63 -279.46,-85.55z"/>
  <path fill="#A09FA2" d="M14542.03 7939.37c44.67,21.29 79.15,36.29 126.09,54.28 0.46,0.17 48.22,18 49.29,18.24 70.55,15.88 54.99,4.21 72.95,2.51 -44.35,-19.73 -89.77,-39.04 -136.1,-55.14 -15.22,-5.29 -38.69,-13.87 -53.65,-17.09 -58.88,-12.69 -41.69,-3.49 -58.58,-2.8z"/>
  <path fill="#A6A5A9" d="M13508.59 2799.23c51.34,25.68 87.19,38.24 142.55,58.28 6.96,2.52 46.73,17.88 51.79,19.08 126.8,30.16 12.5,7.76 74.09,4.53 -46.16,-20.06 -91.57,-39.01 -137.98,-56.32l-112.87 -27.2c-4.39,-0.27 -11.71,1.02 -17.58,1.63z"/>
  <path fill="#939294" d="M8603.02 5752.09l13.91 -33.01c10.44,-34.22 26.32,-70.15 35.55,-100.74l12.79 -95.83c-18.8,39.95 -39.79,81.44 -54.51,123.35 -7.24,20.59 -10.96,26.92 -13.84,49.38 -5.29,41.26 0.53,29.42 6.1,56.85z"/>
  <path fill="#A2A2A4" d="M12884.44 2498.37c34.83,16.07 69.57,34.44 105.56,48.03 11.53,4.34 42.18,14.43 52.62,16.55 93.83,19 21.33,4.18 59.38,4.69 -40.36,-20.67 -81.99,-43.66 -125.23,-58.59 -29.16,-10.07 -17.92,-7.01 -52.56,-12.44l-39.77 1.76z"/>
  <path fill="#8E8E91" d="M12698.58 7284.28l317.07 96.86c-60.74,-30.82 -111.19,-44.05 -176.78,-68.09l-122.23 -29.87c-0.52,-5.73 -12.05,0.67 -18.06,1.1z"/>
  <path fill="#8E8E91" d="M11664.63 2143.27c51.95,23.93 99.51,40.72 154.38,60.57l125.15 31.67c4.93,0.48 12.78,0.08 19.17,0.03l-298.7 -92.27z"/>
  <path fill="#A6A5A9" d="M11467.33 2733.58c56.54,-35.02 39.21,-22.51 82.12,-86.2 -31.71,21.13 18.9,-36.98 -44.48,33.25 -34.04,37.71 -12.28,14.67 -37.64,52.95z"/>
  <path fill="#373435" d="M11108.68 7290.51c-7.13,87.13 60.33,31.27 101.36,240.78 3.98,20.35 13.49,114.03 20.82,126.23 32.85,54.63 101.67,31.36 110.47,-29.25 11.25,-77.49 -40.42,-283.89 -127.09,-364.54 -46.15,-42.94 -101.25,-25.77 -105.56,26.78z"/>
  <path fill="#373435" d="M11778.32 7586.42c-84.2,79.35 -82.17,-36.55 -332.71,94.11 -24.33,12.69 -129.05,80.26 -147.72,82.75 -83.63,11.17 -116.42,-79.21 -61.02,-138.38 70.83,-75.66 326.94,-192.75 481.94,-169.76 82.53,12.25 110.29,83.41 59.51,131.28z"/>
 </g>
</svg>
