<?xml version="1.0" encoding="UTF-8"?>
<!DOCTYPE svg PUBLIC "-//W3C//DTD SVG 1.1//EN" "http://www.w3.org/Graphics/SVG/1.1/DTD/svg11.dtd">
<!-- Creator: CorelDRAW (Versión de evaluación) -->
<svg xmlns="http://www.w3.org/2000/svg" xml:space="preserve" width="258.795mm" height="258.795mm" version="1.1" shape-rendering="geometricPrecision" text-rendering="geometricPrecision" image-rendering="optimizeQuality" fill-rule="evenodd" clip-rule="evenodd"
viewBox="0 0 25879.5 25879.46"
 xmlns:xlink="http://www.w3.org/1999/xlink"
 xmlns:xodm="http://www.corel.com/coreldraw/odm/2003">
 <g id="Capa_x0020_1">
  <metadata id="CorelCorpID_0Corel-Layer"/>
  <g id="_2424435571936">
   <path fill="#F6F2D6" d="M1090.27 13667.53l1793.23 7712.86c82.54,-123.21 796.36,-1690.14 896.42,-1895.23 599.84,-1229.44 1192.78,-2550.82 1781.43,-3801.12 150.71,-320.09 293.84,-645.56 448.5,-955.96 79.4,-159.33 151.47,-316.75 224.14,-478.39 65.19,-145.01 169.6,-326.23 218.45,-471.27l-5362.17 -110.89z"/>
   <path fill="#D7ECD3" d="M8353.15 17619.72c268.46,537.87 625.6,1160.11 874.87,1674.8l874.12 1676.6c60.44,113 839.85,1588.86 867.98,1687.56 78.12,-57.16 189,-147.84 244.7,-211.7 75.42,-86.47 128.89,-105.79 219.38,-205.58l684.21 -628.02c41.52,-40.34 80.54,-60.48 123.33,-99.33 39.99,-36.31 57.37,-67.97 98.27,-104.22 43.39,-38.45 81.18,-59.66 123.91,-98.8 44.6,-40.84 61.36,-73.26 108.38,-112.68l455.05 -413.93c50.22,-39.91 77.72,-55.76 119.41,-102.87 47.83,-54.06 50.79,-58.78 103.1,-99.8 147.31,-115.48 547.43,-514.81 688.41,-624.26l555.43 -516.21c45.02,-46.11 69.53,-49.13 104.74,-97.24l-7113.41 -3403.28 868.12 1678.96z"/>
   <path fill="#AFC7E5" d="M3700.98 3358.42l-238.95 96.81c36.69,57.02 33.69,42.25 81.68,81.6l2216.87 1996.71c126.45,115.98 402.78,337.4 509.23,452.21 53.79,58.02 73.45,52.37 174.22,158.44 35.36,37.22 52.15,45.28 91.79,75.08 67.5,50.75 93.76,97.47 164.41,149.7l2213.04 1982.81 -942.6 -6742.1c-48.58,62.29 -2986.91,1226.01 -3207.72,1316.5 -349.68,143.32 -717.38,278.61 -1061.97,432.24z"/>
   <path fill="#D7ECD3" d="M18656.5 3172.84l-4539.56 -1438.3c-62.83,11.16 -44.26,28.29 -42.29,118.2l51.68 2275.29c13.57,627.73 14.48,1864.4 54.33,2413.41l5666.62 -2979.42 -1190.78 -389.18z"/>
   <path fill="#D0EFE4" d="M25873.7 3064.81l0 -1598.99 -3320.2 -452.13 -98.18 -9.4 -1144.04 5708.03 1414.36 -1129.4c101.9,-80.1 186.13,-155.63 288.07,-229.73 99.38,-72.23 188.38,-152.35 287.52,-230.15 102.75,-80.63 188.55,-152.45 286.94,-230.6l1138.78 -913.2c199.83,-162.47 382.83,-304.56 573.03,-461.91 95.41,-78.94 186.88,-148.91 286.62,-230.88l287.1 -221.64z"/>
   <path fill="#A2E6D9" d="M21532.48 25885.26l3403.06 0 698.96 -904.49c74.68,-93.96 154.78,-213.08 239.2,-295.42l0 -1849.1 -5783.07 907.99 1263.69 1873.06c61.96,89.67 133.3,173.46 178.16,267.96z"/>
   <path fill="#EAD8D9" d="M16248.58 6251.09l1686.85 824.31c219.46,117.16 1593.62,758.52 1659.27,821.5l1166.69 559.24 632.02 -5086.48c-93.46,25.8 -2479.08,1381.45 -2584.97,1438.67l-1279.49 717.29c-214.57,124.49 -425.54,239.04 -638.41,359.29l-641.96 366.18z"/>
   <polygon fill="#D0EFE4" points="17407.05,16202.78 18637.42,13410.35 10479.9,13416.11 "/>
   <polygon fill="#EAD8D9" points="10781.34,24045.56 3247.83,22329.42 4448.29,25521.31 "/>
   <path fill="#EAD8D9" d="M11854.84 777.38c-68.06,393.62 -214.25,860.13 -313.63,1255.82 -105.19,418.78 -209.64,835.32 -314.81,1254.94 -75.61,301.61 -627.44,2379.71 -614.28,2492.06l3147.53 614.9 -1144.05 -5631.31 -157.43 -757.99 -407.09 0 -196.24 771.58z"/>
   <path fill="#FFC0AA" d="M5284.4 11164.23l3821.26 -1628.6 -1070.61 -896.9c-46.69,-42.54 -69.7,-57.22 -129.56,-110.27l-1201.34 -999.1c-99.4,-86.87 -171.61,-148.61 -269.07,-229.5 -87.37,-72.53 -172.99,-145.64 -263.85,-217.2l-1318.64 -1112.6c-1.17,-1.37 -4.63,-5.29 -6.73,-8.1 -46.57,60.32 83.62,1214.87 89.63,1284 28.23,324.82 313.59,3764.9 348.91,3918.27z"/>
   <path fill="#A2E6D9" d="M-5.76 9726.99l465.91 -456.16c269.23,-243.05 614.4,-665.61 906.96,-941.79 46.64,-44.03 83.81,-66.51 128.07,-112l778.84 -811.14c77.68,-80.1 159.6,-144.53 237.17,-224.72 109.44,-113.15 1008.7,-1060.08 1130.34,-1143.31l-61.37 -43.06c-1.34,-0.65 -52.87,-19.63 -53.81,-19.98l-1703.61 -643.71c-343.38,-131.7 -1571.4,-612.72 -1828.5,-687.79l0 5083.66z"/>
   <path fill="#E9C8C4" d="M11344.23 14260.17c-166.94,139.24 -211.78,203.44 -285.67,266.49 -53.7,45.82 -101.3,78.45 -151.07,126.87l-679.71 650.48c-53.67,47.76 -98.06,78.24 -151.63,126.34l-412.38 400.28c-53.52,46.63 -99.92,78.88 -151.43,126.54 -49.16,45.5 -74.26,87.7 -125.45,132.62 -53.85,47.26 -97.82,79.09 -151.53,126.44 -44.53,39.27 -80.52,95.08 -120.75,123.82 146.29,103.68 497.52,254.33 673.79,341.66 222.32,110.16 444.5,221.37 666.7,331.8l2679.61 1333.06c227.45,112.67 441.48,219.73 666.71,331.65 204.57,101.66 472.38,257.16 669.57,329.52 -193.71,-334.59 -553.78,-849.78 -780.76,-1199.37 -170.83,-263.11 -2252.86,-3451.27 -2346,-3548.2z"/>
   <path fill="#EAD8D9" d="M22813.4 14799.23l3060.3 4566.18 0 -5237.22 -3275.28 311.27c1.92,46.26 176.17,269.37 214.98,359.77z"/>
   <path fill="#FCD1C6" d="M18738.97 23349.77c-232.55,60.54 -536.84,184.11 -770.4,268.47 -1517.59,548.21 -3072,1071.2 -4592.08,1619.24l-574.44 201.79c-57.12,20.47 -143.21,41.68 -187.82,82.51l6497.57 247.15 -372.83 -2419.16z"/>
   <path fill="#A2E6D9" d="M11549.27 12484.86c225.91,-146.42 438.61,-290.07 669.4,-439.77l4011.97 -2647.21 -2698.37 -1040.39 -2662.4 4565.69 679.4 -438.32z"/>
   <path fill="#EAD8D9" d="M5979.94 18181.19l-56.64 698.04 -53.54 688.93 3518.62 539.86c-42.87,-113.37 -134.36,-213.25 -201.68,-309.53l-1001.6 -1476.03c-599.7,-862.61 -1197.64,-1781.66 -1798.13,-2638.12l-151.26 -217.93c-66.21,-97.14 -23.96,17.24 -36.76,-52.17 -1.03,-5.56 -4.98,-6.63 -6.87,-9.91l-212.14 2776.86z"/>
   <path fill="#D7ECD3" d="M15952.06 21217.78l-562.03 -432.02c-66.03,-50.19 -120.2,-105.28 -193.66,-135.9 -2.02,142.49 -576.38,2484.49 -660.21,2846.23 -68.04,293.65 -178.26,664.31 -218.98,960.34l4128.64 -1327.84c-204.44,-180.58 -968.82,-746.07 -1244.15,-956.59l-941.66 -721.9c-101.95,-79.82 -202.12,-159.51 -307.95,-232.32z"/>
   <path fill="#A2E6D9" d="M17272.45 19242.52c85.06,75.49 930.7,1435.81 1068.97,1641.84 296.2,441.37 623.69,1002.64 917.23,1430.42 46.02,67.07 99,137.26 123.69,219.77 57.89,33.31 308.67,475.27 391.2,577.99l855.52 -826.54c81.4,-85.15 1039.52,-982.78 1085.91,-1055.96l-388.75 -225.89c-174.97,-66.15 -1990.72,-1103.06 -2251.45,-1241.07 -284.41,-150.54 -2137.44,-1216.75 -2240.07,-1227.57 67.32,120.2 427.03,632.8 437.75,707.01z"/>
   <path fill="#A2E6D9" d="M13704.48 24456.02c205.27,-715.15 1244.85,-4893.88 1305.42,-4980.91 -70.69,30.18 -204.21,162.7 -258.11,224.01 -162.37,184.7 -295.72,288.64 -470.44,453.87 -81.08,76.68 -145.99,157.82 -227.05,234.65l-375.09 346.28c-41.67,40.39 -63.07,75.68 -103.63,117.75 -152.59,158.3 -331.26,286.59 -478.59,446.11l-947.35 919.44c-93.28,85 -136.34,133.19 -228.56,233.4l-701.61 676.82 2485.01 1328.58z"/>
   <path fill="#FCD1C6" d="M18031.33 9756.26c55.66,30.28 736.88,937.48 784.96,1004.15l586.8 762.39c52.64,71.1 165.01,191.15 179.01,255.55 19.08,15.58 14.32,11.17 33.17,30 82.47,82.4 276.5,374.84 338.73,426.94 -2.83,-138.99 -87.48,-434.48 -119.11,-591.21 -76.64,-379.59 -709.79,-3415.17 -751.44,-3461.69 -9.22,-10.28 -405.1,-213.56 -463.3,-242.98l-3227.72 -1675.37 -11.21 -2.31c35.11,88.67 259.9,354.53 329.12,450.86 56.89,79.18 110.7,143.61 169.51,218.49l1491.1 1947.48c61.84,83.15 110.35,141.07 170.32,217.53 72.57,92.54 466.31,594.96 490.06,660.17z"/>
   <path fill="#FCD1C6" d="M18615.36 11792.35c-59.53,-27.61 -109.63,-68.04 -156.88,-119.9l-406.67 -369.74c-70.32,-76.85 -75.21,-75.42 -145.67,-131.7 -56.1,-44.83 -75.99,-84.15 -129.41,-128.77l-277.2 -241.01c-58.85,-46.86 -82.12,-90.73 -139.83,-136.91 -206.77,-165.44 -457.84,-425.68 -683.6,-610.95 -53.9,-44.24 -74.61,-84.88 -129.43,-128.79 -49.57,-39.71 -105.19,-62 -128.26,-120.85 -72.77,-37.97 -32.09,-68.07 -117.96,149.14 -26.95,68.19 -51.89,130.11 -79,198.29 -154.09,387.52 -1071.69,2640.52 -1102.51,2785.64l4257.01 -426.63c-33.71,-35.69 -59.43,-53.36 -93.06,-90.69 -45.37,-50.38 -44.89,-52.92 -93.93,-90.78l-573.6 -536.35z"/>
   <path fill="#F6F2D6" d="M22585.02 20964.53c-50.26,93.54 -473.03,498.73 -580.68,607.79l-1183.37 1182.71c-191.83,195.82 -379.16,406.31 -579.92,590.95l-143.64 149 4484.19 -916.71c-168.52,-404.13 -322.98,-890.11 -464.08,-1333.46l-414.33 -1323.58c-35.4,-69.33 -1.55,-17.97 -36.91,-51.37 -57.31,85.58 -1027.31,1069.27 -1081.26,1094.67z"/>
   <path fill="#F1F1BD" d="M5771.68 5.8l-2195.93 0 -625.25 3232.62 2799.21 -1840.22c151.83,-99.38 839.15,-576.69 943.74,-613.9 -60.22,-86.04 -249.27,-218.16 -331.86,-287.88l-559.33 -458.91c-22.44,-21.42 -12.86,-8.42 -30.58,-31.71z"/>
   <path fill="#FCD1C6" d="M-5.76 19184.98l0 861.51 2598.22 1627.59 -1000.89 -4654.89c-68.4,42.13 -171.21,213.83 -219.66,280.28l-591.68 812.8c-129.6,178.43 -258.93,354.93 -396.29,546.4l-389.7 526.31z"/>
   <path fill="#AFC7E5" d="M21302.28 10164.91c-158.05,-92.57 -275.21,-259.14 -392.96,-388.56 -125.38,-137.8 -260.64,-252.03 -385.57,-390.81l-666.04 -702.11c-88.45,-98.04 -66.73,-70.09 -104.74,-76.67l918.87 5413.55c3.75,-3.47 8.59,-8.14 11.01,-10.68l216.06 -326.64c72.42,-118.22 136.73,-225.6 212.07,-342.57l1258.25 -2040.08c-40.86,-70.15 -174.26,-175.41 -276.4,-285.78 -93.25,-100.77 -170.59,-190.79 -264.87,-290.07 -129.04,-135.86 -460.88,-416.63 -525.68,-559.58z"/>
   <polygon fill="#D0EFE4" points="-5.76,10358.68 -5.76,11198.35 4637.99,9943.46 1787.32,8569.83 "/>
   <path fill="#FCD1C6" d="M25873.7 21038.11l0 -779.79 -2421.58 -3618.71 -1820.79 567.23 386.17 370.75c51.9,46.77 93.49,63.62 142.84,116.74l2380.6 2148.23c60.08,45.67 75.86,81.54 131.05,127.18l269.04 230.83c55.09,47.61 69.35,80.06 131.47,126.81l389.99 349.52c79.22,59.17 320.19,306.79 411.21,361.21z"/>
   <path fill="#E9C8C4" d="M-5.76 414.87l328.15 316.29c114.21,108.49 215.09,226.1 323.78,341.85 106.05,112.94 203.5,226.37 314.82,332.35 31.61,30.1 57.93,45.05 90.98,75.05 162.77,147.79 473.57,522.93 639.49,673.28 343.8,311.55 550.91,577.85 908.92,913.39l652.92 -3061.28 -3259.06 0 0 409.07z"/>
   <path fill="#F1F1BD" d="M19013.53 19283.59c79.68,75.91 2947.63,1347.82 3321.3,1528.52l-997.4 -3700.16c-40.88,46.8 -89.95,78.87 -140.44,122.42l-1016.38 961.46c-91.32,109.81 -198.47,165.35 -289.42,265.42 -154.76,170.28 -413.67,385.81 -582.12,545.53 -52.61,49.89 -78.88,93.58 -134.46,142.15 -56.82,49.64 -105.45,90.77 -161.08,134.66z"/>
   <path fill="#F6F2D6" d="M5306.4 18891.54l-110.27 -650.36c-0.75,-65.21 -14.97,-40.52 -17.71,-48.34l-1928.38 3731.68 2616.5 499.15 -560.14 -3532.13z"/>
   <path fill="#F6F2D6" d="M10428.31 12583.69c68.44,-90.94 836.28,-1945.99 905.42,-2106.9 122.24,-284.56 784.95,-1890.5 896.69,-2106.97 -106.84,-5.37 -2602.13,526.59 -2739.79,559.32 -9.04,80.28 697.5,2697.4 827.25,3214.13 25.44,101.35 104.74,354.27 110.43,440.42z"/>
   <path fill="#F6F2D6" d="M18081.93 18495.65c72.55,10.96 435.86,302.28 545.52,357 91.83,-63.82 181.38,-132.43 279.08,-212.04l1430.59 -1120.27c88.89,-69.33 185.89,-141.83 280.06,-219.13l288.93 -238.9 -2075.23 -126.71 -3281.5 -204.47 2226.47 1538.92c63.63,43.57 257.53,161.69 306.08,225.6z"/>
   <path fill="#AFC7E5" d="M3771.23 13105.43l3848.73 294.48 -1974.5 -1428.9c-47.67,-36.24 -1890.28,-1381.88 -2001.19,-1435.42l126.96 2569.84z"/>
   <path fill="#EAD8D9" d="M6019.42 19871.66l1001.02 3030.41c326.32,-321.63 581.1,-602.09 898.15,-904.4 101.72,-96.99 190.75,-200.55 287.43,-304.31l594.74 -606.78c102.09,-109.93 190.75,-207.52 294.56,-315.61l227.84 -214.6c47.98,-49.63 41.57,-34.44 67.76,-96.58 -555.07,-77.82 -1140.2,-185.64 -1693.1,-283.22 -400.35,-70.66 -1366.04,-266.29 -1678.4,-304.91z"/>
   <path fill="#AFC7E5" d="M22555.07 10122.43l500.37 428.33c77.01,71.21 455.25,354.11 476.47,421.32 69.26,25.28 143.24,95.14 206.2,153.26l572.69 481.23c38.56,29.25 47.15,45.75 87.71,78.15l382.17 320.58c111.04,89.1 166.41,152.25 298.15,243.81 147.92,-205.06 261.04,-442.59 398.88,-660.88 86.89,-137.62 310.23,-566.44 395.99,-649.59l0 -854.19 -3731.63 -311.78c34.07,28.51 63.01,60.79 101.28,92.7l311.72 257.06z"/>
   <path fill="#D0EFE4" d="M1987.79 8338.97c27.08,25.2 0.58,8.87 48.17,32.04 116.16,56.54 2754.82,888.3 2782.42,893.81 -35.06,-344.97 -210.82,-1246.84 -278.18,-1659.64 -38.39,-235.32 -276.15,-1525.64 -268.95,-1644.97 -60.41,42.02 -87.23,83.69 -156.71,143.64 -53.95,46.55 -95.69,99.63 -142.18,153.76l-570 594.21c-100.05,99.6 -167.41,211.3 -273.46,300 -121.84,101.92 -181.12,199.96 -284.85,307 -53.89,55.6 -99.16,84.54 -151.58,143.61l-279.22 293.67c-138.57,131.03 -261.33,316.83 -425.46,442.87z"/>
   <path fill="#D0EFE4" d="M9490.88 8352.34l1656.94 -334.98c-27.63,-97.72 -1905.12,-3673.28 -2097.5,-4035.03 -54.29,-102.08 -94.96,-187.84 -151.43,-293.11 -27.86,-51.94 -49.77,-92.93 -76.72,-144.07l-86.6 -145.5 755.31 4952.69z"/>
   <path fill="#DDBED0" d="M14397.25 800.58c-38.4,40.6 -197.07,404.36 -241.63,501.21 -54.19,117.8 -77.84,110.4 -57.07,174.06l1565.28 200.13 1470.29 196.15 -508.66 -1866.33 -1869.93 0 -358.28 794.78z"/>
   <path fill="#F6F2D6" d="M10211.5 803.1c-48.84,49.2 -108.73,114.23 -156.55,163.93 5.67,730.07 72.35,1519.5 108,2255.13 18.26,376.67 36.65,750.97 54.99,1127.7 13.57,278.88 10.76,902.78 65.84,1137.8l1177.78 -4718.82 189.93 -763.04 -588.86 0c-68.27,79.35 -130.98,143.87 -211.25,209.57 -40.86,33.44 -73.73,57.07 -108.92,94.95 -43.47,46.78 -51.55,64.76 -97.4,105.04l-433.56 387.74z"/>
   <path fill="#EAF5DF" d="M13121.03 7767.43c293.66,140.37 679.47,285.37 994.59,410l1994.78 815.06c149.35,61.67 910.1,388.77 989.19,394.24l-695.61 -1001.86c-81.46,-111.9 -156.39,-223.91 -225.45,-329.48l-931.05 -1331.41 -2126.45 1043.45z"/>
   <path fill="#DDBED0" d="M21949.52 14381.49l-3153.26 161.82 287.05 275.46c72.59,58.23 82.06,64.39 152.29,143.21 46.85,52.59 95,84.23 149.22,128.53 63.81,52.14 88.6,95.74 147.18,148.09 52.46,46.9 102.66,75.97 152.06,125.99l440.17 409.88c62.34,50.93 80.95,86.06 137.41,139.31 51.36,48.45 101.08,76.49 152.48,125.65 184.68,176.67 532.94,516.19 735.27,675.22l800.13 -2333.16z"/>
   <path fill="#FCD1C6" d="M15820.88 20641.92c55.4,11.7 473.31,347.63 535.87,397.11 105.13,83.16 128.87,73.85 151.68,134.06 89.3,27.02 1798.42,1369.78 1987.37,1516.17 89.85,69.61 178.98,135.52 279.86,201.32l-172.3 -360.05 -1631.09 -3230.06c-95.66,42.03 -1431.74,1079.66 -1441.16,1094.65 29.03,36.23 114.02,94.96 147.07,120.94l112.69 92.32c19.83,19.81 13.51,12.94 30.01,33.54z"/>
   <polygon fill="#F6F2D6" points="10309.54,25885.26 11321.23,25885.26 12221.54,24050.63 8482.6,24991.46 "/>
   <path fill="#D0EFE4" d="M12361.9 14906.8c37.16,70.93 109.14,170.71 159.12,245.22 53.4,79.61 103.32,149.59 158.38,229.35 113.51,164.39 202.26,302.21 313.35,463.15l955.49 1410.88c96.81,149.82 892.32,1325.23 949.77,1375.61l-86.93 -2701.56 -2449.18 -1022.65z"/>
   <polygon fill="#EAF5DF" points="10063.92,12499.19 9405.19,9877.5 7175.49,10939.02 "/>
   <path fill="#E9C8C4" d="M24118.38 6050.59c52.93,73.18 96.18,115.27 150.38,181.49l458.85 475.6c115.66,-127.93 1064.53,-1689.57 1146.09,-1761.06l0 -1380.82 -423.3 360.48c-52.52,50.08 -78.11,57.38 -140.9,118l-1701.34 1459.82 435.24 492.46c36.78,42.94 29.34,50.04 74.98,54.03z"/>
   <polygon fill="#F6F2D6" points="151.63,4302.36 4467.21,5771.43 2957.02,3775.1 "/>
   <path fill="#EAD8D9" d="M-5.76 24152.3l0 931.5 1835.23 140.59 -5.64 -2549.59 -1599.47 1296.26c-59.13,50.34 -160.14,140.49 -230.12,181.24z"/>
   <path fill="#DDBED0" d="M-5.76 23412.43l1067.98 -766.11c190.39,-132.33 353.42,-255.86 537.94,-386.62l521.1 -386.03c-92.04,-47.26 -190.89,-122.57 -279.09,-183.98l-791.93 -539.11c-184.97,-129.5 -349.39,-237.35 -526.34,-360.63l-529.66 -352.82 0 2975.3z"/>
   <path fill="#F6F2D6" d="M23927.12 12585.78c-44.2,-28.41 -413.88,-653.64 -489.88,-771.59 -85.79,-133.12 -162.05,-262.98 -247.98,-398.83 -81.17,-128.33 -162.94,-260.64 -244.38,-399.62l-1448.69 2830.9 2635.37 -906.11c-55.73,-125.3 -147.73,-220.94 -204.44,-354.75z"/>
   <path fill="#EAD8D9" d="M18986.73 1250.74c40.21,83 121.08,203.09 168.14,279.87l527.38 858.89c90.42,143.81 650.21,1083.34 703.23,1128.51l-335.07 -2717.34 -98.59 -794.87 -1724.47 0 759.38 1244.94z"/>
   <path fill="#AFC7E5" d="M7267.3 15597.41c57.99,-63.12 98.29,-77.92 174.3,-158.34 62.48,-66.11 104.51,-77.46 176.81,-156.02 114.97,-124.93 922.54,-800.42 1053.3,-943.15l1033.96 -928.69 -2739.21 295.39 -65.75 2206.55 366.59 -315.74z"/>
   <path fill="#D7ECD3" d="M14706.05 12791l-101.47 -1757.37c-91.7,34.43 -2525.49,1689.57 -2878.76,1924.29l-185 144 3165.23 -310.92z"/>
   <path fill="#E9C8C4" d="M9606.61 21245.44c-112.15,99.05 -456.39,500.96 -497.35,538.1l-808.02 878.6 2810.91 1244.21 -1312.92 -2336.12c-33.8,-61.72 -59.69,-109.69 -92.76,-166.4l-74.57 -127.52c-22.51,-33.33 2.66,-4.78 -25.29,-30.87z"/>
   <polygon fill="#F1F1BD" points="1335.08,13409.63 3449.15,13405.5 2755.8,10822.48 "/>
   <polygon fill="#FAD9BF" points="-5.76,11582.86 -5.76,14584.95 1755.28,11330.51 "/>
   <path fill="#D0EFE4" d="M8433.35 1600.41c79.23,18.73 9.5,19.43 119.3,-78.62 56.72,-50.67 61.7,-43.96 127.65,-112.86 45.34,-47.37 78.78,-58.66 122.63,-99.92l489.94 -434.33c63.65,-56.83 50.26,-85.55 129.21,-101.96 67.18,-102.89 168.1,-159.23 213.08,-202.81l525.64 -472.1c41.14,-44.77 61.8,-53.4 94.46,-92.01l-3167.51 0 246.32 294.38c37.6,41.81 43.7,63 81.89,103.52 61.63,65.37 116.77,132.03 168.8,200.95 30.88,40.91 52.79,55.26 86.24,98.29 33.98,43.72 51.71,56.17 85.99,98.57l592.44 701.71c41.87,47.21 28,54.57 83.92,97.19z"/>
   <path fill="#E9C8C4" d="M22375.4 8536.38l153.2 137.92c34.14,31.45 51.21,36.13 83.71,64.94 35.28,31.27 36.55,41.19 75.92,71.36l967.23 818.97 1768.76 -1055.26 -2748.54 -472.31c-72.27,-12.15 -838.08,-124.49 -908.14,-170.67l-84.03 6.78c33.31,33.65 37.44,47.42 78.61,79.07l442.41 371.97c38.29,30.01 45.58,47.89 85.4,80.07 37.94,30.67 48.31,31.07 85.47,67.16z"/>
   <path fill="#AFC7E5" d="M-5.76 15632.25l0 2644.25c56.11,-34.05 283.42,-314.38 340.45,-369.6l985.99 -1079.45c-23.2,-76.81 -1140.35,-2069.03 -1178.56,-2108.78 -91.39,192.68 -55.1,723.18 -147.88,913.58z"/>
   <path fill="#FCD1C6" d="M19459.38 3109.03l390.69 155.61c-90.15,-173.29 -201.78,-332.75 -304.1,-499.25 -189.08,-307.68 -822.39,-1264.36 -939.21,-1493.3 -66.37,-58.15 -302.12,-505.94 -404.47,-620.5 -7.92,7.21 -12.31,9.87 -26.13,29.35l-787.49 1548.5 2070.71 879.59z"/>
   <path fill="#FFCEBB" d="M17970.65 16430.56l2771.28 290.01c-37.19,-55.43 -700.82,-585.6 -801.67,-670.01 -37.71,-31.56 -34.92,-32.69 -70.05,-59.17 -404.1,-304.59 -1035.86,-885.93 -1437.59,-1174.87l-461.97 1614.04z"/>
   <path fill="#F6F2D6" d="M15317.49 19982.82c57.52,-20.51 316.84,-194.07 383.49,-240.88l1109.29 -718.65 -370.18 -526.11c-165.74,-223.59 -1038.14,-1514.87 -1127.2,-1569.55l4.6 3055.19z"/>
   <path fill="#A2E6D9" d="M24334.23 7886.88l716.06 140.28 -677.38 -716.17c-168.03,-188.3 -259.22,-253.8 -461.91,-480.82 -42.33,-47.41 -71.41,-79.45 -114.84,-125.77 -46.53,-49.61 -74,-65.77 -125.97,-113.84 -114.56,-105.98 -348.08,-428.49 -478.22,-478.27l-1051.04 1344.21 2193.3 430.38z"/>
   <polygon fill="#D0EFE4" points="2287.1,25402.89 3729.19,25764.34 2506.03,22352.05 "/>
   <path fill="#F6F2D6" d="M23821.92 758.55l1095.54 204.3 789.45 148.48c-69.79,-169.55 -208.04,-378.92 -298.78,-548.15 -95.39,-177.91 -238.89,-389.84 -305.85,-557.38l-2514.78 0 -111.79 494.73 1346.21 258.02z"/>
   <path fill="#E9C8C4" d="M7267.09 12327.31c143.47,173.98 765.49,800.84 820.59,907.35l1969.19 -234.72 -3861.89 -1820.84 1072.11 1148.21z"/>
   <polygon fill="#FCD1C6" points="25873.7,13879.5 25873.7,12758.48 22006,14037.25 "/>
   <polygon fill="#DDBED0" points="21058.47,789 21704.27,2868.78 22091.27,715.32 22221.91,5.8 20817.03,5.8 "/>
   <path fill="#F1F1BD" d="M12081.47 8023.65c63.88,-27.75 1345.38,-1066.38 1442.46,-1154.08l-2570.26 -617.41c163.83,302.22 949.63,1495.42 1127.8,1771.49z"/>
   <path fill="#DDBED0" d="M19559.38 25885.26l1333.18 0c-108.19,-194.86 -1317.68,-1866.2 -1527.47,-2179.79 -78.49,-117.32 -159.4,-208.35 -227.08,-324.69l-5.8 30.54c-0.39,4.54 -1.36,10.32 -1.55,15.39l43.67 267.62c17.66,104.58 37.17,208.77 55.53,314.21 104.23,598.68 246.94,1305.5 329.52,1876.72z"/>
   <path fill="#DDBED0" d="M25873.7 22419.06l0 -767.79c-188.43,-152.08 -458.92,-494.77 -636,-676.05 -62.24,-63.72 -100.21,-86.17 -158.49,-155.21 -51.25,-60.69 -98.21,-126.03 -155.3,-177.91 -154.41,-140.34 -218.13,-251.77 -318.33,-330.15l231.23 2262.74 1036.89 -155.63z"/>
   <path fill="#EAD8D9" d="M-5.76 3324.9l0 133.6 2825.87 -0.08c-41.28,-31.08 -107.45,-76.58 -156.95,-99.33 -461.85,-304.73 -950.05,-577.63 -1413.76,-874.28 -196.89,-125.95 -118.27,-83.63 -400.1,132.23 -43.24,33.12 -35.24,30.37 -79.03,68.61l-776.03 639.25z"/>
   <path fill="#AFC7E5" d="M21495.64 16864.51c17.78,47.26 9.33,32.28 87.25,0.78 304.8,-123.22 1618.66,-614.1 1676.18,-666.34l-222.45 -342.94c-78.69,-119.21 -150.44,-219.68 -230.88,-341.31l-345.45 -523.68c-57.44,-87.47 -71.1,-141.51 -142.91,-163.07 -2.36,98.03 -340.44,873.52 -405.82,1032 -55.32,134.08 -378.5,960.35 -415.92,1004.56z"/>
   <path fill="#D7ECD3" d="M9719.36 15221.27c51.93,-40.86 105.2,-83.69 154.02,-123.81 28.8,-23.67 36.29,-35.27 68.43,-60.44l576.88 -477.18c60.18,-48.69 321.69,-256.92 354.17,-310.42l-1506.56 0c-73.37,54.04 -360.22,814.09 -417.83,958.62 -80.76,202.63 -359.09,835.63 -398.74,977.6l1169.63 -964.37z"/>
   <path fill="#EAF5DF" d="M8459.77 2205.56c69.64,67.04 227.66,157.15 319.39,217.34l991.61 652.12 -116.81 -1746.53 -588.89 427.87c-74.1,56.34 -549.88,386.38 -605.3,449.2z"/>
   <path fill="#FED7B8" d="M20128.82 12601.96c-190.63,32.26 -1384.28,294.86 -1468.91,343.57l1396.11 1084.96 72.8 -1428.53z"/>
   <polygon fill="#FCD1C6" points="5507.45,25885.26 7819.53,25885.26 8056.7,24992.5 "/>
   <path fill="#E9C8C4" d="M22865.17 20420.13c46.51,-102.88 509.09,-586.28 592.29,-703.58 36.39,-51.33 25.74,-56.27 89.14,-90.39 -40.78,-87.28 -86.31,-111.2 -161.85,-180.05 -59.9,-54.58 -108.2,-124.61 -163.38,-188.4 -55.27,-63.89 -112.66,-100.76 -167.9,-164.35l-833.87 -891.6c15,116.15 256.53,917.49 308.88,1102.34l336.69 1116.03z"/>
   <path fill="#E9C8C4" d="M13110.82 736.17c20.95,72.03 205.52,798.13 248.31,861.13l434.74 -846.27 375.97 -745.23 -1254.62 0 195.6 730.37z"/>
   <path fill="#E9C8C4" d="M17983.25 5.8l-805.65 0 270.02 991.79 742.71 -640.57c-50.38,-126.73 -155.61,-228.2 -207.08,-351.22z"/>
   <path fill="#EAD8D9" d="M-5.76 2056.06l908.69 55.67 -219.01 -263.36c-38.06,-49.9 -69.36,-74.92 -110.91,-129.4l-578.77 -664.37 0 1001.46z"/>
   <path fill="#F1F1BD" d="M25873.7 6656.52l0 -927.79c-24.43,24.27 3.34,-6.65 -29.19,32.36l-454.4 619.07c-86.99,112.6 -162.49,219.35 -241.84,331.33 -86.05,121.41 -163.38,213.1 -241.09,340.92l966.52 -395.89z"/>
   <path fill="#AFC7E5" d="M25873.7 9730.06l0 -1011.16c-216.89,196.27 -464.31,499.84 -601.54,611.86 -65.39,53.38 -155.64,140.31 -192.18,213.47l793.72 185.83z"/>
   <path fill="#A2E6D9" d="M-5.76 25885.26l1964.29 0c-94.23,-46.36 -1727.26,-278.94 -1964.29,-307.16l0 307.16z"/>
   <polygon fill="#D7ECD3" points="8516.82,25885.26 9261.46,25885.26 8605.12,25525.94 "/>
   <path fill="#FCD1C6" d="M-5.76 2715.94c33.95,-23.75 288.87,-370.34 309.65,-413.36l-309.65 -10.59 0 423.95z"/>
   <path fill="#FCD2C7" d="M12488.89 25885.26l912.13 0c-93.9,-42.95 -773.91,-103.71 -932.15,-112.72l20.02 112.72z"/>
   <polygon fill="#EAD6CB" points="25873.7,382.36 25873.7,5.8 25645.74,5.8 "/>
   <polygon fill="#FFB295" points="11937.68,25885.26 12053.41,25885.26 11995.91,25548.19 "/>
   <path fill="#D0EFE4" d="M25777.63 25885.26l96.07 0 0 -120.71c-37.27,24.69 -74.9,82.51 -96.07,120.71z"/>
  </g>
 </g>
</svg>
